<svg width="750" height="500" viewBox="0 0 750 500" fill="none" xmlns="http://www.w3.org/2000/svg">
<path d="M292.16 62.08C292.116 62.1473 292.065 62.2108 292.01 62.27L291.54 62.79C291.14 63.26 290.54 63.91 289.74 64.79C287.559 67.386 285.652 70.201 284.05 73.19C281.593 77.7801 280.08 82.8158 279.6 88C279.038 94.5678 280.067 101.175 282.6 107.26L282.68 107.45L282.48 107.51C269.442 111.287 257.906 119.037 249.48 129.68C246.228 133.753 243.494 138.214 241.34 142.96L241.28 143.1L241.13 143.05C238.458 142.191 235.714 141.575 232.93 141.21C231.61 141.01 230.3 140.94 229.04 140.85C227.78 140.76 226.53 140.77 225.34 140.85C221.191 140.98 217.076 141.652 213.1 142.85C210.533 143.622 208.035 144.606 205.63 145.79C204.79 146.2 204.18 146.57 203.75 146.79L203.26 147.05C203.15 147.1 203.09 147.13 203.09 147.12L203.25 147.02L203.72 146.74C204.14 146.51 204.72 146.13 205.58 145.74C207.974 144.523 210.47 143.519 213.04 142.74C217.028 141.512 221.161 140.82 225.33 140.68C226.53 140.61 227.77 140.68 229.05 140.68C230.33 140.68 231.64 140.83 232.97 141.03C235.778 141.382 238.547 141.994 241.24 142.86L241.02 142.95C243.174 138.174 245.912 133.683 249.17 129.58C257.646 118.865 269.262 111.071 282.39 107.29L282.27 107.54C279.715 101.401 278.685 94.7339 279.27 88.11C279.781 82.916 281.336 77.8787 283.84 73.3C285.46 70.3054 287.405 67.4985 289.64 64.93C290.41 64.03 291.07 63.39 291.49 62.93L291.97 62.43L292.16 62.08Z" fill="#E0E0E0"/>
<path d="M202.43 62.08C202.49 62.1623 202.544 62.2492 202.59 62.34L203.02 63.12C203.41 63.82 203.95 64.83 204.65 66.12C206.06 68.73 208.06 72.52 210.49 77.23C215.36 86.65 221.9 99.76 228.73 114.42C235.56 129.08 241.38 142.53 245.45 152.32C247.45 157.21 249.11 161.19 250.2 163.94C250.74 165.31 251.2 166.37 251.45 167.12C251.58 167.47 251.69 167.74 251.77 167.95C251.815 168.042 251.845 168.139 251.86 168.24C251.86 168.24 251.81 168.15 251.73 167.96C251.65 167.77 251.52 167.49 251.38 167.15L250.06 164L245.19 152.43C241.06 142.67 235.19 129.25 228.37 114.59C221.55 99.93 215 86.81 210.24 77.36C207.83 72.66 205.88 68.85 204.51 66.19L202.95 63.19C202.79 62.85 202.66 62.59 202.56 62.39C202.51 62.2897 202.466 62.1861 202.43 62.08Z" fill="#E0E0E0"/>
<path d="M310 62.23H309.45H307.83H301.61L278.7 62.3L202.82 62.36L202.91 61.98L205.08 63.12C231.92 77.12 255.95 90.33 273.25 100.05C281.9 104.91 288.87 108.88 293.68 111.65L299.2 114.86L300.64 115.7C300.96 115.89 301.12 116 301.12 116L300.62 115.73L299.16 114.92L293.6 111.79C288.75 109.07 281.76 105.14 273.11 100.3C255.78 90.64 231.73 77.5 204.9 63.47L202.73 62.33L202 62H202.8L278.68 62.06L301.59 62.12H307.81H309.43C309.82 62.21 310 62.23 310 62.23Z" fill="#E0E0E0"/>
<path d="M203.09 129.71C203.423 129.444 203.778 129.207 204.15 129C204.569 128.726 205.003 128.476 205.45 128.25C205.97 127.99 206.54 127.64 207.22 127.37C207.948 127.03 208.692 126.726 209.45 126.46C210.315 126.138 211.196 125.861 212.09 125.63C214.14 125.094 216.236 124.759 218.35 124.63C220.464 124.547 222.581 124.675 224.67 125.01C225.58 125.156 226.481 125.35 227.37 125.59C228.151 125.781 228.922 126.011 229.68 126.28C230.38 126.49 230.98 126.78 231.53 127C231.994 127.183 232.448 127.39 232.89 127.62C233.28 127.791 233.655 127.996 234.01 128.23C233.604 128.1 233.206 127.943 232.82 127.76C232.45 127.59 231.99 127.39 231.44 127.2C230.89 127.01 230.29 126.74 229.59 126.55C228.836 126.295 228.068 126.082 227.29 125.91C226.407 125.685 225.512 125.505 224.61 125.37C222.546 125.059 220.456 124.945 218.37 125.03C216.283 125.144 214.211 125.452 212.18 125.95C211.25 126.2 210.37 126.44 209.56 126.74C208.75 127.04 208.01 127.31 207.34 127.59C206.67 127.87 206.08 128.18 205.55 128.42C205.02 128.66 204.55 128.9 204.23 129.1C203.869 129.336 203.487 129.54 203.09 129.71Z" fill="#E0E0E0"/>
<path d="M235.86 130.42C235.847 130.244 235.847 130.066 235.86 129.89C235.86 129.55 235.86 129.03 235.86 128.38C235.949 126.52 236.21 124.672 236.64 122.86C237.273 120.165 238.251 117.564 239.55 115.12C241.131 112.115 243.184 109.384 245.63 107.03C250.136 102.777 255.77 99.9091 261.86 98.77C263.69 98.422 265.548 98.2479 267.41 98.25C267.913 98.2241 268.417 98.2241 268.92 98.25C269.096 98.2285 269.274 98.2285 269.45 98.25C269.274 98.263 269.097 98.263 268.92 98.25C268.58 98.25 268.07 98.25 267.41 98.25C261.734 98.3692 256.192 99.9963 251.352 102.964C246.513 105.933 242.55 110.135 239.87 115.14C238.557 117.549 237.549 120.112 236.87 122.77C236.418 124.565 236.121 126.395 235.98 128.24C235.91 128.89 235.91 129.4 235.88 129.74C235.898 129.967 235.892 130.195 235.86 130.42Z" fill="#E0E0E0"/>
<path d="M275 62.08C274.958 62.2017 274.897 62.3164 274.82 62.42L274.24 63.34C273.98 63.74 273.66 64.22 273.34 64.81C273.02 65.4 272.6 66.04 272.24 66.81C271.88 67.58 271.43 68.38 271.05 69.3C270.67 70.22 270.28 71.2 269.9 72.25C268.305 76.824 267.599 81.6608 267.82 86.5C267.89 87.61 267.94 88.67 268.09 89.65C268.24 90.63 268.36 91.54 268.51 92.37C268.66 93.2 268.86 93.94 269 94.6C269.14 95.26 269.31 95.81 269.44 96.26L269.74 97.26C269.78 97.383 269.804 97.5108 269.81 97.64C269.75 97.5279 269.7 97.4108 269.66 97.29L269.29 96.29C269.14 95.84 268.95 95.29 268.79 94.63C268.63 93.97 268.38 93.25 268.24 92.41C268.1 91.57 267.87 90.67 267.76 89.67C267.65 88.67 267.53 87.62 267.46 86.5C267.342 84.0617 267.453 81.6177 267.79 79.2C268.158 76.7876 268.747 74.4143 269.55 72.11C269.95 71.05 270.32 70.05 270.75 69.11C271.18 68.17 271.59 67.37 271.99 66.62C272.39 65.87 272.81 65.23 273.15 64.62C273.457 64.1223 273.791 63.6416 274.15 63.18L274.79 62.3C274.855 62.2214 274.925 62.1479 275 62.08Z" fill="#E0E0E0"/>
<path d="M255.75 62.08C255.542 62.3856 255.304 62.6702 255.04 62.93C254.382 63.6834 253.765 64.4712 253.19 65.29C252.349 66.4996 251.641 67.7973 251.08 69.16C250.408 70.8364 249.984 72.6015 249.82 74.4C249.524 77.68 249.969 80.9846 251.12 84.07C251.469 85.0048 251.876 85.9167 252.34 86.8C252.529 87.122 252.696 87.456 252.84 87.8C252.599 87.5193 252.388 87.2143 252.21 86.89C251.684 86.0267 251.232 85.1201 250.86 84.18C249.601 81.0727 249.107 77.7081 249.42 74.37C249.726 71.0157 250.966 67.8144 253 65.13C253.606 64.3122 254.274 63.5432 255 62.83C255.225 62.5558 255.476 62.3045 255.75 62.08Z" fill="#E0E0E0"/>
<path d="M226.26 112.69C226.251 112.56 226.251 112.43 226.26 112.3C226.26 112 226.38 111.63 226.45 111.19C226.52 110.75 226.7 110.13 226.86 109.45C227.02 108.77 227.26 108.01 227.58 107.2C229.113 102.872 231.546 98.9181 234.72 95.6C238.42 91.74 242.72 89.04 246.16 88.3C247.522 87.975 248.939 87.9545 250.31 88.24C250.678 88.3297 251.039 88.4467 251.39 88.59C251.516 88.6305 251.634 88.6913 251.74 88.77C251.74 88.77 251.23 88.58 250.28 88.39C248.928 88.1714 247.547 88.2327 246.22 88.57C242.84 89.36 238.67 92.06 235.01 95.88C231.875 99.1608 229.436 103.042 227.84 107.29C227.51 108.1 227.3 108.86 227.07 109.51C226.84 110.16 226.72 110.75 226.6 111.22C226.48 111.69 226.41 112.02 226.34 112.31C226.336 112.44 226.308 112.569 226.26 112.69Z" fill="#E0E0E0"/>
<path d="M202.83 112.41C203.087 112.227 203.362 112.069 203.65 111.94C204.413 111.561 205.198 111.227 206 110.94C207.193 110.505 208.421 110.171 209.67 109.94C211.206 109.644 212.766 109.496 214.33 109.5C217.17 109.536 219.98 110.092 222.62 111.14C223.421 111.453 224.202 111.813 224.96 112.22C225.243 112.35 225.512 112.511 225.76 112.7C225.76 112.77 224.55 112.14 222.53 111.4C217.238 109.441 211.429 109.385 206.1 111.24C204.06 111.87 202.87 112.48 202.83 112.41Z" fill="#E0E0E0"/>
<path d="M203.09 96.59C203.09 96.59 203.23 96.42 203.53 96.16C203.963 95.7998 204.417 95.4659 204.89 95.16C206.452 94.1463 208.199 93.4529 210.031 93.1198C211.862 92.7868 213.742 92.8208 215.56 93.22C216.11 93.3311 216.652 93.4815 217.18 93.67C217.55 93.8 217.76 93.89 217.75 93.92C217.74 93.95 216.89 93.73 215.51 93.5C213.72 93.1975 211.891 93.1975 210.1 93.5C208.306 93.8503 206.583 94.4957 205 95.41C203.83 96.11 203.13 96.65 203.09 96.59Z" fill="#E0E0E0"/>
<path d="M237 78.42C237 78.5 235.65 78.68 233.58 79.42C233.013 79.6147 232.455 79.8384 231.91 80.09C231.258 80.3588 230.62 80.6626 230 81C228.63 81.7709 227.334 82.6681 226.13 83.68C224.937 84.7062 223.845 85.8447 222.87 87.08C222.44 87.66 222.01 88.2 221.68 88.75C221.344 89.2486 221.037 89.7661 220.76 90.3C219.76 92.23 219.32 93.55 219.24 93.52C219.299 93.2029 219.386 92.8917 219.5 92.59C219.61 92.2294 219.74 91.8755 219.89 91.53C220.07 91.13 220.24 90.65 220.51 90.17C220.775 89.6229 221.073 89.092 221.4 88.58C221.73 88.01 222.15 87.45 222.58 86.85C223.561 85.5858 224.663 84.4203 225.87 83.37C227.109 82.3398 228.449 81.4384 229.87 80.68C230.483 80.3484 231.114 80.0513 231.76 79.79C232.318 79.5474 232.889 79.3371 233.47 79.16C233.943 79.0024 234.424 78.8689 234.91 78.76C235.275 78.6643 235.646 78.5908 236.02 78.54C236.341 78.4625 236.67 78.4222 237 78.42Z" fill="#E0E0E0"/>
<path d="M237.87 61.88C237.93 61.88 237.37 62.72 236.75 64.14C236.385 64.9706 236.091 65.8303 235.87 66.71C235.616 67.7906 235.459 68.8916 235.4 70C235.359 71.1068 235.422 72.2151 235.59 73.31C235.732 74.2034 235.949 75.0833 236.24 75.94C236.74 77.41 237.24 78.25 237.16 78.28C237.08 78.31 237 78.1 236.77 77.72C236.466 77.1692 236.208 76.5938 236 76C235.671 75.1349 235.423 74.241 235.26 73.33C235.062 72.2315 234.975 71.1159 235 70C235.06 68.8654 235.235 67.7398 235.52 66.64C235.774 65.748 236.108 64.881 236.52 64.05C236.788 63.4862 237.106 62.9474 237.47 62.44C237.69 62.06 237.84 61.87 237.87 61.88Z" fill="#E0E0E0"/>
<path d="M202.83 62.23C202.94 62.23 203.03 86.94 203.03 117.43C203.03 147.92 202.94 172.63 202.83 172.63C202.72 172.63 202.63 147.92 202.63 117.43C202.63 86.94 202.72 62.23 202.83 62.23Z" fill="#E0E0E0"/>
<path d="M475.23 264.07L475.37 264.18L475.76 264.53C476.11 264.83 476.6 265.31 477.28 265.87C479.213 267.508 481.315 268.936 483.55 270.13C486.959 271.96 490.698 273.092 494.55 273.46C499.478 273.883 504.436 273.107 509 271.2L509.15 271.14V271.29C511.972 281.053 517.772 289.692 525.74 296C528.785 298.434 532.12 300.48 535.67 302.09H535.78V302.21C535.131 304.206 534.669 306.258 534.4 308.34C534.25 309.34 534.2 310.34 534.13 311.25C534.06 312.16 534.07 313.12 534.13 314.01C534.216 317.111 534.71 320.188 535.6 323.16C536.178 325.081 536.914 326.951 537.8 328.75C538.1 329.38 538.38 329.84 538.54 330.16L538.73 330.52L538.79 330.65C538.79 330.65 538.79 330.65 538.71 330.53L538.5 330.18C538.33 329.87 538.04 329.41 537.73 328.79C536.806 327.001 536.043 325.134 535.45 323.21C534.528 320.229 534.01 317.138 533.91 314.02C533.86 313.12 533.91 312.19 533.91 311.24C533.91 310.29 534.02 309.3 534.17 308.3C534.437 306.206 534.896 304.14 535.54 302.13L535.61 302.29C532.039 300.675 528.68 298.626 525.61 296.19C522.209 293.509 519.182 290.385 516.61 286.9C513.129 282.226 510.53 276.957 508.94 271.35L509.13 271.44C504.538 273.348 499.553 274.117 494.6 273.68C490.715 273.293 486.947 272.13 483.52 270.26C481.286 269.042 479.187 267.591 477.26 265.93C476.59 265.34 476.12 264.85 475.78 264.54L475.4 264.18L475.23 264.07Z" fill="#E0E0E0"/>
<path d="M475.23 331.16L475.42 331.04L476 330.72L478.25 329.5C480.2 328.45 483.04 326.96 486.56 325.14C493.56 321.5 503.4 316.61 514.37 311.5C525.34 306.39 535.37 302.04 542.71 298.99C546.37 297.47 549.34 296.26 551.4 295.44L553.77 294.51L554.39 294.27L554.61 294.2L554.4 294.3L553.79 294.56L551.44 295.56L542.79 299.2C535.49 302.29 525.46 306.67 514.49 311.78C503.52 316.89 493.72 321.78 486.65 325.33L478.3 329.62L476 330.77L475.41 331.07L475.23 331.16Z" fill="#E0E0E0"/>
<path d="M475.34 250.72C475.34 250.72 475.34 250.86 475.34 251.13C475.34 251.4 475.34 251.81 475.34 252.34C475.34 253.41 475.34 254.97 475.34 256.99C475.34 261.04 475.34 266.89 475.39 274.12C475.39 288.61 475.39 308.64 475.39 330.86L475.11 330.79L475.96 329.17C486.46 309.11 496.32 291.17 503.58 278.17C507.21 271.7 510.19 266.49 512.26 262.89L514.65 258.76C514.93 258.29 515.14 257.94 515.28 257.69L515.51 257.33L515.31 257.7C515.17 257.96 514.97 258.32 514.7 258.79L512.45 263L503.86 278.32C496.64 291.32 486.81 309.27 476.32 329.32C476.02 329.88 475.73 330.43 475.47 330.94L475.19 331.48V330.87C475.19 308.65 475.19 288.62 475.19 274.13C475.19 266.9 475.19 261.05 475.19 257C475.19 255 475.19 253.42 475.19 252.35C475.19 251.82 475.19 251.42 475.19 251.14C475.19 250.86 475.34 250.72 475.34 250.72Z" fill="#E0E0E0"/>
<path d="M525.8 330.67C525.599 330.424 525.422 330.159 525.27 329.88C525.062 329.559 524.875 329.225 524.71 328.88C524.466 328.449 524.246 328.005 524.05 327.55C523.79 327.008 523.563 326.45 523.37 325.88C523.126 325.226 522.919 324.558 522.75 323.88C521.929 320.815 521.775 317.609 522.3 314.48C522.43 313.76 522.56 313.08 522.74 312.48C522.88 311.897 523.053 311.323 523.26 310.76C523.42 310.23 523.63 309.76 523.79 309.38C523.929 309.039 524.086 308.705 524.26 308.38C524.385 308.087 524.535 307.806 524.71 307.54C524.616 307.845 524.499 308.143 524.36 308.43C524.24 308.71 524.09 309.05 523.94 309.43C523.79 309.81 523.6 310.29 523.46 310.82C523.32 311.35 523.11 311.91 522.98 312.53C522.85 313.15 522.7 313.83 522.57 314.53C522.346 316.076 522.262 317.639 522.32 319.2C522.408 320.758 522.639 322.304 523.01 323.82C523.2 324.52 523.37 325.18 523.6 325.82C523.83 326.46 524.03 326.98 524.24 327.48C524.45 327.98 524.67 328.43 524.85 328.82C525.03 329.21 525.22 329.54 525.37 329.82C525.535 330.092 525.679 330.376 525.8 330.67Z" fill="#E0E0E0"/>
<path d="M526.33 306.17H525.94C525.68 306.17 525.29 306.17 524.8 306.17C523.411 306.111 522.031 305.916 520.68 305.59C516.173 304.532 512.071 302.186 508.875 298.837C505.679 295.488 503.526 291.281 502.68 286.73C502.425 285.361 502.294 283.972 502.29 282.58C502.29 282.09 502.29 281.71 502.29 281.45C502.273 281.317 502.273 281.183 502.29 281.05C502.298 281.183 502.298 281.317 502.29 281.45C502.29 281.71 502.29 282.09 502.29 282.58C502.332 283.961 502.493 285.336 502.77 286.69C503.176 288.699 503.828 290.65 504.71 292.5C505.8 294.758 507.23 296.835 508.95 298.66C512.136 301.947 516.178 304.275 520.62 305.38C521.962 305.721 523.33 305.948 524.71 306.06C525.2 306.11 525.58 306.06 525.84 306.13C526.004 306.116 526.17 306.129 526.33 306.17Z" fill="#E0E0E0"/>
<path d="M475.23 276.94C475.32 276.969 475.405 277.013 475.48 277.07L476.17 277.5C476.47 277.7 476.83 277.93 477.27 278.18C477.71 278.43 478.19 278.73 478.76 279C479.33 279.27 479.93 279.61 480.62 279.89C481.31 280.17 482.04 280.47 482.82 280.75C486.244 281.935 489.861 282.461 493.48 282.3C494.31 282.25 495.1 282.21 495.84 282.1C496.58 281.99 497.25 281.9 497.84 281.79C498.43 281.68 499.01 281.53 499.51 281.42C500.01 281.31 500.41 281.19 500.75 281.09L501.53 280.87C501.62 280.837 501.714 280.816 501.81 280.81C501.81 280.81 501.73 280.86 501.55 280.93L500.78 281.2C500.377 281.349 499.967 281.476 499.55 281.58C499.06 281.7 498.55 281.88 497.88 281.99C497.21 282.1 496.58 282.26 495.88 282.35C495.18 282.44 494.34 282.52 493.5 282.58C491.676 282.661 489.849 282.577 488.04 282.33C486.237 282.052 484.463 281.61 482.74 281.01C481.95 280.71 481.2 280.44 480.53 280.11C479.86 279.78 479.23 279.48 478.67 279.18C478.11 278.88 477.67 278.57 477.19 278.32C476.71 278.07 476.4 277.81 476.12 277.6L475.46 277.12C475.376 277.069 475.299 277.009 475.23 276.94Z" fill="#E0E0E0"/>
<path d="M475.23 291.29C475.453 291.451 475.663 291.628 475.86 291.82C476.423 292.313 477.014 292.774 477.63 293.2C478.531 293.836 479.5 294.369 480.52 294.79C481.775 295.289 483.095 295.605 484.44 295.73C486.895 295.947 489.367 295.606 491.67 294.73C492.355 294.469 493.023 294.165 493.67 293.82C493.906 293.676 494.153 293.552 494.41 293.45C494.198 293.627 493.971 293.785 493.73 293.92C493.09 294.305 492.422 294.639 491.73 294.92C489.405 295.86 486.887 296.227 484.39 295.99C483.013 295.863 481.664 295.526 480.39 294.99C479.355 294.548 478.375 293.988 477.47 293.32C476.865 292.876 476.294 292.388 475.76 291.86C475.564 291.689 475.386 291.498 475.23 291.29Z" fill="#E0E0E0"/>
<path d="M513.07 313.34C512.974 313.353 512.876 313.353 512.78 313.34L511.95 313.2C511.59 313.13 511.16 313.02 510.65 312.89C510.14 312.76 509.57 312.6 508.96 312.36C505.728 311.207 502.774 309.388 500.29 307.02C497.4 304.25 495.39 301.07 494.83 298.46C494.598 297.44 494.598 296.38 494.83 295.36C494.892 295.086 494.979 294.818 495.09 294.56C495.124 294.466 495.168 294.376 495.22 294.29C495.22 294.29 495.08 294.67 494.94 295.38C494.781 296.379 494.828 297.4 495.08 298.38C495.67 300.9 497.68 304.03 500.54 306.76C502.994 309.102 505.895 310.925 509.07 312.12C509.68 312.37 510.25 312.53 510.73 312.7L512.01 313.05L512.83 313.24C512.914 313.264 512.994 313.297 513.07 313.34Z" fill="#E0E0E0"/>
<path d="M512.86 330.86C512.726 330.667 512.609 330.463 512.51 330.25C512.221 329.678 511.963 329.091 511.74 328.49C511.409 327.599 511.151 326.683 510.97 325.75C510.748 324.603 510.637 323.438 510.64 322.27C510.658 321.1 510.792 319.934 511.04 318.79C511.239 317.858 511.517 316.945 511.87 316.06C512.101 315.464 512.368 314.883 512.67 314.32C512.768 314.105 512.892 313.904 513.04 313.72C513.09 313.72 512.61 314.63 512.04 316.14C511.322 318.105 510.94 320.178 510.91 322.27C510.905 324.361 511.243 326.438 511.91 328.42C512.46 329.94 512.92 330.84 512.86 330.86Z" fill="#E0E0E0"/>
<path d="M501 330.67C500.879 330.574 500.772 330.463 500.68 330.34C500.414 330.022 500.166 329.688 499.94 329.34C499.191 328.166 498.675 326.859 498.42 325.49C498.181 324.118 498.205 322.713 498.49 321.35C498.571 320.938 498.685 320.534 498.83 320.14C498.93 319.86 498.99 319.71 499.01 319.72C499.03 319.73 498.87 320.36 498.7 321.39C498.473 322.731 498.473 324.1 498.7 325.44C498.957 326.773 499.434 328.053 500.11 329.23C500.67 330.12 501.07 330.64 501 330.67Z" fill="#E0E0E0"/>
<path d="M487.44 305.33C487.51 305.33 487.64 306.33 488.18 307.89C488.325 308.315 488.492 308.732 488.68 309.14C488.86 309.58 489.11 310.04 489.36 310.52C489.933 311.545 490.602 312.513 491.36 313.41C492.133 314.297 492.983 315.114 493.9 315.85C494.34 316.17 494.74 316.49 495.16 316.74C495.58 316.99 495.95 317.23 496.31 317.43C497.76 318.21 498.74 318.5 498.72 318.56C498.484 318.521 498.253 318.457 498.03 318.37C497.81 318.3 497.54 318.21 497.23 318.08C496.888 317.943 496.554 317.786 496.23 317.61C495.807 317.434 495.396 317.23 495 317C494.57 316.75 494.15 316.44 493.7 316.12C492.758 315.383 491.888 314.56 491.1 313.66C490.338 312.727 489.668 311.722 489.1 310.66C488.85 310.2 488.626 309.726 488.43 309.24C488.265 308.834 488.122 308.42 488 308C487.86 307.6 487.79 307.23 487.71 306.91C487.633 306.638 487.576 306.36 487.54 306.08C487.479 305.834 487.445 305.583 487.44 305.33Z" fill="#E0E0E0"/>
<path d="M475.08 304.67C475.08 304.62 475.7 305.03 476.77 305.5C477.388 305.77 478.027 305.991 478.68 306.16C480.293 306.556 481.969 306.627 483.61 306.37C484.29 306.268 484.96 306.104 485.61 305.88C486.71 305.51 487.34 305.15 487.37 305.2C487.241 305.314 487.096 305.408 486.94 305.48C486.541 305.72 486.119 305.921 485.68 306.08C485.033 306.329 484.363 306.517 483.68 306.64C482.841 306.781 481.99 306.838 481.14 306.81C480.296 306.765 479.458 306.634 478.64 306.42C477.97 306.244 477.32 305.999 476.7 305.69C476.278 305.492 475.873 305.257 475.49 304.99C475.34 304.902 475.202 304.794 475.08 304.67Z" fill="#E0E0E0"/>
<path d="M475.34 330.86C475.34 330.78 493.82 330.71 516.61 330.71C539.4 330.71 557.9 330.78 557.9 330.86C557.9 330.94 539.42 331.01 516.61 331.01C493.8 331.01 475.34 330.94 475.34 330.86Z" fill="#E0E0E0"/>
<path d="M584 61.17C584.516 61.1251 585.022 61.0003 585.5 60.8C586.07 60.5321 586.565 60.1266 586.94 59.62C587.454 58.9323 587.716 58.0881 587.68 57.23C587.68 55.23 587.68 52.87 587.68 50.09C587.68 48.7 587.68 47.21 587.68 45.63C587.68 44.85 587.68 44 587.68 43.22C587.566 42.4057 587.178 41.6544 586.58 41.09C585.96 40.4825 585.137 40.1263 584.27 40.09H575.51H562.35H532.19C531.726 40.09 531.267 40.1817 530.838 40.3598C530.41 40.538 530.021 40.799 529.694 41.128C529.367 41.457 529.108 41.8474 528.932 42.2768C528.756 42.7062 528.667 43.1661 528.67 43.63V45.63C528.67 48.24 528.67 50.8 528.67 53.33V57.07C528.638 57.6406 528.744 58.2105 528.977 58.7323C529.21 59.2541 529.564 59.7127 530.01 60.07C530.453 60.4221 530.974 60.6622 531.53 60.77C532.108 60.8359 532.689 60.856 533.27 60.83H536.79H561.42L578.03 60.92H582.54H583.72C583.853 60.9074 583.987 60.9074 584.12 60.92C583.987 60.9349 583.853 60.9349 583.72 60.92H582.54L578.03 60.97L561.42 61.05L536.79 61.11H533.27C532.659 61.1405 532.047 61.1171 531.44 61.04C530.805 60.9192 530.209 60.6483 529.7 60.25C529.201 59.8882 528.789 59.4193 528.495 58.8777C528.201 58.3361 528.032 57.7355 528 57.12V43.72C527.998 43.0184 528.181 42.3286 528.53 41.72C528.885 41.1051 529.397 40.5958 530.014 40.2443C530.631 39.8928 531.33 39.7119 532.04 39.72H562.2H575.36H581.36H584.18C585.131 39.762 586.034 40.1495 586.72 40.81C587.371 41.4365 587.79 42.2648 587.91 43.16C587.99 44.04 587.91 44.82 587.91 45.62C587.91 47.2 587.91 48.69 587.91 50.08C587.91 52.86 587.91 55.25 587.91 57.22C587.927 58.1174 587.642 58.9944 587.1 59.71C586.699 60.2207 586.176 60.623 585.58 60.88C585.214 61.033 584.826 61.1275 584.43 61.16L584 61.17Z" fill="#E0E0E0"/>
<path d="M118.48 50.4C119.005 50.3495 119.518 50.2144 120 50C120.674 49.689 121.241 49.1844 121.627 48.5504C122.014 47.9164 122.202 47.1818 122.17 46.44C122.17 44.44 122.17 42.08 122.17 39.3C122.17 37.91 122.17 36.42 122.17 34.84C122.17 34.06 122.17 33.21 122.17 32.43C122.061 31.6142 121.672 30.8615 121.07 30.3C120.453 29.6948 119.634 29.3387 118.77 29.3H110H96.84H66.68C66.0584 29.301 65.448 29.4661 64.9107 29.7787C64.3734 30.0912 63.9281 30.5401 63.62 31.08C63.2282 31.6447 63.0125 32.3128 63 33V42.6C63 43.87 63 45.12 63 46.35C62.9704 46.9213 63.0775 47.4915 63.3123 48.0132C63.547 48.5349 63.9028 48.9932 64.35 49.35C64.7919 49.7038 65.3138 49.9441 65.87 50.05C66.4475 50.1159 67.0293 50.136 67.61 50.11H71.13L95.76 50.16L112.36 50.25L95.76 50.33L71.13 50.39H67.64C67.0291 50.4157 66.4171 50.3923 65.81 50.32C65.1753 50.1992 64.5787 49.9283 64.07 49.53C63.5583 49.1226 63.1515 48.5986 62.8836 48.0019C62.6157 47.4052 62.4945 46.7531 62.53 46.1V42.6C62.53 40.08 62.53 37.51 62.53 34.91V33C62.5323 32.2989 62.7148 31.6102 63.06 31C63.4149 30.3851 63.9271 29.8758 64.5439 29.5243C65.1608 29.1728 65.8601 28.9919 66.57 29H96.73H109.89H115.89H118.71C119.634 29.0535 120.51 29.4256 121.19 30.0529C121.87 30.6801 122.312 31.5237 122.44 32.44C122.51 33.32 122.44 34.1 122.44 34.9C122.44 36.48 122.44 37.97 122.44 39.36C122.44 42.14 122.44 44.53 122.44 46.5C122.464 47.3984 122.178 48.2777 121.63 48.99C121.195 49.5032 120.633 49.893 120 50.12C119.634 50.2751 119.246 50.3697 118.85 50.4H118.48Z" fill="#E0E0E0"/>
<path d="M97.0803 71.79C97.6008 71.7523 98.1113 71.6272 98.5903 71.42C99.2645 71.109 99.8309 70.6044 100.217 69.9704C100.604 69.3364 100.793 68.6018 100.76 67.86C100.76 65.86 100.76 63.49 100.76 60.72C100.76 59.32 100.76 57.83 100.76 56.26C100.76 55.48 100.76 54.63 100.76 53.85C100.657 53.0345 100.271 52.2809 99.6703 51.72C99.0447 51.1211 98.2251 50.7663 97.3603 50.72H94.5603H88.5603H75.3903H45.2403C44.6166 50.7233 44.0047 50.8904 43.466 51.2045C42.9272 51.5187 42.4804 51.9688 42.1703 52.51C41.8725 53.0491 41.7143 53.6541 41.7103 54.27V67.67C41.6771 68.2408 41.7814 68.8112 42.0146 69.3333C42.2478 69.8554 42.603 70.3138 43.0503 70.67C43.4933 71.0221 44.0147 71.2622 44.5703 71.37C45.1475 71.4393 45.7293 71.4627 46.3103 71.44H49.8303L74.4603 71.5L91.0003 71.69H95.5103H96.6803C96.8135 71.6811 96.9471 71.6811 97.0803 71.69C96.9473 71.7034 96.8133 71.7034 96.6803 71.69H95.5103H91.0003L74.3903 72H49.7603H46.2403C45.6311 72.0438 45.0195 72.0438 44.4103 72C43.7771 71.8745 43.1815 71.6041 42.6703 71.21C42.1605 70.8009 41.755 70.2767 41.4873 69.6804C41.2196 69.0841 41.0972 68.4328 41.1303 67.78V64C41.1303 61.48 41.1303 58.91 41.1303 56.31V54.31C41.1374 53.6096 41.3196 52.922 41.6603 52.31C42.023 51.6998 42.5383 51.1946 43.1555 50.8439C43.7726 50.4932 44.4704 50.3092 45.1803 50.31H75.3303H88.5003H94.5003H97.3203C98.2425 50.3767 99.1132 50.7609 99.7841 51.3972C100.455 52.0335 100.885 52.8826 101 53.8C101.07 54.68 101 55.46 101 56.26C101 57.83 101 59.32 101 60.72C101 63.49 101 65.89 101 67.86C101.023 68.7567 100.733 69.6333 100.18 70.34C99.7842 70.8582 99.2605 71.2647 98.6603 71.52C98.2961 71.6689 97.912 71.7632 97.5203 71.8C97.3738 71.8168 97.2258 71.8134 97.0803 71.79Z" fill="#E0E0E0"/>
<path d="M203.13 370.63C203.649 370.578 204.158 370.45 204.64 370.25C205.314 369.939 205.881 369.434 206.267 368.8C206.653 368.166 206.842 367.432 206.81 366.69C206.81 364.69 206.81 362.33 206.81 359.55C206.81 358.15 206.81 356.67 206.81 355.09C206.81 354.31 206.81 353.46 206.76 352.68C206.646 351.847 206.243 351.08 205.622 350.514C205 349.947 204.2 349.617 203.36 349.58H200.56H194.56H181.4H151.25C150.626 349.583 150.014 349.75 149.476 350.065C148.937 350.379 148.49 350.829 148.18 351.37C147.882 351.909 147.724 352.514 147.72 353.13V362.78C147.72 364.04 147.72 365.29 147.72 366.53C147.694 367.101 147.802 367.67 148.037 368.191C148.271 368.712 148.625 369.171 149.07 369.53C149.515 369.877 150.036 370.113 150.59 370.22C151.167 370.294 151.749 370.318 152.33 370.29H155.85L180.48 370.34L197.08 370.42L201.6 370.47H202.77C202.903 370.457 203.037 370.457 203.17 370.47H202.77H201.6L197.08 370.52L180.48 370.6L155.85 370.65H152.33C151.719 370.676 151.107 370.652 150.5 370.58C149.865 370.459 149.269 370.188 148.76 369.79C148.248 369.383 147.841 368.859 147.574 368.262C147.306 367.665 147.184 367.013 147.22 366.36V362.61C147.22 360.09 147.22 357.52 147.22 354.92V352.92C147.217 352.386 147.32 351.858 147.522 351.364C147.725 350.87 148.023 350.421 148.399 350.043C148.775 349.665 149.223 349.365 149.715 349.16C150.208 348.955 150.736 348.85 151.27 348.85H181.42H194.58H200.58H203.4C204.324 348.904 205.2 349.276 205.88 349.903C206.56 350.53 207.002 351.374 207.13 352.29C207.2 353.17 207.13 353.95 207.13 354.75C207.13 356.33 207.13 357.81 207.13 359.21C207.13 361.99 207.13 364.38 207.08 366.35C207.102 367.123 206.891 367.885 206.476 368.537C206.061 369.19 205.46 369.703 204.75 370.01C204.383 370.16 203.995 370.254 203.6 370.29L203.13 370.63Z" fill="#E0E0E0"/>
<path d="M685.64 291.67C686.161 291.625 686.67 291.496 687.15 291.29C687.824 290.979 688.391 290.474 688.777 289.84C689.164 289.206 689.353 288.472 689.32 287.73C689.32 285.73 689.32 283.37 689.27 280.59C689.27 279.2 689.27 277.71 689.27 276.13C689.27 275.35 689.27 274.5 689.27 273.72C689.156 272.906 688.768 272.154 688.17 271.59C687.553 270.985 686.734 270.629 685.87 270.59H677H663.84H633.68C633.216 270.59 632.757 270.682 632.328 270.86C631.9 271.038 631.511 271.299 631.184 271.628C630.857 271.957 630.598 272.347 630.422 272.777C630.247 273.206 630.157 273.666 630.16 274.13V276.13C630.16 278.73 630.16 281.3 630.16 283.82V287.57C630.098 288.437 630.356 289.296 630.885 289.985C631.414 290.674 632.177 291.146 633.03 291.31C633.608 291.376 634.189 291.396 634.77 291.37H638.29L662.92 291.42L679.52 291.51L662.92 291.59L638.29 291.65H634.8C634.186 291.676 633.571 291.652 632.96 291.58C632.328 291.46 631.735 291.189 631.23 290.79C630.718 290.383 630.312 289.859 630.044 289.262C629.776 288.665 629.655 288.013 629.69 287.36C629.69 286.12 629.69 284.87 629.69 283.61V273.96C629.692 273.259 629.875 272.57 630.22 271.96C630.575 271.345 631.087 270.836 631.704 270.484C632.321 270.133 633.02 269.952 633.73 269.96H663.89H677.05H683.05H685.87C686.796 270.011 687.674 270.382 688.357 271.01C689.039 271.637 689.482 272.482 689.61 273.4C689.68 274.28 689.61 275.06 689.61 275.86C689.61 277.44 689.61 278.93 689.61 280.32C689.61 283.1 689.61 285.49 689.61 287.46C689.627 288.357 689.342 289.234 688.8 289.95C688.399 290.461 687.877 290.863 687.28 291.12C686.914 291.273 686.526 291.367 686.13 291.4L685.64 291.67Z" fill="#E0E0E0"/>
<path d="M491.61 140.6C492.13 140.548 492.638 140.42 493.12 140.22C493.795 139.909 494.361 139.404 494.747 138.77C495.134 138.136 495.323 137.402 495.29 136.66C495.29 134.66 495.29 132.3 495.29 129.52C495.29 128.12 495.29 126.64 495.29 125.06C495.29 124.28 495.29 123.43 495.24 122.65C495.126 121.817 494.724 121.05 494.102 120.484C493.481 119.917 492.68 119.587 491.84 119.55H483H469.84H439.69C439.067 119.553 438.455 119.72 437.916 120.035C437.377 120.349 436.93 120.799 436.62 121.34C436.323 121.879 436.164 122.484 436.16 123.1V132.75C436.16 134.01 436.16 135.26 436.16 136.5C436.133 137.071 436.241 137.64 436.476 138.162C436.711 138.683 437.065 139.142 437.51 139.5C437.955 139.847 438.476 140.083 439.03 140.19C439.607 140.264 440.189 140.288 440.77 140.26H444.29H468.92L485.52 140.34H490.04H491.21C491.343 140.327 491.477 140.327 491.61 140.34H491.21H490.04H485.52L468.92 140.42L444.29 140.48H440.77C440.159 140.506 439.547 140.482 438.94 140.41C438.306 140.289 437.709 140.018 437.2 139.62C436.689 139.213 436.282 138.689 436.014 138.092C435.746 137.495 435.625 136.843 435.66 136.19V132.8C435.66 130.28 435.66 127.71 435.66 125.11V123.11C435.658 122.576 435.761 122.048 435.963 121.554C436.165 121.06 436.463 120.611 436.839 120.233C437.216 119.855 437.663 119.555 438.156 119.35C438.649 119.145 439.177 119.04 439.71 119.04H469.86H483.02H489.02H491.84C492.764 119.094 493.64 119.466 494.321 120.093C495.001 120.72 495.442 121.564 495.57 122.48C495.64 123.36 495.57 124.14 495.57 124.94C495.57 126.52 495.57 128 495.57 129.4C495.57 132.18 495.57 134.57 495.52 136.54C495.542 137.313 495.332 138.075 494.916 138.727C494.501 139.38 493.9 139.893 493.19 140.2C492.823 140.35 492.435 140.444 492.04 140.48C491.75 140.61 491.61 140.6 491.61 140.6Z" fill="#E0E0E0"/>
<path d="M90.1401 208.27C90.6573 208.232 91.1644 208.106 91.6401 207.9C92.2105 207.632 92.7054 207.227 93.0801 206.72C93.5931 206.035 93.8544 205.195 93.8201 204.34C93.8201 202.34 93.8201 199.97 93.8201 197.19C93.8201 195.8 93.8201 194.31 93.8201 192.73C93.8201 191.95 93.8201 191.1 93.8201 190.32C93.706 189.506 93.318 188.754 92.7201 188.19C92.1002 187.583 91.2773 187.226 90.4101 187.19H81.5401H68.3801H38.2201C37.7562 187.19 37.2968 187.282 36.8684 187.46C36.44 187.638 36.0511 187.899 35.724 188.228C35.3969 188.557 35.138 188.947 34.9623 189.377C34.7866 189.806 34.6975 190.266 34.7001 190.73V192.73C34.7001 195.34 34.7001 197.9 34.7001 200.43V204.17C34.6686 204.741 34.7737 205.31 35.0068 205.832C35.2398 206.354 35.5941 206.813 36.0401 207.17C36.4831 207.522 37.0045 207.762 37.5601 207.87C38.1376 207.936 38.7194 207.956 39.3001 207.93H42.8201L67.4501 207.98L84.0601 208.07L88.5701 208.12H89.7501C89.8831 208.107 90.0171 208.107 90.1501 208.12H89.7501H88.5701L84.0601 208.17L67.4501 208.25L42.8201 208.31H39.2901C38.6792 208.341 38.0669 208.317 37.4601 208.24C36.8241 208.123 36.2265 207.852 35.7201 207.45C35.2091 207.042 34.8027 206.518 34.5349 205.921C34.267 205.325 34.1454 204.673 34.1801 204.02V190.62C34.1783 189.918 34.3611 189.229 34.7101 188.62C35.065 188.005 35.5772 187.496 36.1941 187.144C36.8109 186.793 37.5102 186.612 38.2201 186.62H68.3801H81.5401H87.5401H90.3601C91.2837 186.674 92.1603 187.046 92.8404 187.673C93.5205 188.3 93.9621 189.144 94.0901 190.06C94.1701 190.94 94.0901 191.72 94.0901 192.52C94.0901 194.1 94.0901 195.59 94.0901 196.98C94.0901 199.76 94.0901 202.16 94.0901 204.13C94.1096 205.025 93.8239 205.899 93.2801 206.61C92.8884 207.211 92.3381 207.692 91.6901 208C91.3238 208.153 90.9357 208.247 90.5401 208.28L90.1401 208.27Z" fill="#E0E0E0"/>
<path d="M699 390.42C699 390.56 553.95 390.68 375.07 390.68C196.19 390.68 51.0698 390.56 51.0698 390.42C51.0698 390.28 196.07 390.16 375.07 390.16C554.07 390.16 699 390.28 699 390.42Z" fill="#263238"/>
<path d="M30.75 176.46H195.57C197.728 176.432 199.79 175.562 201.316 174.036C202.842 172.51 203.712 170.448 203.74 168.29V58L195.57 66.18H466.06L457.88 58V338.6C457.911 340.76 458.783 342.822 460.31 344.35C461.838 345.877 463.9 346.749 466.06 346.78H647.78C656.36 346.78 710.67 346.49 719.25 346.49C729.77 346.49 729.79 330.13 719.25 330.13C695.83 330.13 626.68 330.42 603.25 330.42H466.06L474.24 338.6V58C474.209 55.8411 473.337 53.7796 471.809 52.2538C470.282 50.728 468.219 49.8584 466.06 49.83H195.57C193.411 49.8584 191.349 50.728 189.821 52.2538C188.293 53.7796 187.421 55.8411 187.39 58V168.29L195.57 160.11H30.75C20.23 160.11 20.21 176.46 30.75 176.46Z" fill="#E0E0E0"/>
<path d="M203.92 66.68C203.82 66.68 203.61 65.46 202.92 63.58C202.49 62.4911 201.968 61.4406 201.36 60.44C200.587 59.2099 199.696 58.0578 198.7 57C197.704 55.9662 196.612 55.0287 195.44 54.2C194.471 53.5346 193.447 52.9525 192.38 52.46C190.55 51.63 189.32 51.35 189.38 51.26C189.675 51.2538 189.969 51.2977 190.25 51.39C190.588 51.4612 190.922 51.5513 191.25 51.66C191.692 51.791 192.126 51.9479 192.55 52.13C193.663 52.5824 194.729 53.1452 195.73 53.81C196.95 54.6322 198.079 55.5808 199.1 56.64C200.102 57.7228 200.99 58.9057 201.75 60.17C202.356 61.2082 202.858 62.3035 203.25 63.44C203.43 63.91 203.53 64.37 203.64 64.76C203.732 65.0883 203.802 65.4224 203.85 65.76C203.917 66.0617 203.941 66.3716 203.92 66.68Z" fill="#263238"/>
<path d="M205.86 142.48H185.19V149.79H205.86V142.48Z" fill="#E0E0E0"/>
<path d="M206 149.74C206 149.88 201.41 150 195.74 150C190.07 150 185.48 149.88 185.48 149.74C185.48 149.6 190.07 149.48 195.74 149.48C201.41 149.48 206 149.6 206 149.74Z" fill="#263238"/>
<path d="M206 142.48C206 142.62 201.37 142.74 195.65 142.74C189.93 142.74 185.3 142.62 185.3 142.48C188.743 142.216 192.198 142.13 195.65 142.22C199.102 142.13 202.557 142.216 206 142.48Z" fill="#263238"/>
<path d="M445.9 47.74V68.41H453.21V47.74H445.9Z" fill="#E0E0E0"/>
<path d="M453.16 47.62C453.424 51.0332 453.51 54.4578 453.42 57.88C453.51 61.3022 453.423 64.7268 453.16 68.14C453.02 68.14 452.9 63.54 452.9 57.88C452.9 52.22 453 47.62 453.16 47.62Z" fill="#263238"/>
<path d="M445.9 47.62C446.165 51.0732 446.252 54.5378 446.16 58C446.25 61.4522 446.164 64.9067 445.9 68.35C445.76 68.35 445.64 63.71 445.64 58C445.64 52.29 445.76 47.62 445.9 47.62Z" fill="#263238"/>
<path d="M455.58 90.07H476.25V82.76H455.58V90.07Z" fill="#E0E0E0"/>
<path d="M455.45 82.81C458.863 82.5463 462.288 82.4595 465.71 82.55C469.132 82.4595 472.557 82.5463 475.97 82.81C475.97 82.95 471.38 83.07 465.71 83.07C460.04 83.07 455.45 83 455.45 82.81Z" fill="#263238"/>
<path d="M455.45 90.07C458.893 89.8063 462.348 89.7195 465.8 89.81C469.252 89.7195 472.707 89.8063 476.15 90.07C476.15 90.21 471.52 90.33 465.8 90.33C460.08 90.33 455.45 90.21 455.45 90.07Z" fill="#263238"/>
<path d="M498.01 347.55V326.88H490.7V347.55H498.01Z" fill="#E0E0E0"/>
<path d="M490.75 347.67C490.487 344.257 490.4 340.832 490.49 337.41C490.4 333.988 490.487 330.563 490.75 327.15C490.89 327.15 491.01 331.74 491.01 337.41C491.01 343.08 490.89 347.67 490.75 347.67Z" fill="#263238"/>
<path d="M498 347.67C497.737 344.227 497.65 340.772 497.74 337.32C497.651 333.878 497.738 330.433 498 327C498.14 327 498.26 331.63 498.26 337.35C498.26 343.07 498.15 347.67 498 347.67Z" fill="#263238"/>
<path d="M476.63 308.24H455.96V315.55H476.63V308.24Z" fill="#E0E0E0"/>
<path d="M476.75 315.5C476.75 315.64 472.16 315.76 466.49 315.76C460.82 315.76 456.23 315.64 456.23 315.5C459.643 315.237 463.068 315.15 466.49 315.24C469.912 315.15 473.337 315.236 476.75 315.5Z" fill="#263238"/>
<path d="M476.75 308.24C476.75 308.38 472.12 308.5 466.4 308.5C460.68 308.5 456.05 308.38 456.05 308.24C459.493 307.98 462.948 307.9 466.4 308C469.852 307.9 473.306 307.98 476.75 308.24Z" fill="#263238"/>
<path d="M328.58 68.37V47.7H321.27V68.37H328.58Z" fill="#E0E0E0"/>
<path d="M321.32 68.49C321.056 65.0768 320.97 61.6522 321.06 58.23C320.971 54.8178 321.058 51.4033 321.32 48C321.46 48 321.58 52.6 321.58 58.26C321.58 63.92 321.46 68.49 321.32 68.49Z" fill="#263238"/>
<path d="M328.58 68.49C328.44 68.49 328.32 63.86 328.32 58.14C328.32 52.42 328.44 47.79 328.58 47.79C328.72 47.79 328.84 52.43 328.84 58.14C328.84 63.85 328.72 68.49 328.58 68.49Z" fill="#263238"/>
<path d="M175.11 178.98V158.31H167.8V178.98H175.11Z" fill="#E0E0E0"/>
<path d="M167.84 179.1C167.7 179.1 167.58 174.51 167.58 168.84C167.58 163.17 167.7 158.58 167.84 158.58C168.103 161.993 168.19 165.418 168.1 168.84C168.191 172.262 168.104 175.687 167.84 179.1Z" fill="#263238"/>
<path d="M175.1 179.1C174.96 179.1 174.84 174.47 174.84 168.75C174.84 163.03 174.96 158.4 175.1 158.4C175.363 161.843 175.45 165.298 175.36 168.75C175.45 172.202 175.364 175.657 175.1 179.1Z" fill="#263238"/>
<path d="M692.76 368C693.277 367.962 693.784 367.836 694.26 367.63C694.83 367.362 695.325 366.957 695.7 366.45C696.213 365.765 696.474 364.925 696.44 364.07C696.44 362.07 696.44 359.7 696.39 356.92C696.39 355.53 696.39 354.04 696.39 352.46C696.39 351.68 696.39 350.84 696.39 350.05C696.274 349.236 695.886 348.485 695.289 347.92C694.67 347.313 693.847 346.956 692.979 346.92H684.219L671 347H640.84C640.376 347 639.916 347.092 639.488 347.27C639.059 347.448 638.671 347.709 638.343 348.038C638.016 348.367 637.757 348.757 637.582 349.187C637.406 349.616 637.317 350.076 637.32 350.54V352.54C637.32 355.15 637.32 357.71 637.32 360.24V364C637.288 364.571 637.393 365.14 637.626 365.662C637.859 366.184 638.213 366.643 638.659 367C639.103 367.352 639.624 367.592 640.18 367.7C640.757 367.764 641.339 367.788 641.919 367.77H645.44L670.07 367.83L686.68 367.91L691.19 367.96H692.37C692.503 367.947 692.636 367.947 692.77 367.96H692.37H691.19L686.68 368.01L670.07 368.09L645.44 368.15H641.919C641.309 368.181 640.696 368.157 640.09 368.08C639.453 367.963 638.856 367.692 638.349 367.29C637.856 366.897 637.46 366.396 637.191 365.826C636.922 365.255 636.788 364.631 636.799 364V350.59C636.792 350.06 636.889 349.533 637.087 349.041C637.284 348.549 637.577 348.101 637.95 347.723C638.322 347.345 638.766 347.045 639.255 346.84C639.744 346.635 640.269 346.53 640.799 346.53H670.96H684.12H690.12H692.94C693.865 346.584 694.742 346.957 695.423 347.587C696.103 348.216 696.544 349.062 696.669 349.98C696.749 350.85 696.669 351.63 696.669 352.43C696.669 354.01 696.669 355.5 696.669 356.89C696.669 359.67 696.669 362.07 696.669 364.04C696.689 364.935 696.403 365.809 695.859 366.52C695.461 367.034 694.938 367.436 694.34 367.69C693.975 367.848 693.586 367.942 693.19 367.97L692.76 368Z" fill="#263238"/>
<path d="M704.15 114.65C704.669 114.598 705.178 114.47 705.66 114.27C706.334 113.959 706.9 113.454 707.287 112.82C707.673 112.186 707.862 111.452 707.83 110.71C707.83 108.71 707.83 106.35 707.78 103.57C707.78 102.17 707.78 100.69 707.78 99.11C707.78 98.33 707.78 97.48 707.78 96.7C707.666 95.8857 707.278 95.1345 706.68 94.57C706.062 93.9648 705.243 93.6087 704.38 93.57H695.61H682.45H652.29C651.667 93.573 651.057 93.7401 650.519 94.0544C649.982 94.3686 649.537 94.819 649.23 95.36C648.923 95.8955 648.764 96.5029 648.77 97.12V99.12C648.77 101.72 648.77 104.29 648.77 106.81V110.56C648.703 111.426 648.96 112.287 649.49 112.975C650.02 113.664 650.785 114.132 651.64 114.29C652.217 114.365 652.799 114.388 653.38 114.36H656.9H681.53L698.13 114.44H702.64H703.82C703.953 114.427 704.087 114.427 704.22 114.44H703.82H702.64H698.13L681.53 114.52L656.9 114.58H653.38C652.765 114.606 652.15 114.582 651.54 114.51C650.908 114.39 650.314 114.119 649.81 113.72C649.298 113.313 648.891 112.789 648.623 112.192C648.355 111.595 648.234 110.943 648.27 110.29C648.27 109.05 648.27 107.8 648.27 106.54V97.2C648.268 96.4984 648.451 95.8086 648.8 95.2C649.154 94.5806 649.664 94.0652 650.28 93.7054C650.897 93.3456 651.596 93.1541 652.31 93.15H682.47H695.63H701.63H704.45C705.401 93.1892 706.306 93.5772 706.99 94.24C707.644 94.8636 708.064 95.6933 708.18 96.59C708.26 97.47 708.18 98.25 708.18 99.05C708.18 100.63 708.18 102.11 708.18 103.51C708.18 106.29 708.18 108.68 708.18 110.65C708.201 111.545 707.915 112.42 707.37 113.13C706.971 113.646 706.448 114.052 705.85 114.31C705.482 114.458 705.095 114.552 704.7 114.59L704.15 114.65Z" fill="#263238"/>
<path d="M682.75 136C683.27 135.962 683.781 135.837 684.26 135.63C684.828 135.364 685.323 134.962 685.7 134.46C686.209 133.77 686.466 132.927 686.43 132.07C686.43 130.07 686.43 127.7 686.43 124.92C686.43 123.53 686.43 122.04 686.43 120.46C686.43 119.69 686.43 118.84 686.43 118.05C686.316 117.217 685.913 116.45 685.292 115.884C684.67 115.317 683.87 114.987 683.03 114.95H680.23H674.23L661 115H630.85C630.227 115.003 629.617 115.169 629.078 115.482C628.539 115.794 628.092 116.241 627.78 116.78C627.48 117.318 627.322 117.924 627.32 118.54V128.2C627.32 129.46 627.32 130.71 627.32 131.95C627.289 132.522 627.395 133.092 627.63 133.614C627.865 134.136 628.221 134.594 628.67 134.95C629.112 135.304 629.634 135.544 630.19 135.65C630.767 135.714 631.349 135.738 631.93 135.72H635.45L660.08 135.78L676.68 135.86L681.2 135.91H682.37C682.503 135.894 682.637 135.894 682.77 135.91C682.637 135.923 682.503 135.923 682.37 135.91H681.2H676.68L660.08 136L635.45 136.05H631.93C631.319 136.071 630.707 136.047 630.1 135.98C629.174 135.802 628.339 135.307 627.737 134.581C627.135 133.855 626.804 132.943 626.8 132V128.25C626.8 125.73 626.8 123.16 626.8 120.55V118.55C626.799 118.017 626.902 117.49 627.105 116.997C627.308 116.505 627.606 116.057 627.982 115.68C628.359 115.303 628.806 115.003 629.298 114.799C629.79 114.595 630.317 114.49 630.85 114.49H661H674.16H680.16H682.98C683.903 114.544 684.78 114.916 685.46 115.543C686.14 116.17 686.582 117.014 686.71 117.93C686.78 118.8 686.71 119.59 686.71 120.38C686.71 121.96 686.71 123.45 686.71 124.84C686.71 127.62 686.71 130.02 686.71 131.99C686.732 132.763 686.521 133.525 686.106 134.177C685.691 134.83 685.089 135.343 684.38 135.65C684.013 135.8 683.625 135.894 683.23 135.93C683.072 135.969 682.912 135.992 682.75 136Z" fill="#263238"/>
<path d="M269.13 253.47C269.645 253.419 270.15 253.294 270.63 253.1C271.195 252.833 271.687 252.431 272.06 251.93C272.578 251.252 272.84 250.412 272.8 249.56C272.8 247.56 272.8 245.21 272.8 242.45C272.8 241.06 272.8 239.58 272.8 238.01C272.8 237.23 272.8 236.39 272.8 235.6C272.714 234.792 272.362 234.036 271.8 233.45C271.184 232.86 270.381 232.506 269.53 232.45C268.65 232.45 267.7 232.45 266.75 232.45H260.81H247.71H217.71C217.091 232.454 216.485 232.619 215.95 232.93C215.415 233.24 214.97 233.685 214.66 234.22C214.279 234.741 214.051 235.357 214 236V237.95C214 240.55 214 243.103 214 245.61V249.34C213.952 249.916 214.042 250.495 214.263 251.029C214.484 251.563 214.829 252.036 215.27 252.41C215.702 252.768 216.212 253.019 216.76 253.14C217.328 253.231 217.905 253.262 218.48 253.23H222L246.52 253.28L263.04 253.36L246.52 253.44L222 253.5H218.49C217.881 253.53 217.271 253.497 216.67 253.4C216.042 253.265 215.455 252.98 214.96 252.57C214.464 252.147 214.071 251.617 213.81 251.02C213.579 250.414 213.474 249.768 213.5 249.12V236C213.513 234.943 213.939 233.933 214.686 233.186C215.433 232.439 216.443 232.013 217.5 232H247.5H260.6H266.54C267.54 232 268.41 232 269.35 232C270.294 232.07 271.182 232.479 271.85 233.15C272.479 233.793 272.877 234.626 272.98 235.52C272.98 236.39 272.98 237.17 272.98 237.97C272.98 239.54 272.98 241.02 272.98 242.41C272.98 245.17 272.98 247.56 272.98 249.52C272.998 250.413 272.709 251.285 272.16 251.99C271.76 252.499 271.237 252.898 270.64 253.15C270.277 253.304 269.892 253.398 269.5 253.43L269.13 253.47Z" fill="#263238"/>
<path d="M248.74 274.85C249.209 274.813 249.67 274.708 250.11 274.54C250.633 274.314 251.098 273.972 251.47 273.54C251.984 272.97 252.306 272.253 252.39 271.49C252.44 269.76 252.39 267.58 252.39 265.08C252.39 263.83 252.39 262.49 252.39 261.08C252.39 260.37 252.39 259.64 252.39 258.89C252.418 258.132 252.391 257.374 252.31 256.62C252.143 255.849 251.728 255.154 251.128 254.641C250.529 254.128 249.777 253.825 248.99 253.78H243.65H231.82H204.72C204.161 253.781 203.61 253.915 203.113 254.17C202.615 254.426 202.186 254.796 201.86 255.25C201.532 255.694 201.319 256.213 201.24 256.76C201.204 257.333 201.204 257.907 201.24 258.48V265.4C201.24 266.53 201.24 267.65 201.24 268.77V270.43C201.207 270.955 201.258 271.481 201.39 271.99C201.532 272.475 201.776 272.923 202.105 273.306C202.434 273.689 202.842 273.997 203.3 274.21C203.754 274.409 204.243 274.518 204.74 274.53H206.31L228.45 274.59L243.37 274.67L247.43 274.72H248.49C248.606 274.705 248.724 274.705 248.84 274.72H248.49H247.43L243.37 274.77L228.45 274.86H206.31H204.74C204.173 274.86 203.614 274.737 203.1 274.5C202.575 274.262 202.107 273.914 201.729 273.479C201.351 273.044 201.072 272.533 200.91 271.98C200.766 271.425 200.708 270.852 200.74 270.28V265.28C200.74 263.01 200.74 260.7 200.74 258.36C200.74 257.77 200.74 257.21 200.79 256.56C200.89 255.933 201.133 255.338 201.5 254.82C201.878 254.301 202.373 253.879 202.944 253.587C203.516 253.296 204.148 253.142 204.79 253.14H231.89H243.72H249.09C249.961 253.198 250.789 253.539 251.448 254.111C252.107 254.684 252.561 255.456 252.74 256.31C252.822 257.087 252.845 257.869 252.81 258.65C252.81 259.4 252.81 260.13 252.81 260.84C252.81 262.25 252.81 263.59 252.81 264.84C252.81 267.35 252.81 269.49 252.73 271.28C252.634 272.079 252.284 272.826 251.73 273.41C251.337 273.849 250.847 274.191 250.3 274.41C249.979 274.531 249.642 274.605 249.3 274.63L248.74 274.85Z" fill="#263238"/>
<path d="M399.5 121C400.02 120.963 400.531 120.838 401.01 120.63C401.684 120.319 402.25 119.814 402.637 119.18C403.023 118.546 403.212 117.812 403.18 117.07C403.18 115.07 403.18 112.7 403.18 109.92C403.18 108.53 403.18 107.04 403.18 105.46C403.18 104.69 403.18 103.84 403.13 103.05C403.02 102.215 402.618 101.446 401.996 100.879C401.374 100.312 400.571 99.9828 399.73 99.95H396.93H390.93H377.77H347.61C346.988 99.952 346.378 100.118 345.841 100.43C345.304 100.742 344.859 101.191 344.55 101.73C344.247 102.268 344.085 102.873 344.08 103.49V116.9C344.047 117.471 344.151 118.041 344.384 118.563C344.617 119.085 344.973 119.544 345.42 119.9C345.863 120.252 346.384 120.492 346.94 120.6C347.517 120.669 348.099 120.693 348.68 120.67H352.2L376.83 120.73L393.44 120.81L397.95 120.86H399.12C399.253 120.844 399.387 120.844 399.52 120.86C399.387 120.873 399.253 120.873 399.12 120.86H397.95H393.44L376.83 120.95H352.2H348.68C348.069 120.971 347.457 120.947 346.85 120.88C345.886 120.691 345.023 120.159 344.42 119.384C343.817 118.608 343.515 117.641 343.57 116.66V103.53C343.562 103 343.659 102.473 343.857 101.981C344.054 101.489 344.348 101.041 344.72 100.663C345.092 100.285 345.536 99.9849 346.025 99.7801C346.514 99.5754 347.039 99.4699 347.57 99.47H377.73H390.89H396.89H399.71C400.633 99.5236 401.51 99.8956 402.19 100.523C402.87 101.15 403.312 101.994 403.44 102.91C403.52 103.78 403.44 104.57 403.44 105.36C403.44 106.94 403.44 108.43 403.44 109.82C403.44 112.6 403.44 115 403.44 116.97C403.462 117.867 403.172 118.743 402.62 119.45C402.224 119.968 401.7 120.375 401.1 120.63C400.736 120.779 400.351 120.873 399.96 120.91L399.5 121Z" fill="#263238"/>
<path d="M378.11 142.38C378.63 142.342 379.141 142.217 379.62 142.01C380.187 141.742 380.679 141.336 381.05 140.83C381.567 140.148 381.829 139.305 381.79 138.45C381.79 136.45 381.79 134.08 381.74 131.3C381.74 129.91 381.74 128.42 381.74 126.84C381.74 126.06 381.74 125.21 381.74 124.43C381.624 123.616 381.236 122.865 380.64 122.3C380.022 121.695 379.203 121.339 378.34 121.3H369.57H356.41H326.25C325.786 121.3 325.326 121.392 324.898 121.57C324.47 121.748 324.081 122.009 323.754 122.338C323.426 122.667 323.168 123.057 322.992 123.487C322.816 123.916 322.727 124.376 322.73 124.84V126.84C322.73 129.45 322.73 132.01 322.73 134.54V138.29C322.698 138.861 322.803 139.431 323.036 139.952C323.269 140.474 323.624 140.933 324.07 141.29C324.515 141.644 325.04 141.884 325.6 141.99C326.177 142.056 326.759 142.076 327.34 142.05H330.86L355.48 142.1L372.09 142.19L376.6 142.24H372.09L355.48 142.32L330.86 142.38H327.34C326.725 142.411 326.11 142.387 325.5 142.31C324.867 142.193 324.272 141.922 323.77 141.52C323.258 141.115 322.851 140.593 322.583 139.997C322.315 139.402 322.194 138.752 322.23 138.1C322.23 136.86 322.23 135.61 322.23 134.35V124.69C322.222 124.16 322.319 123.633 322.517 123.141C322.714 122.649 323.008 122.201 323.38 121.823C323.752 121.445 324.196 121.145 324.685 120.94C325.174 120.735 325.699 120.63 326.23 120.63H356.39H369.55H375.55H378.37C379.293 120.684 380.17 121.056 380.85 121.683C381.53 122.31 381.972 123.154 382.1 124.07C382.18 124.95 382.1 125.73 382.1 126.53C382.1 128.11 382.1 129.6 382.1 130.99C382.1 133.77 382.1 136.17 382.1 138.14C382.119 139.035 381.833 139.909 381.29 140.62C380.889 141.131 380.366 141.533 379.77 141.79C379.403 141.943 379.015 142.037 378.62 142.07L378.11 142.38Z" fill="#263238"/>
<path d="M163.5 123.2C164.017 123.154 164.523 123.026 165 122.82C165.574 122.562 166.07 122.159 166.44 121.65C166.954 120.962 167.216 120.118 167.18 119.26C167.18 117.26 167.18 114.9 167.13 112.12C167.13 110.72 167.13 109.24 167.13 107.66C167.13 106.88 167.13 106.03 167.13 105.25C167.016 104.436 166.628 103.684 166.03 103.12C165.412 102.515 164.593 102.159 163.73 102.12H154.9H141.74H111.58C111.116 102.12 110.656 102.212 110.228 102.39C109.8 102.568 109.411 102.829 109.084 103.158C108.757 103.487 108.498 103.877 108.322 104.307C108.146 104.736 108.057 105.196 108.06 105.66V107.66C108.06 110.26 108.06 112.83 108.06 115.35V119.1C107.993 119.966 108.25 120.827 108.78 121.515C109.31 122.204 110.075 122.672 110.93 122.83C111.507 122.905 112.089 122.928 112.67 122.9H116.18L140.81 122.95L157.42 123.03H161.93H163.11C163.243 123.017 163.377 123.017 163.51 123.03H163.11H161.93H157.42L140.81 123.11L116.18 123.17H112.67C112.056 123.196 111.44 123.172 110.83 123.1C110.198 122.98 109.605 122.709 109.1 122.31C108.588 121.903 108.181 121.379 107.913 120.782C107.646 120.185 107.524 119.533 107.56 118.88C107.56 117.64 107.56 116.39 107.56 115.13V105.48C107.558 104.778 107.741 104.089 108.09 103.48C108.45 102.87 108.963 102.365 109.579 102.014C110.195 101.663 110.891 101.479 111.6 101.48H141.76H154.92H160.92H163.74C164.692 101.519 165.596 101.907 166.28 102.57C166.934 103.194 167.354 104.023 167.47 104.92C167.55 105.8 167.47 106.58 167.47 107.38C167.47 108.96 167.47 110.44 167.47 111.84C167.47 114.62 167.47 117.01 167.47 118.98C167.491 119.875 167.205 120.75 166.66 121.46C166.261 121.976 165.738 122.382 165.14 122.64C164.772 122.788 164.385 122.882 163.99 122.92L163.5 123.2Z" fill="#263238"/>
<path d="M122.8 330.92C124.38 331.679 125.791 332.747 126.95 334.061C128.11 335.375 128.994 336.908 129.55 338.57C130.634 341.91 130.938 345.454 130.44 348.93C129.68 355.65 125.56 363.65 121.44 369.02C115.78 364.08 114.78 354.25 114.44 349.84C113.83 342.84 116.96 329.84 122.84 330.92" fill="#3E8EDE"/>
<path d="M124.56 376.88C123.16 373.24 125.07 369.32 127.56 366.35C128.89 364.891 130.5 363.714 132.293 362.888C134.086 362.062 136.027 361.603 138 361.54C139.8 361.44 141.8 361.7 143 363.04C143.533 363.698 143.879 364.486 144.004 365.323C144.129 366.16 144.027 367.015 143.71 367.8C143.059 369.382 141.999 370.762 140.64 371.8C136.19 375.5 130.88 377.8 125.16 376.87" fill="#3E8EDE"/>
<path d="M118.79 381.27C118.79 372.67 111.79 365.42 104.34 361.87C102.45 360.96 99.9801 360.37 98.4301 361.78C96.8801 363.19 97.2201 365.71 97.9801 367.67C101.15 375.82 110.05 381.38 118.79 381.27Z" fill="#3E8EDE"/>
<path d="M121.4 385.63C121.33 385.63 120.66 384.47 119.4 382.63C116.254 377.814 112.338 373.548 107.81 370C106.07 368.63 104.93 367.86 104.98 367.78C105.285 367.896 105.574 368.051 105.84 368.24C106.38 368.55 107.13 369.05 108.03 369.7C110.383 371.414 112.561 373.356 114.53 375.5C116.495 377.657 118.244 380.001 119.75 382.5C120.33 383.5 120.75 384.25 121.03 384.81C121.192 385.064 121.317 385.34 121.4 385.63Z" fill="#263238"/>
<path d="M122.4 346.73C122.449 347.302 122.449 347.878 122.4 348.45C122.33 349.64 122.25 351.22 122.14 353.12C121.92 357.07 121.72 362.53 121.68 368.56C121.64 374.59 121.68 379.98 121.68 384.02C121.68 386.02 121.68 387.59 121.62 388.7C121.635 389.275 121.602 389.851 121.52 390.42C121.445 389.85 121.412 389.275 121.42 388.7C121.42 387.51 121.36 385.93 121.32 384.02C121.25 380.02 121.15 374.6 121.19 368.56C121.23 362.52 121.49 357.05 121.8 353.1C121.96 351.1 122.1 349.53 122.23 348.43C122.245 347.86 122.302 347.292 122.4 346.73Z" fill="#263238"/>
<path d="M135.74 367.47C135.74 367.56 134.63 368 132.96 369.04C131.987 369.645 131.055 370.313 130.17 371.04C129.109 371.955 128.107 372.937 127.17 373.98C125.459 375.894 123.988 378.01 122.79 380.28C121.87 382.02 121.46 383.18 121.37 383.15C121.398 382.858 121.469 382.572 121.58 382.3C121.82 381.55 122.114 380.818 122.46 380.11C123.583 377.758 125.038 375.579 126.78 373.64C127.739 372.563 128.779 371.56 129.89 370.64C130.803 369.898 131.773 369.23 132.79 368.64C133.179 368.415 133.579 368.211 133.99 368.03C134.294 367.875 134.608 367.741 134.93 367.63C135.192 367.543 135.465 367.49 135.74 367.47Z" fill="#263238"/>
<path d="M582.83 360C579.149 360.011 575.622 361.477 573.02 364.08C570.417 366.683 568.95 370.209 568.94 373.89V390.55H596.2V373.36C596.197 369.816 594.787 366.418 592.28 363.912C589.773 361.407 586.374 360 582.83 360Z" fill="#455A64"/>
<path d="M586.14 360.32C579.77 361.62 574.92 368.1 574.92 375.92V390.24H597.37V375.92C597.37 368.1 592.52 361.62 586.14 360.32Z" fill="#263238"/>
<path d="M176.93 233.21H55.8301V320.67H176.93V233.21Z" fill="#E0E0E0"/>
<path d="M78.0001 312.98L68.1001 313.16V243.32H78.0001V312.98Z" fill="#263238"/>
<path d="M99.6803 243.62H89.7803V312.81H99.6803V243.62Z" fill="#263238"/>
<path d="M121.36 243.62H111.46V312.81H121.36V243.62Z" fill="#263238"/>
<path d="M143.04 243.62H133.14V312.81H143.04V243.62Z" fill="#263238"/>
<path d="M164.73 313.16L154.82 312.97V243.13H164.73V313.16Z" fill="#263238"/>
<path d="M64.1498 240.05C64.1498 240.699 63.9572 241.334 63.5964 241.873C63.2355 242.413 62.7227 242.833 62.1227 243.081C61.5228 243.329 60.8628 243.394 60.2263 243.266C59.5897 243.139 59.0053 242.825 58.547 242.366C58.0887 241.906 57.7771 241.321 57.6517 240.684C57.5262 240.047 57.5926 239.387 57.8424 238.788C58.0922 238.189 58.5141 237.677 59.0549 237.318C59.5956 236.959 60.2307 236.768 60.8798 236.77C61.3101 236.77 61.7361 236.855 62.1335 237.02C62.5309 237.185 62.8918 237.427 63.1956 237.731C63.4994 238.036 63.7401 238.398 63.9038 238.796C64.0675 239.193 64.1512 239.62 64.1498 240.05Z" fill="#E0E0E0"/>
<path d="M64.15 240.05C64.09 240.05 64.07 239.75 63.91 239.28C63.6936 238.62 63.2691 238.048 62.7 237.65C62.2964 237.361 61.8275 237.178 61.3354 237.115C60.8432 237.052 60.3432 237.112 59.88 237.29C59.3182 237.499 58.8338 237.875 58.4918 238.368C58.1498 238.86 57.9665 239.445 57.9665 240.045C57.9665 240.645 58.1498 241.23 58.4918 241.722C58.8338 242.215 59.3182 242.591 59.88 242.8C60.3432 242.978 60.8432 243.038 61.3354 242.975C61.8275 242.912 62.2964 242.729 62.7 242.44C63.2691 242.042 63.6936 241.47 63.91 240.81C64.07 240.34 64.09 240.04 64.15 240.05C64.21 240.06 64.27 240.34 64.15 240.88C64.0199 241.668 63.6032 242.38 62.98 242.88C62.5162 243.259 61.9625 243.513 61.3723 243.616C60.7821 243.72 60.1752 243.669 59.61 243.47C58.9075 243.222 58.2992 242.763 57.8689 242.155C57.4386 241.546 57.2075 240.82 57.2075 240.075C57.2075 239.33 57.4386 238.604 57.8689 237.995C58.2992 237.387 58.9075 236.928 59.61 236.68C60.1752 236.481 60.7821 236.43 61.3723 236.534C61.9625 236.637 62.5162 236.891 62.98 237.27C63.6032 237.77 64.0199 238.482 64.15 239.27C64.27 239.75 64.19 240.05 64.15 240.05Z" fill="#263238"/>
<path d="M62.88 238.19C63.01 238.35 62.29 239.19 61.37 240.09C60.45 240.99 59.64 241.73 59.48 241.6C59.32 241.47 59.9 240.53 60.85 239.6C61.8 238.67 62.75 238 62.88 238.19Z" fill="#263238"/>
<path d="M63.2003 241.21C63.1103 241.39 62.0603 241.02 60.9303 240.28C59.8003 239.54 59.0303 238.74 59.1603 238.58C59.2903 238.42 60.2203 238.95 61.3303 239.67C62.4403 240.39 63.3003 241 63.2003 241.21Z" fill="#263238"/>
<path d="M175.67 314.37C175.672 315.02 175.481 315.655 175.121 316.196C174.762 316.737 174.249 317.159 173.65 317.408C173.05 317.658 172.39 317.724 171.752 317.597C171.115 317.471 170.53 317.159 170.071 316.699C169.611 316.24 169.299 315.655 169.172 315.017C169.046 314.38 169.112 313.72 169.361 313.12C169.611 312.52 170.033 312.008 170.574 311.649C171.115 311.289 171.75 311.098 172.4 311.1C173.267 311.1 174.099 311.445 174.712 312.058C175.325 312.671 175.67 313.503 175.67 314.37Z" fill="#E0E0E0"/>
<path d="M175.67 314.37C175.61 314.37 175.59 314.08 175.43 313.61C175.216 312.949 174.791 312.376 174.22 311.98C173.775 311.666 173.253 311.479 172.71 311.439C172.167 311.399 171.623 311.507 171.136 311.753C170.65 311.999 170.24 312.372 169.95 312.833C169.66 313.294 169.501 313.825 169.49 314.37C169.497 314.968 169.683 315.55 170.023 316.042C170.363 316.534 170.843 316.913 171.4 317.13C171.863 317.308 172.363 317.368 172.855 317.305C173.348 317.242 173.816 317.059 174.22 316.77C174.787 316.37 175.211 315.799 175.43 315.14C175.59 314.66 175.61 314.37 175.67 314.37C175.73 314.37 175.79 314.66 175.67 315.21C175.537 315.997 175.121 316.708 174.5 317.21C174.035 317.587 173.481 317.839 172.892 317.942C172.302 318.045 171.696 317.996 171.13 317.8C170.428 317.552 169.819 317.093 169.389 316.485C168.959 315.877 168.728 315.15 168.728 314.405C168.728 313.66 168.959 312.934 169.389 312.325C169.819 311.717 170.428 311.258 171.13 311.01C171.695 310.812 172.301 310.762 172.89 310.863C173.48 310.965 174.034 311.215 174.5 311.59C175.12 312.093 175.535 312.804 175.67 313.59C175.79 314.08 175.71 314.37 175.67 314.37Z" fill="#263238"/>
<path d="M174.4 312.51C174.53 312.67 173.81 313.51 172.89 314.41C171.97 315.31 171.16 316.06 171 315.93C170.84 315.8 171.42 314.85 172.37 313.93C173.32 313.01 174.27 312.36 174.4 312.51Z" fill="#263238"/>
<path d="M174.72 315.54C174.63 315.72 173.58 315.35 172.45 314.61C171.32 313.87 170.55 313.06 170.68 312.9C170.81 312.74 171.74 313.28 172.85 313.99C173.96 314.7 174.82 315.36 174.72 315.54Z" fill="#263238"/>
<path d="M175.67 239.34C175.67 239.989 175.477 240.624 175.116 241.163C174.756 241.703 174.243 242.123 173.643 242.371C173.043 242.619 172.383 242.684 171.746 242.556C171.11 242.429 170.525 242.115 170.067 241.656C169.609 241.196 169.297 240.611 169.172 239.974C169.046 239.337 169.113 238.677 169.362 238.078C169.612 237.479 170.034 236.967 170.575 236.608C171.116 236.249 171.751 236.058 172.4 236.06C172.83 236.059 173.257 236.143 173.655 236.307C174.053 236.472 174.415 236.713 174.719 237.018C175.023 237.323 175.263 237.685 175.427 238.084C175.59 238.482 175.673 238.909 175.67 239.34Z" fill="#E0E0E0"/>
<path d="M175.67 239.34C175.61 239.34 175.59 239.05 175.43 238.57C175.211 237.911 174.787 237.34 174.22 236.94C173.816 236.651 173.348 236.468 172.855 236.405C172.363 236.342 171.863 236.402 171.4 236.58C170.838 236.789 170.354 237.165 170.012 237.658C169.67 238.15 169.486 238.735 169.486 239.335C169.486 239.935 169.67 240.52 170.012 241.012C170.354 241.505 170.838 241.881 171.4 242.09C171.863 242.268 172.363 242.328 172.855 242.265C173.348 242.202 173.816 242.019 174.22 241.73C174.789 241.332 175.214 240.76 175.43 240.1C175.59 239.63 175.61 239.34 175.67 239.34C175.73 239.34 175.79 239.63 175.67 240.17C175.535 240.956 175.12 241.667 174.5 242.17C174.034 242.545 173.48 242.795 172.89 242.897C172.301 242.998 171.695 242.948 171.13 242.75C170.428 242.502 169.819 242.043 169.389 241.435C168.959 240.826 168.728 240.1 168.728 239.355C168.728 238.61 168.959 237.884 169.389 237.275C169.819 236.667 170.428 236.208 171.13 235.96C171.696 235.764 172.302 235.715 172.892 235.818C173.481 235.921 174.035 236.173 174.5 236.55C175.123 237.05 175.54 237.762 175.67 238.55C175.79 239 175.71 239.34 175.67 239.34Z" fill="#263238"/>
<path d="M174.4 237.48C174.53 237.64 173.81 238.48 172.89 239.38C171.97 240.28 171.16 241.03 171 240.89C170.84 240.75 171.42 239.82 172.37 238.89C173.32 237.96 174.27 237.33 174.4 237.48Z" fill="#263238"/>
<path d="M174.72 240.5C174.63 240.68 173.58 240.31 172.45 239.57C171.32 238.83 170.55 238.03 170.68 237.87C170.81 237.71 171.74 238.24 172.85 238.96C173.96 239.68 174.82 240.32 174.72 240.5Z" fill="#263238"/>
<path d="M65.4799 315C65.4799 315.649 65.2876 316.283 64.9271 316.822C64.5667 317.362 64.0545 317.782 63.4551 318.03C62.8558 318.279 62.1963 318.344 61.56 318.217C60.9238 318.09 60.3393 317.778 59.8806 317.319C59.4219 316.861 59.1095 316.276 58.9829 315.64C58.8564 315.004 58.9213 314.344 59.1696 313.745C59.4179 313.145 59.8383 312.633 60.3777 312.273C60.917 311.912 61.5512 311.72 62.1999 311.72C62.631 311.719 63.0581 311.803 63.4567 311.967C63.8552 312.131 64.2173 312.373 64.5222 312.678C64.827 312.983 65.0686 313.345 65.2329 313.743C65.3973 314.142 65.4812 314.569 65.4799 315Z" fill="#E0E0E0"/>
<path d="M65.4801 315C65.4201 315 65.3901 314.71 65.2301 314.23C65.0021 313.576 64.5712 313.012 64.0001 312.62C63.5965 312.331 63.1276 312.148 62.6354 312.085C62.1433 312.022 61.6433 312.082 61.1801 312.26C60.6192 312.472 60.1362 312.849 59.7952 313.342C59.4543 313.835 59.2717 314.421 59.2717 315.02C59.2717 315.619 59.4543 316.205 59.7952 316.698C60.1362 317.191 60.6192 317.568 61.1801 317.78C61.6433 317.958 62.1433 318.018 62.6354 317.955C63.1276 317.892 63.5965 317.709 64.0001 317.42C64.5698 317.018 64.9943 316.443 65.2101 315.78C65.3701 315.31 65.4001 315.02 65.4601 315.02C65.5201 315.02 65.5801 315.31 65.4601 315.85C65.3255 316.636 64.9097 317.347 64.2901 317.85C63.824 318.225 63.2699 318.475 62.6803 318.577C62.0906 318.678 61.4848 318.628 60.9201 318.43C60.2176 318.182 59.6093 317.723 59.179 317.115C58.7487 316.506 58.5176 315.78 58.5176 315.035C58.5176 314.29 58.7487 313.563 59.179 312.955C59.6093 312.347 60.2176 311.888 60.9201 311.64C61.486 311.446 62.0917 311.399 62.6809 311.502C63.27 311.605 63.8236 311.856 64.2901 312.23C64.9111 312.732 65.3273 313.443 65.4601 314.23C65.6001 314.73 65.5201 315 65.4801 315Z" fill="#263238"/>
<path d="M64.2003 313.16C64.3303 313.32 63.6203 314.16 62.6903 315.06C61.7603 315.96 60.9603 316.71 60.8103 316.58C60.6603 316.45 61.2203 315.5 62.1703 314.58C63.1203 313.66 64.0703 313 64.2003 313.16Z" fill="#263238"/>
<path d="M64.5201 316.19C64.4301 316.36 63.3801 316 62.2501 315.26C61.1201 314.52 60.3501 313.71 60.4801 313.55C60.6101 313.39 61.5501 313.92 62.6501 314.64C63.7501 315.36 64.6201 316 64.5201 316.19Z" fill="#263238"/>
<path d="M166.86 243.32C166.86 243.52 144.35 243.68 116.59 243.68C88.8303 243.68 66.3203 243.52 66.3203 243.32C66.3203 243.12 88.8203 242.95 116.59 242.95C144.36 242.95 166.86 243.11 166.86 243.32Z" fill="#263238"/>
<path d="M166.86 313.16C166.86 313.37 144.35 313.53 116.59 313.53C88.8303 313.53 66.3203 313.37 66.3203 313.16C66.3203 312.95 88.8203 312.79 116.59 312.79C144.36 312.79 166.86 313 166.86 313.16Z" fill="#263238"/>
<path d="M345.88 446.04C440.569 446.04 517.33 436.728 517.33 425.24C517.33 413.752 440.569 404.44 345.88 404.44C251.191 404.44 174.43 413.752 174.43 425.24C174.43 436.728 251.191 446.04 345.88 446.04Z" fill="#263238"/>
<path d="M421.13 349.72C421.79 350.82 467.56 409.18 467.56 409.18L527.56 445.18L513.93 459.52C513.93 459.52 448.8 443.29 441.73 435.44C434.66 427.59 406.92 396.31 406.92 396.31L421.13 349.72Z" fill="#FFBF9D"/>
<path d="M451.65 424.73C451.666 424.473 451.724 424.219 451.82 423.98C452.023 423.315 452.284 422.669 452.6 422.05C454.681 417.873 458.319 414.681 462.73 413.16C463.381 412.931 464.05 412.757 464.73 412.64C465.22 412.56 465.49 412.53 465.49 412.57C465.49 412.61 464.49 412.87 462.84 413.51C460.749 414.339 458.815 415.52 457.12 417C455.432 418.492 454.006 420.257 452.9 422.22C452.09 423.73 451.74 424.76 451.65 424.73Z" fill="#FF9A6C"/>
<path d="M547.46 451.18L564.62 461.77C565.443 462.26 566.131 462.947 566.62 463.77L573.05 474.57C573.364 475.151 573.492 475.813 573.418 476.469C573.343 477.125 573.07 477.742 572.634 478.237C572.198 478.733 571.621 479.083 570.981 479.241C570.34 479.399 569.666 479.357 569.05 479.12L568.92 479.07C568.92 479.07 564.28 480.55 561.63 478.65C558.98 476.75 553.57 468.29 553.57 468.29L548.8 467.65L554.43 478.72C554.43 478.72 550.02 480.24 547.13 477.72C544.24 475.2 539.68 468.15 539.68 468.15L531.68 466.01C531.68 466.01 527.55 468.36 520.61 466.83C520.61 466.83 520.75 476.11 514.41 478.91C511.5 480.18 511.71 475.62 511.71 475.62L512.55 468.54C512.49 467.93 511.72 466.06 511.87 465.47L515.21 452.21L524.16 443.74L547.46 451.18Z" fill="#FFBF9D"/>
<path d="M549.41 465.56C549.806 465.751 550.188 465.971 550.55 466.22L553.67 468.22C555.03 470.06 556.83 472.49 559.02 475.22C559.57 475.91 560.14 476.62 560.75 477.34C561.292 478.108 562.013 478.733 562.85 479.16C563.781 479.496 564.779 479.606 565.76 479.48C566.801 479.384 567.825 479.159 568.81 478.81L568.67 479.17C568.13 478.17 567.55 477.06 566.96 475.96L561.13 464.96L561.22 465.05L550.82 458.57L547.88 456.69C547.528 456.482 547.193 456.244 546.88 455.98C547.258 456.146 547.622 456.34 547.97 456.56L550.97 458.33L561.47 464.65H561.53V464.71C563.3 468.02 565.3 471.71 567.4 475.71L569.11 478.92L569.25 479.18L568.97 479.28C567.939 479.642 566.868 479.877 565.78 479.98C564.718 480.111 563.641 479.98 562.64 479.6C562.397 479.497 562.163 479.373 561.94 479.23C561.733 479.073 561.535 478.903 561.35 478.72C561 478.36 560.69 478 560.35 477.63C559.74 476.9 559.17 476.18 558.62 475.48C556.45 472.68 554.7 470.22 553.38 468.34L550.38 466.26C550.039 466.053 549.714 465.819 549.41 465.56Z" fill="#FF9A6C"/>
<path d="M530.1 465.59C530.334 465.602 530.566 465.643 530.79 465.71L532.72 466.18L539.72 468H539.79V468.07C541.169 470.406 542.716 472.639 544.42 474.75C545.377 475.969 546.501 477.047 547.76 477.95C549.144 478.809 550.768 479.198 552.39 479.06C553.03 478.996 553.651 478.809 554.22 478.51L554.13 478.84C551.26 473.29 548.67 468.25 546.64 464.33L546.7 464.4L541.23 460.12L539.85 459C539.671 458.869 539.506 458.718 539.36 458.55C539.557 458.653 539.744 458.774 539.92 458.91L541.46 460.02L547.02 464.16C549.02 468.07 551.71 473.08 554.62 478.61L554.74 478.83L554.53 478.95C553.898 479.302 553.2 479.52 552.48 479.59C550.727 479.751 548.969 479.329 547.48 478.39C546.176 477.459 545.017 476.34 544.04 475.07C542.335 472.928 540.797 470.658 539.44 468.28L539.56 468.37L532.56 466.37L530.66 465.8C530.468 465.744 530.281 465.674 530.1 465.59Z" fill="#FF9A6C"/>
<path d="M512.75 479C512.75 478.94 513.05 479.06 513.57 479.06C514.302 479.05 515.008 478.789 515.57 478.32C516.416 477.607 517.142 476.763 517.72 475.82C518.07 475.29 518.42 474.72 518.72 474.13C519.053 473.518 519.318 472.87 519.51 472.2C520.055 470.241 520.391 468.23 520.51 466.2V466.09H520.59C521.73 465.32 522.67 464.69 523.34 464.27C523.675 464.022 524.037 463.814 524.42 463.65C524.42 463.65 524.11 463.98 523.48 464.47C522.85 464.96 521.94 465.63 520.83 466.47L520.92 466.3C520.864 468.364 520.552 470.413 519.99 472.4C519.787 473.098 519.502 473.769 519.14 474.4C518.787 475.007 518.427 475.577 518.06 476.11C517.439 477.084 516.646 477.938 515.72 478.63C515.082 479.122 514.282 479.354 513.48 479.28C513.267 479.261 513.058 479.211 512.86 479.13C512.81 479 512.74 479 512.75 479Z" fill="#FF9A6C"/>
<path d="M516.72 451.93C515.859 453.214 515.077 454.55 514.38 455.93C513.847 457.391 513.406 458.884 513.06 460.4C512.98 458.798 513.268 457.198 513.902 455.725C514.537 454.251 515.501 452.943 516.72 451.9V451.93Z" fill="#FF9A6C"/>
<path d="M264.65 349.72C264 350.82 218.23 409.18 218.23 409.18L158.23 445.18L171.86 459.52C171.86 459.52 236.98 443.29 244.06 435.44C251.14 427.59 278.87 396.31 278.87 396.31L264.65 349.72Z" fill="#FFBF9D"/>
<path d="M234.14 424.73C234.05 424.73 233.7 423.73 232.86 422.22C230.66 418.254 227.149 415.175 222.93 413.51C221.32 412.87 220.26 412.66 220.27 412.57C220.28 412.48 220.55 412.57 221.04 412.64C221.72 412.757 222.389 412.931 223.04 413.16C227.451 414.681 231.089 417.873 233.17 422.05C233.501 422.676 233.778 423.328 234 424C234.084 424.235 234.132 424.481 234.14 424.73Z" fill="#FF9A6C"/>
<path d="M138.67 450.35L121.51 460.94C120.67 461.424 119.965 462.112 119.46 462.94L113 473.77C112.687 474.351 112.558 475.013 112.633 475.669C112.707 476.325 112.981 476.942 113.416 477.437C113.852 477.933 114.429 478.283 115.07 478.441C115.711 478.599 116.384 478.557 117 478.32L117.13 478.26C117.13 478.26 121.77 479.75 124.42 477.85C127.07 475.95 132.48 467.49 132.48 467.49L137.24 466.85L131.62 477.92C131.62 477.92 136.03 479.44 138.92 476.92C141.81 474.4 146.37 467.35 146.37 467.35L154.37 465.2C154.37 465.2 158.5 467.55 165.44 466.03C165.44 466.03 165.3 475.31 171.64 478.1C174.55 479.38 174.34 474.82 174.34 474.82L173.5 467.73C173.5 467.12 174.33 465.26 174.18 464.66L170.84 451.41L162 443L138.67 450.35Z" fill="#FFBF9D"/>
<path d="M136.72 464.74C136.389 465.024 136.038 465.285 135.67 465.52L132.67 467.61C131.35 469.48 129.6 471.94 127.43 474.75C126.88 475.45 126.31 476.17 125.7 476.9C125.39 477.26 125.08 477.63 124.7 477.99C124.53 478.16 124.31 478.33 124.11 478.5C123.888 478.643 123.654 478.767 123.41 478.87C122.408 479.241 121.332 479.371 120.27 479.25C119.182 479.147 118.111 478.912 117.08 478.55L116.8 478.45L116.94 478.18L118.65 474.98C120.75 471.04 122.75 467.31 124.52 463.98V463.92H124.58L135.08 457.59L138.08 455.83C138.426 455.605 138.791 455.411 139.17 455.25C138.858 455.514 138.523 455.752 138.17 455.96L135.23 457.83L124.83 464.32L124.92 464.23L119.09 475.23C118.5 476.33 117.92 477.41 117.38 478.44L117.24 478.07C118.209 478.418 119.216 478.646 120.24 478.75C121.223 478.877 122.221 478.764 123.15 478.42C123.987 477.997 124.708 477.375 125.25 476.61C125.86 475.89 126.43 475.18 126.98 474.49C129.17 471.72 130.98 469.28 132.33 467.49L135.45 465.49C135.853 465.206 136.278 464.956 136.72 464.74Z" fill="#FF9A6C"/>
<path d="M156 464.76C155.789 464.863 155.568 464.943 155.34 465L153.44 465.57L146.44 467.57L146.56 467.48C145.203 469.86 143.662 472.131 141.95 474.27C140.975 475.538 139.819 476.656 138.52 477.59C137.03 478.526 135.272 478.944 133.52 478.78C132.801 478.713 132.103 478.499 131.47 478.15L131.26 478.03L131.38 477.81L138.98 463.36L144.54 459.21L146.08 458.11C146.256 457.974 146.443 457.853 146.64 457.75C146.494 457.918 146.33 458.069 146.15 458.2L144.68 459.39L139.21 463.67L139.27 463.6C137.27 467.52 134.65 472.6 131.78 478.11L131.69 477.77C132.259 478.073 132.88 478.263 133.52 478.33C135.143 478.468 136.767 478.079 138.15 477.22C139.409 476.316 140.534 475.239 141.49 474.02C143.194 471.909 144.741 469.676 146.12 467.34L146.17 467.27H146.24L153.24 465.45L155.17 464.98C155.437 464.873 155.716 464.799 156 464.76Z" fill="#FF9A6C"/>
<path d="M173.38 478.15C173.38 478.15 173.32 478.2 173.19 478.25C172.995 478.339 172.785 478.394 172.57 478.41C171.768 478.484 170.968 478.252 170.33 477.76C169.407 477.066 168.614 476.212 167.99 475.24C167.62 474.7 167.26 474.14 166.91 473.53C166.55 472.899 166.265 472.227 166.06 471.53C165.499 469.543 165.187 467.494 165.13 465.43L165.22 465.59C164.11 464.78 163.22 464.11 162.57 463.59C161.92 463.07 161.57 462.82 161.63 462.78C162.012 462.942 162.374 463.147 162.71 463.39C163.38 463.82 164.32 464.44 165.46 465.21L165.54 465.27V465.38C165.659 467.41 165.995 469.421 166.54 471.38C166.734 472.05 166.999 472.697 167.33 473.31C167.67 473.9 168.02 474.47 168.33 475C168.915 475.938 169.644 476.779 170.49 477.49C171.054 477.957 171.758 478.221 172.49 478.24C173.08 478.21 173.36 478.09 173.38 478.15Z" fill="#FF9A6C"/>
<path d="M169.41 451.11C170.631 452.151 171.597 453.459 172.231 454.933C172.866 456.407 173.153 458.007 173.07 459.61C172.724 458.094 172.283 456.601 171.75 455.14C171.057 453.748 170.275 452.402 169.41 451.11Z" fill="#FF9A6C"/>
<path d="M381.18 204C382.487 202.52 383.294 200.665 383.485 198.699C383.676 196.734 383.242 194.758 382.245 193.054C381.248 191.349 379.738 190.003 377.931 189.207C376.123 188.411 374.111 188.205 372.18 188.62C372.001 186.688 371.325 184.835 370.216 183.242C369.107 181.65 367.605 180.372 365.855 179.534C364.105 178.696 362.167 178.326 360.231 178.46C358.296 178.594 356.428 179.228 354.81 180.3C352.541 178.632 349.779 177.771 346.964 177.856C344.149 177.942 341.444 178.967 339.28 180.77C337.381 180.535 335.456 180.911 333.786 181.844C332.115 182.777 330.785 184.218 329.989 185.958C329.193 187.698 328.972 189.647 329.359 191.521C329.746 193.395 330.72 195.097 332.14 196.38L378.22 221.7C380.473 221.887 382.714 221.22 384.497 219.83C386.281 218.441 387.476 216.431 387.845 214.201C388.214 211.97 387.731 209.683 386.49 207.793C385.25 205.903 383.343 204.549 381.15 204H381.18Z" fill="#263238"/>
<path d="M337.82 189.79L339.82 189.69C349.422 189.212 358.851 192.366 366.232 198.526C373.612 204.685 378.403 213.398 379.65 222.93C382.05 241.31 384.47 261.65 384.84 271.56C385.61 292.08 365.26 296.28 365.26 296.28L368.26 320.83L318.42 321.76L309.58 232.64C306.63 211.45 316.55 192.09 337.82 189.79Z" fill="#FFBF9D"/>
<path d="M365.41 296.24C355.887 296.72 346.426 294.457 338.15 289.72C338.15 289.72 345.2 304.16 365.57 301.3L365.41 296.24Z" fill="#FF9A6C"/>
<path d="M374.42 242.64C374.465 243.401 374.211 244.15 373.712 244.727C373.214 245.304 372.51 245.664 371.75 245.73C371.379 245.779 371.002 245.753 370.641 245.653C370.28 245.554 369.943 245.383 369.649 245.15C369.356 244.918 369.111 244.63 368.931 244.301C368.751 243.973 368.639 243.612 368.6 243.24C368.553 242.477 368.806 241.726 369.305 241.147C369.803 240.568 370.509 240.206 371.27 240.14C371.642 240.093 372.019 240.12 372.38 240.221C372.741 240.322 373.078 240.494 373.372 240.726C373.665 240.959 373.909 241.249 374.089 241.577C374.269 241.906 374.382 242.267 374.42 242.64Z" fill="#263238"/>
<path d="M375.72 233.18C375.37 233.58 373.07 232.05 369.92 232.18C366.77 232.31 364.54 234.04 364.18 233.67C364.01 233.51 364.34 232.8 365.31 232.01C366.629 231.003 368.223 230.424 369.88 230.35C371.52 230.268 373.144 230.705 374.52 231.6C375.53 232.32 375.89 233 375.72 233.18Z" fill="#263238"/>
<path d="M347.73 244.75C347.775 245.514 347.52 246.265 347.019 246.844C346.519 247.423 345.812 247.784 345.05 247.85C344.679 247.896 344.303 247.868 343.943 247.767C343.584 247.667 343.247 247.495 342.954 247.264C342.661 247.032 342.417 246.744 342.236 246.418C342.055 246.091 341.941 245.731 341.9 245.36C341.855 244.596 342.111 243.845 342.611 243.266C343.111 242.687 343.818 242.326 344.58 242.26C344.951 242.211 345.328 242.237 345.689 242.337C346.05 242.437 346.387 242.607 346.681 242.84C346.975 243.072 347.219 243.36 347.399 243.689C347.579 244.017 347.692 244.378 347.73 244.75Z" fill="#263238"/>
<path d="M344.78 235.3C344.43 235.7 342.13 234.17 338.98 234.3C335.83 234.43 333.6 236.15 333.24 235.78C333.06 235.62 333.4 234.91 334.37 234.13C335.684 233.116 337.281 232.536 338.94 232.47C340.581 232.378 342.207 232.816 343.58 233.72C344.58 234.45 345 235.12 344.78 235.3Z" fill="#263238"/>
<path d="M357.37 258.1C357.37 257.92 359.29 257.49 362.44 256.92C363.24 256.8 364 256.6 364.11 256.05C364.136 255.214 363.906 254.391 363.45 253.69C362.6 251.78 361.7 249.78 360.77 247.69C357.03 239.13 354.28 232.08 354.63 231.93C354.98 231.78 358.28 238.6 362.02 247.16C362.92 249.27 363.79 251.28 364.61 253.16C365.158 254.109 365.36 255.219 365.18 256.3C365.079 256.589 364.913 256.852 364.695 257.067C364.476 257.282 364.211 257.444 363.92 257.54C363.478 257.679 363.022 257.766 362.56 257.8C359.37 258.17 357.39 258.28 357.37 258.1Z" fill="#263238"/>
<path d="M346.91 223.05C346.53 223.87 343.79 223.13 340.46 223.19C337.13 223.25 334.36 223.94 334.01 223.12C333.86 222.74 334.42 221.99 335.58 221.29C337.088 220.439 338.789 219.991 340.52 219.99C342.231 219.965 343.918 220.393 345.41 221.23C346.55 221.92 347.07 222.66 346.91 223.05Z" fill="#263238"/>
<path d="M375.22 220.18C374.6 220.93 371.96 220.31 368.83 220.43C365.7 220.55 363.08 221.2 362.43 220.43C362.15 220.08 362.53 219.35 363.65 218.61C365.206 217.686 366.98 217.192 368.79 217.18C370.589 217.104 372.375 217.515 373.96 218.37C375.1 219.1 375.5 219.82 375.22 220.18Z" fill="#263238"/>
<path d="M377.19 213.62C377.19 213.62 371.14 201.05 364.8 198.36C357.13 195.11 354.31 203.5 347.07 201.85C339.83 200.2 332.5 197.09 325.47 202.97C317.78 209.41 321.73 213.47 321.69 222.59C321.52 259.59 315.31 270.33 312.53 253.06C312.22 251.16 306.87 249.91 305.68 241.91C304.15 231.53 303.12 218.91 305.08 211.38C306.73 205.04 310.08 200.56 316.22 195.49C325.91 187.49 339.73 186.64 349.17 187.12C358.61 187.6 377.24 197.5 377.19 213.62Z" fill="#263238"/>
<path d="M313.81 252.43C313.746 251.679 313.531 250.949 313.177 250.283C312.823 249.618 312.338 249.031 311.751 248.558C311.164 248.085 310.488 247.736 309.762 247.532C309.037 247.328 308.277 247.273 307.53 247.37C303.73 247.92 299.58 250.31 300.22 258.19C301.37 272.19 315.22 268.19 315.17 267.75C315.12 267.31 314.34 258.29 313.81 252.43Z" fill="#FFBF9D"/>
<path d="M311.7 262.73C311.63 262.73 311.47 262.93 311.07 263.15C310.51 263.444 309.857 263.508 309.25 263.33C307.73 262.91 306.25 260.67 306.02 258.15C305.887 256.952 306.024 255.739 306.42 254.6C306.517 254.156 306.721 253.741 307.014 253.393C307.306 253.045 307.679 252.772 308.1 252.6C308.374 252.503 308.672 252.505 308.945 252.605C309.217 252.706 309.445 252.898 309.59 253.15C309.81 253.53 309.74 253.82 309.82 253.83C309.9 253.84 310.1 253.57 309.94 253.01C309.835 252.668 309.616 252.372 309.32 252.17C308.909 251.914 308.414 251.828 307.94 251.93C307.375 252.091 306.86 252.394 306.445 252.811C306.03 253.228 305.729 253.744 305.57 254.31C305.071 255.58 304.893 256.954 305.05 258.31C305.37 261.12 307.05 263.64 309.1 264.06C309.485 264.135 309.881 264.125 310.261 264.03C310.642 263.935 310.996 263.758 311.3 263.51C311.7 263.07 311.75 262.76 311.7 262.73Z" fill="#FF9A6C"/>
<path d="M303.13 221.77C314.77 216.18 324.79 213.21 337.61 209.99C350.43 206.77 366.97 204.15 374.86 205.19C376.692 208.41 377.894 211.95 378.4 215.62C378.4 215.62 324.71 219.62 303.9 233.07L303.13 221.77Z" fill="#455A64"/>
<path d="M310.29 220.6C310.29 220.6 310.29 224.14 315.09 225.95C316.23 226.443 317.511 226.503 318.692 226.121C319.874 225.738 320.876 224.938 321.51 223.87C322 223.01 324.03 220.42 324.03 220.42C324.03 220.42 327.17 221.04 328.35 221.11C332.45 221.34 336.98 215.75 336.95 212.17C338.06 213.67 340.1 213.51 341.89 212.94C343.297 212.394 344.485 211.399 345.27 210.11C347.99 206.46 347.04 203.37 347.04 203.37C349.065 203.16 351.023 202.53 352.79 201.52C354.15 200.32 356.67 197.2 356.86 195.36C357.05 193.52 356 199.36 357.51 198.29C359.02 197.22 360.81 197.74 362.51 197.9C364.21 198.06 366.39 197.56 366.74 195.9C366.79 195.453 366.75 195 366.621 194.569C366.492 194.137 366.277 193.737 365.99 193.39C364.764 191.755 363.023 190.58 361.047 190.054C359.072 189.528 356.978 189.682 355.1 190.49C354.294 188.191 352.824 186.182 350.876 184.718C348.928 183.254 346.589 182.401 344.156 182.266C341.723 182.131 339.305 182.721 337.207 183.96C335.109 185.2 333.426 187.034 332.37 189.23C330.815 187.954 328.975 187.072 327.006 186.659C325.038 186.246 322.998 186.315 321.062 186.858C319.125 187.402 317.348 188.405 315.882 189.783C314.416 191.16 313.304 192.871 312.64 194.77C310.899 194.402 309.089 194.554 307.434 195.208C305.779 195.862 304.354 196.989 303.335 198.447C302.317 199.906 301.75 201.633 301.707 203.412C301.663 205.191 302.144 206.943 303.09 208.45C300.64 210.01 297.82 212.75 298.7 215.52C301.31 223.78 307.53 221.52 310.29 220.62" fill="#263238"/>
<path d="M356.35 194.54C356.361 194.626 356.361 194.714 356.35 194.8C356.344 195.051 356.324 195.301 356.29 195.55C356.153 196.51 355.856 197.439 355.41 198.3C354.707 199.666 353.702 200.853 352.47 201.77C350.847 203.017 348.857 203.692 346.81 203.69L347.03 203.37C347.515 204.628 347.483 206.026 346.94 207.26C346.374 208.549 345.623 209.749 344.71 210.82C344.279 211.438 343.779 212.005 343.22 212.51C342.581 212.994 341.832 213.313 341.04 213.44C340.22 213.6 339.373 213.557 338.573 213.314C337.773 213.072 337.044 212.638 336.45 212.05L336.97 211.87C336.848 213.337 336.421 214.762 335.714 216.054C335.008 217.346 334.039 218.476 332.87 219.37C331.588 220.425 329.999 221.036 328.34 221.11C326.781 221.109 325.233 220.849 323.76 220.34L324.12 220.15C323.479 221.886 322.413 223.433 321.02 224.65C320.383 225.252 319.62 225.705 318.787 225.977C317.953 226.249 317.07 226.332 316.2 226.22C314.713 225.975 313.329 225.299 312.221 224.278C311.112 223.256 310.326 221.933 309.96 220.47L310.28 220.6C308.851 221.478 307.161 221.832 305.5 221.6C304.267 221.435 303.092 220.979 302.07 220.27C301.428 219.825 300.869 219.27 300.42 218.63C300.265 218.409 300.131 218.175 300.02 217.93C300.614 218.767 301.352 219.491 302.2 220.07C303.205 220.722 304.349 221.129 305.54 221.26C307.114 221.455 308.706 221.102 310.05 220.26L310.31 220.1L310.38 220.39C310.741 221.754 311.491 222.983 312.539 223.927C313.587 224.872 314.886 225.491 316.28 225.71C317.073 225.807 317.877 225.725 318.634 225.468C319.39 225.212 320.079 224.789 320.65 224.23C321.961 223.076 322.962 221.611 323.56 219.97L323.66 219.71L323.93 219.79C325.342 220.277 326.826 220.524 328.32 220.52C329.85 220.448 331.317 219.883 332.5 218.91C333.6 218.065 334.513 216.999 335.179 215.782C335.845 214.565 336.251 213.222 336.37 211.84L336.43 211.17L336.89 211.67C337.417 212.187 338.062 212.569 338.769 212.783C339.476 212.998 340.224 213.038 340.95 212.9C341.65 212.785 342.311 212.504 342.88 212.08C343.402 211.605 343.872 211.076 344.28 210.5C345.167 209.474 345.901 208.326 346.46 207.09C346.713 206.541 346.856 205.948 346.88 205.344C346.904 204.74 346.809 204.137 346.6 203.57L346.46 203.24H346.82C348.772 203.251 350.676 202.634 352.25 201.48C353.457 200.613 354.458 199.489 355.18 198.19C355.777 197.05 356.173 195.815 356.35 194.54Z" fill="#455A64"/>
<path d="M369.393 200.804L353.413 202.925C352.187 203.088 351.324 204.214 351.487 205.44L352.788 215.244C352.951 216.471 354.077 217.333 355.303 217.17L371.283 215.049C372.51 214.887 373.372 213.76 373.209 212.534L371.908 202.73C371.745 201.504 370.619 200.642 369.393 200.804Z" fill="#455A64"/>
<path d="M371.28 215.07C371.28 215.07 371.51 215.07 371.9 214.83C372.178 214.69 372.423 214.493 372.62 214.252C372.816 214.01 372.96 213.73 373.04 213.43C373.145 212.993 373.145 212.537 373.04 212.1C372.96 211.59 372.88 211.1 372.8 210.46L372.23 206.46C372.13 205.71 372.02 204.94 371.91 204.13L371.73 202.89C371.698 202.494 371.552 202.115 371.31 201.8C371.048 201.475 370.695 201.234 370.297 201.108C369.899 200.982 369.472 200.976 369.07 201.09L366.21 201.48L353.46 203.19C352.964 203.262 352.513 203.518 352.196 203.907C351.879 204.296 351.72 204.789 351.75 205.29C351.89 206.39 352.03 207.47 352.17 208.53C352.44 210.66 352.71 212.72 352.97 214.68C352.982 215.136 353.095 215.583 353.3 215.99C353.539 216.362 353.889 216.649 354.3 216.81C354.696 216.971 355.131 217.012 355.55 216.93L356.88 216.76L361.73 216.15L368.73 215.3L370.65 215.09C370.873 215.063 371.098 215.063 371.32 215.09C371.103 215.15 370.883 215.197 370.66 215.23L368.76 215.53L361.76 216.53L356.91 217.21L355.59 217.39C355.094 217.485 354.582 217.44 354.11 217.26C353.621 217.06 353.208 216.71 352.93 216.26C352.687 215.795 352.547 215.284 352.52 214.76C352.26 212.8 351.984 210.753 351.69 208.62C351.55 207.54 351.41 206.45 351.26 205.35C351.219 204.716 351.418 204.09 351.819 203.596C352.219 203.103 352.791 202.779 353.42 202.69L366.13 201L368.99 200.63C369.478 200.531 369.984 200.555 370.46 200.7C370.926 200.855 371.335 201.148 371.63 201.54C371.917 201.917 372.09 202.368 372.13 202.84L372.28 204.08C372.39 204.89 372.48 205.66 372.58 206.41C372.76 207.88 372.92 209.22 373.07 210.41C373.14 211 373.2 211.55 373.26 212.06C373.374 212.527 373.374 213.013 373.26 213.48C373.165 213.8 373 214.096 372.777 214.345C372.554 214.594 372.278 214.79 371.97 214.92C371.754 215.018 371.518 215.069 371.28 215.07Z" fill="#263238"/>
<g opacity="0.3">
<path d="M353.901 202.934L357.539 202.451L359.432 216.716L355.794 217.199C355.119 217.289 354.435 217.106 353.894 216.692C353.353 216.277 352.998 215.665 352.909 214.989L351.693 205.83C351.647 205.494 351.668 205.153 351.754 204.826C351.841 204.499 351.991 204.192 352.196 203.923C352.401 203.654 352.657 203.428 352.95 203.259C353.242 203.089 353.566 202.978 353.901 202.934Z" fill="black"/>
</g>
<path d="M370.66 208.71C370.66 209.772 370.345 210.81 369.755 211.693C369.165 212.576 368.327 213.265 367.345 213.671C366.364 214.078 365.284 214.184 364.243 213.977C363.201 213.77 362.244 213.258 361.493 212.507C360.742 211.756 360.231 210.799 360.024 209.758C359.816 208.716 359.923 207.636 360.329 206.655C360.736 205.674 361.424 204.835 362.307 204.245C363.19 203.655 364.228 203.34 365.29 203.34C365.996 203.339 366.695 203.477 367.347 203.746C367.999 204.015 368.592 204.411 369.09 204.91C369.589 205.409 369.985 206.001 370.254 206.653C370.524 207.306 370.662 208.004 370.66 208.71Z" fill="white"/>
<path d="M370.66 208.71C370.61 208.71 370.66 208.23 370.39 207.42C370.057 206.281 369.353 205.285 368.39 204.59C367.696 204.079 366.887 203.747 366.033 203.625C365.18 203.503 364.31 203.594 363.5 203.89C362.806 204.147 362.176 204.55 361.652 205.072C361.128 205.594 360.722 206.223 360.463 206.916C360.204 207.608 360.097 208.349 360.15 209.087C360.202 209.825 360.413 210.543 360.768 211.192C361.123 211.841 361.614 212.406 362.207 212.848C362.8 213.29 363.481 213.6 364.204 213.755C364.928 213.911 365.676 213.909 366.398 213.749C367.12 213.589 367.8 213.276 368.39 212.83C369.353 212.135 370.057 211.139 370.39 210C370.62 209.19 370.61 208.71 370.66 208.71C370.71 208.71 370.66 208.83 370.66 209.06C370.663 209.397 370.626 209.732 370.55 210.06C370.281 211.281 369.595 212.37 368.61 213.14C367.875 213.716 367.006 214.096 366.085 214.244C365.163 214.393 364.219 214.306 363.34 213.99C362.288 213.628 361.373 212.951 360.72 212.05C360.006 211.087 359.62 209.919 359.62 208.72C359.62 207.521 360.006 206.353 360.72 205.39C361.376 204.492 362.29 203.815 363.34 203.45C364.219 203.137 365.163 203.051 366.084 203.2C367.005 203.348 367.874 203.727 368.61 204.3C369.595 205.07 370.281 206.159 370.55 207.38C370.626 207.708 370.663 208.043 370.66 208.38C370.69 208.59 370.68 208.71 370.66 208.71Z" fill="#263238"/>
<path d="M356.75 265.47C355.499 264.801 354.149 264.338 352.75 264.1C352.074 263.933 351.366 263.945 350.696 264.136C350.026 264.327 349.418 264.689 348.931 265.187C348.444 265.685 348.096 266.301 347.92 266.976C347.745 267.65 347.748 268.358 347.93 269.03C348.051 270.042 348.428 271.006 349.024 271.831C349.621 272.657 350.418 273.317 351.34 273.75C352.273 274.159 353.314 274.254 354.305 274.021C355.297 273.789 356.186 273.241 356.84 272.46C357.529 271.4 357.878 270.154 357.84 268.89C357.88 267.12 357.28 265.62 356.75 265.47Z" fill="#FF9A6C"/>
<path d="M357.36 271.91C357.41 271.91 357.2 272.25 356.73 272.72C356.064 273.396 355.277 273.942 354.41 274.33C353.75 274.606 353.021 274.676 352.32 274.53C351.556 274.362 350.833 274.046 350.19 273.6C349.439 273.125 348.82 272.468 348.39 271.69C348.001 270.857 347.75 269.965 347.65 269.05C347.471 268.139 347.55 267.196 347.877 266.327C348.203 265.458 348.766 264.697 349.5 264.13C350.202 263.695 351.028 263.502 351.85 263.58C352.517 263.64 353.173 263.788 353.8 264.02C354.687 264.279 355.55 264.614 356.38 265.02C356.94 265.4 357.16 265.7 357.13 265.75C357.1 265.8 356.77 265.62 356.19 265.38C355.61 265.14 354.72 265.01 353.57 264.68C352.999 264.463 352.388 264.369 351.778 264.405C351.167 264.441 350.572 264.607 350.03 264.89C349.47 265.377 349.05 266.004 348.813 266.707C348.576 267.41 348.53 268.163 348.68 268.89C348.77 269.684 348.979 270.459 349.3 271.19C349.638 271.83 350.129 272.377 350.73 272.78C351.189 273.184 351.739 273.47 352.333 273.615C352.927 273.759 353.547 273.758 354.14 273.61C354.97 273.302 355.756 272.889 356.48 272.38C357 272.05 357.32 271.85 357.36 271.91Z" fill="#263238"/>
<g opacity="0.6">
<path d="M605.72 297.775C657.751 294.474 697.149 247.965 693.719 193.895C690.289 139.824 645.329 98.6676 593.298 101.968C541.266 105.269 501.868 151.778 505.298 205.848C508.728 259.919 553.688 301.076 605.72 297.775Z" fill="#3E8EDE"/>
</g>
<g opacity="0.3">
<path d="M505.3 205.77C502.7 164.85 524.64 128.26 558.02 111.45L363.53 203.89C358.68 205.57 358.33 211.7 364.8 214.31L563.11 290.11C531.13 276 507.74 244.17 505.3 205.77Z" fill="#3E8EDE"/>
</g>
<path d="M514 135.6C514.07 135.73 487 148.78 453.52 164.75C420.04 180.72 392.86 193.57 392.8 193.44C392.74 193.31 419.8 180.26 453.29 164.28C486.78 148.3 513.91 135.47 514 135.6Z" fill="white"/>
<path d="M687.11 176.2C687.164 176.328 687.2 176.463 687.22 176.6C687.28 176.9 687.37 177.3 687.48 177.81C687.59 178.32 687.72 179.01 687.88 179.81C688.04 180.61 688.22 181.49 688.35 182.51C689.271 188.276 689.672 194.112 689.55 199.95C689.475 203.98 689.178 208.003 688.66 212C688.49 213.07 688.32 214.16 688.14 215.27L687.87 216.95C687.76 217.51 687.64 218.07 687.52 218.64C687.29 219.77 687.04 220.92 686.8 222.09L685.88 225.59C683.113 235.834 678.768 245.584 673 254.49C669.971 259.083 666.584 263.43 662.87 267.49C659.37 271.22 655.618 274.705 651.64 277.92C644.844 283.327 637.307 287.732 629.26 291C623.844 293.199 618.156 294.659 612.35 295.34L610.9 295.52C610.44 295.57 610.01 295.57 609.62 295.59L607.62 295.68H606.38H606C606.138 295.649 606.279 295.632 606.42 295.63L607.65 295.53L609.65 295.4C610.04 295.4 610.47 295.4 610.92 295.3L612.36 295.09C618.135 294.344 623.787 292.841 629.17 290.62C637.144 287.316 644.611 282.903 651.35 277.51C655.305 274.304 659.034 270.829 662.51 267.11C666.195 263.073 669.561 258.757 672.58 254.2C678.325 245.325 682.669 235.618 685.46 225.42L686.38 221.94C686.63 220.78 686.87 219.64 687.12 218.51C687.23 217.94 687.35 217.38 687.47 216.83L687.74 215.16C687.92 214.06 688.1 212.97 688.27 211.9C688.806 207.92 689.123 203.914 689.22 199.9C689.377 194.086 689.043 188.268 688.22 182.51C688.11 181.51 687.95 180.58 687.8 179.8L687.44 177.8C687.36 177.29 687.29 176.88 687.24 176.58C687.19 176.28 687.11 176.2 687.11 176.2Z" fill="white"/>
<path d="M683.91 168C683.303 165.772 682.575 163.579 681.73 161.43C680.712 159.373 679.587 157.37 678.36 155.43C678.892 155.869 679.35 156.389 679.72 156.97C681.688 159.646 683.052 162.716 683.72 165.97C683.897 166.631 683.961 167.317 683.91 168Z" fill="white"/>
<path d="M580.47 290.19C580.42 290.32 558.32 282.11 531.12 271.86C503.92 261.61 481.9 253.17 482 253C482.1 252.83 504.15 261.07 531.36 271.33C558.57 281.59 580.52 290.05 580.47 290.19Z" fill="white"/>
<path d="M400 317.41C380.78 324.87 390.41 323.31 390.39 355.75C390.39 389.22 398.05 405.95 398.05 405.95L450.39 379.24L435.39 348.46C426.49 329.39 422.34 324.5 400 317.41Z" fill="#3E8EDE"/>
<path d="M301.12 318.27L323.74 309.41L365.39 307.05L384.97 314.49L358.14 329.39L335.01 328.54L301.12 318.27Z" fill="#FFBF9D"/>
<path d="M407.79 390.4L400.04 317.4C400.04 317.4 379.64 310.4 369.23 307.04C369.23 307.04 358.23 318.46 337.45 318.15C317.08 317.85 312.83 313.25 312.83 313.25L284.36 324.17C284.36 324.17 266 332.44 260.63 340.4C253.21 351.33 233.63 378.55 233.63 378.55L270.2 411.55L279.31 401L281.11 444.22C319.11 445.95 368.49 446.97 409 444.06L408.19 414.54L407.79 390.4Z" fill="#3E8EDE"/>
<g opacity="0.3">
<path d="M358.34 368.65L359.92 399.69L380.39 408.84L395.53 395.94V367.22L358.34 368.65Z" fill="black"/>
</g>
<g opacity="0.3">
<path d="M265.33 357.64C264.817 371.114 269.631 384.249 278.73 394.2C276 381.54 269 369.76 265.33 357.64Z" fill="black"/>
</g>
<path d="M410.71 344.83C410.732 344.996 410.732 345.164 410.71 345.33C410.71 345.71 410.71 346.19 410.71 346.76C410.65 348.08 410.57 349.85 410.46 352C410.23 356.43 409.86 362.54 409.39 369.29C408.46 382.78 407.45 393.76 406.93 393.65C407.091 393.032 407.182 392.398 407.2 391.76C407.32 390.53 407.47 388.76 407.64 386.54C407.96 382.04 408.4 375.97 408.88 369.26C409.36 362.55 409.78 356.48 410.1 351.98C410.27 349.83 410.41 348.06 410.51 346.74C410.56 346.18 410.61 345.74 410.65 345.32C410.644 345.155 410.664 344.989 410.71 344.83Z" fill="#263238"/>
<path d="M263.69 354.82C263.821 355.047 263.931 355.284 264.02 355.53L264.88 357.59C265.63 359.43 266.67 362.02 267.95 365.19L277.95 390.36C278.31 391.29 278.67 392.22 279.01 393.08V393.13C279.43 402.99 279.8 411.79 280.08 418.2C280.19 421.34 280.28 423.88 280.34 425.7C280.34 426.55 280.34 427.22 280.39 427.7C280.412 427.933 280.412 428.167 280.39 428.4C280.336 428.171 280.31 427.936 280.31 427.7C280.31 427.19 280.22 426.52 280.17 425.7C280.06 423.88 279.92 421.34 279.74 418.21C279.43 411.8 279 403 278.51 393.14V393.22C278.17 392.35 277.81 391.43 277.44 390.5L267.63 365.28L264.71 357.61L263.95 355.52C263.838 355.297 263.751 355.062 263.69 354.82Z" fill="#263238"/>
<path d="M418 444.12L398.86 444.65V385.16C398.863 382.623 399.872 380.19 401.666 378.396C403.46 376.602 405.893 375.593 408.43 375.59C410.968 375.593 413.4 376.602 415.194 378.396C416.989 380.19 417.998 382.623 418 385.16V444.12Z" fill="#455A64"/>
<path d="M315.71 445.45L295.44 444.92L296.58 386.56C296.579 385.303 296.826 384.058 297.306 382.896C297.787 381.734 298.492 380.679 299.38 379.79C300.269 378.901 301.325 378.196 302.487 377.716C303.648 377.235 304.893 376.989 306.15 376.99C307.407 376.99 308.651 377.238 309.811 377.719C310.972 378.2 312.026 378.905 312.914 379.794C313.802 380.682 314.506 381.737 314.986 382.898C315.465 384.06 315.712 385.304 315.71 386.56V445.45Z" fill="#455A64"/>
<path d="M405.38 421.63H311.59V435.52H405.38V421.63Z" fill="#455A64"/>
<path d="M315.77 445C315.63 445 315.51 432.12 315.51 416.24C315.51 400.36 315.63 387.47 315.77 387.47C315.91 387.47 316.03 400.35 316.03 416.24C316.03 432.13 315.92 445 315.77 445Z" fill="#263238"/>
<path d="M398.88 443.65C398.74 443.65 398.62 432.45 398.62 418.65C398.62 404.85 398.74 393.65 398.88 393.65C399.02 393.65 399.14 404.84 399.14 418.65C399.14 432.46 399 443.65 398.88 443.65Z" fill="#263238"/>
<path d="M568.3 204.54L561.02 204.42L560.86 213.8L547.35 213.56L547.51 204.18L521.61 203.74L521.77 194.74L544.27 164.53L558.62 164.78L538.18 193L548.12 193.17L548.27 184.84L561.36 185.07L561.21 193.4L568.49 193.52L568.3 204.54Z" fill="#3E8EDE"/>
<path d="M571.36 189.47C571.64 173.3 580.9 164.15 593.43 164.36C605.96 164.57 614.83 174.04 614.55 190.21C614.27 206.38 605.01 215.54 592.55 215.32C580.09 215.1 571.08 205.64 571.36 189.47ZM600.62 189.97C600.8 179.68 597.62 175.78 593.23 175.7C588.84 175.62 585.47 179.42 585.29 189.7C585.11 199.98 588.29 203.9 592.75 203.97C597.21 204.04 600.44 200.26 600.62 190V189.97Z" fill="#3E8EDE"/>
<path d="M665.24 206.21L657.96 206.09L657.8 215.46L644.29 215.23L644.45 205.85L618.55 205.41L618.71 196.41L641.21 166.2L655.56 166.44L635.12 194.7L645.06 194.87L645.21 186.54L658.3 186.77L658.15 195.1L665.43 195.22L665.24 206.21Z" fill="#3E8EDE"/>
<path d="M574 237.22L573.93 240.85L560.59 240.63L560.88 224.01L573.88 224.23L573.82 227.86L565.44 227.72V230.52L572.82 230.65L572.76 234.16L565.38 234.03V237.03L574 237.22Z" fill="#3E8EDE"/>
<path d="M583.84 236.61H581.28L581.2 241L576.5 240.92L576.78 224.3L584.38 224.43C588.91 224.51 591.72 226.91 591.66 230.71C591.684 231.811 591.378 232.894 590.781 233.819C590.184 234.744 589.323 235.469 588.31 235.9L591.81 241.18L586.81 241.1L583.84 236.61ZM584.03 228.11H581.42L581.34 232.97H583.95C585.9 232.97 586.88 232.12 586.95 230.6C587.02 229.08 586 228.15 584 228.11H584.03Z" fill="#3E8EDE"/>
<path d="M601.41 236.91H598.84L598.77 241.32L594.07 241.24L594.35 224.62L601.95 224.76C606.48 224.83 609.29 227.23 609.23 231.03C609.255 232.131 608.95 233.214 608.352 234.14C607.755 235.065 606.894 235.79 605.88 236.22L609.38 241.51L604.38 241.42L601.41 236.91ZM601.6 228.41H598.99L598.91 233.28H601.52C603.46 233.28 604.45 232.43 604.52 230.91C604.59 229.39 603.55 228.45 601.6 228.41Z" fill="#3E8EDE"/>
<path d="M610.93 233.18C611.01 228.18 614.99 224.61 620.31 224.7C625.63 224.79 629.48 228.51 629.4 233.5C629.32 238.49 625.33 242.07 620.01 241.98C614.69 241.89 610.84 238.17 610.93 233.18ZM624.65 233.42C624.616 232.541 624.326 231.691 623.815 230.975C623.304 230.259 622.594 229.709 621.773 229.392C620.953 229.076 620.057 229.006 619.198 229.193C618.338 229.38 617.552 229.815 616.937 230.443C616.322 231.072 615.904 231.867 615.736 232.731C615.568 233.594 615.656 234.488 615.991 235.301C616.325 236.115 616.891 236.813 617.618 237.308C618.344 237.804 619.2 238.076 620.08 238.09C620.693 238.106 621.302 237.995 621.871 237.765C622.439 237.534 622.954 237.189 623.382 236.751C623.811 236.313 624.145 235.791 624.363 235.218C624.581 234.644 624.679 234.032 624.65 233.42Z" fill="#3E8EDE"/>
<path d="M639.06 237.56H636.5L636.42 241.97L631.72 241.89L632.01 225.27L639.61 225.4C644.14 225.48 646.95 227.88 646.88 231.68C646.903 232.779 646.598 233.861 646.003 234.785C645.408 235.71 644.55 236.436 643.54 236.87L647.04 242.15L642.04 242.07L639.06 237.56ZM639.26 229.06H636.65L636.56 233.92L639.17 233.97C641.17 233.97 642.11 233.12 642.17 231.6C642.23 230.08 641.2 229.1 639.26 229.06Z" fill="#3E8EDE"/>
<g opacity="0.2">
<path d="M568.3 204.54L561.02 204.42L560.86 213.8L547.35 213.56L547.51 204.18L521.61 203.74L521.77 194.74L544.27 164.53L558.62 164.78L538.18 193L548.12 193.17L548.27 184.84L561.36 185.07L561.21 193.4L568.49 193.52L568.3 204.54Z" fill="black"/>
<path d="M571.36 189.47C571.64 173.3 580.9 164.15 593.43 164.36C605.96 164.57 614.83 174.04 614.55 190.21C614.27 206.38 605.01 215.54 592.55 215.32C580.09 215.1 571.08 205.64 571.36 189.47ZM600.62 189.97C600.8 179.68 597.62 175.78 593.23 175.7C588.84 175.62 585.47 179.42 585.29 189.7C585.11 199.98 588.29 203.9 592.75 203.97C597.21 204.04 600.44 200.26 600.62 190V189.97Z" fill="black"/>
<path d="M665.24 206.21L657.96 206.09L657.8 215.46L644.29 215.23L644.45 205.85L618.55 205.41L618.71 196.41L641.21 166.2L655.56 166.44L635.12 194.7L645.06 194.87L645.21 186.54L658.3 186.77L658.15 195.1L665.43 195.22L665.24 206.21Z" fill="black"/>
</g>
<g opacity="0.2">
<path d="M574 237.22L573.93 240.85L560.59 240.63L560.88 224.01L573.88 224.23L573.82 227.86L565.44 227.72V230.52L572.82 230.65L572.76 234.16L565.38 234.03V237.03L574 237.22Z" fill="black"/>
<path d="M583.84 236.61H581.28L581.2 241L576.5 240.92L576.78 224.3L584.38 224.43C588.91 224.51 591.72 226.91 591.66 230.71C591.684 231.811 591.378 232.894 590.781 233.819C590.184 234.744 589.323 235.469 588.31 235.9L591.81 241.18L586.81 241.1L583.84 236.61ZM584.03 228.11H581.42L581.34 232.97H583.95C585.9 232.97 586.88 232.12 586.95 230.6C587.02 229.08 586 228.15 584 228.11H584.03Z" fill="black"/>
<path d="M601.41 236.91H598.84L598.77 241.32L594.07 241.24L594.35 224.62L601.95 224.76C606.48 224.83 609.29 227.23 609.23 231.03C609.255 232.131 608.95 233.214 608.352 234.14C607.755 235.065 606.894 235.79 605.88 236.22L609.38 241.51L604.38 241.42L601.41 236.91ZM601.6 228.41H598.99L598.91 233.28H601.52C603.46 233.28 604.45 232.43 604.52 230.91C604.59 229.39 603.55 228.45 601.6 228.41Z" fill="black"/>
<path d="M610.93 233.18C611.01 228.18 614.99 224.61 620.31 224.7C625.63 224.79 629.48 228.51 629.4 233.5C629.32 238.49 625.33 242.07 620.01 241.98C614.69 241.89 610.84 238.17 610.93 233.18ZM624.65 233.42C624.616 232.541 624.326 231.691 623.815 230.975C623.304 230.259 622.594 229.709 621.773 229.392C620.953 229.076 620.057 229.006 619.198 229.193C618.338 229.38 617.552 229.815 616.937 230.443C616.322 231.072 615.904 231.867 615.736 232.731C615.568 233.594 615.656 234.488 615.991 235.301C616.325 236.115 616.891 236.813 617.618 237.308C618.344 237.804 619.2 238.076 620.08 238.09C620.693 238.106 621.302 237.995 621.871 237.765C622.439 237.534 622.954 237.189 623.382 236.751C623.811 236.313 624.145 235.791 624.363 235.218C624.581 234.644 624.679 234.032 624.65 233.42Z" fill="black"/>
<path d="M639.06 237.56H636.5L636.42 241.97L631.72 241.89L632.01 225.27L639.61 225.4C644.14 225.48 646.95 227.88 646.88 231.68C646.903 232.779 646.598 233.861 646.003 234.785C645.408 235.71 644.55 236.436 643.54 236.87L647.04 242.15L642.04 242.07L639.06 237.56ZM639.26 229.06H636.65L636.56 233.92L639.17 233.97C641.17 233.97 642.11 233.12 642.17 231.6C642.23 230.08 641.2 229.1 639.26 229.06Z" fill="black"/>
</g>
</svg>
