<svg width="76" height="88" viewBox="0 0 76 88" fill="none" xmlns="http://www.w3.org/2000/svg">
<path d="M63 29.3333H71.3333C73.6346 29.3333 75.5 31.1988 75.5 33.5V83.5C75.5 85.8012 73.6346 87.6667 71.3333 87.6667H4.66667C2.3655 87.6667 0.5 85.8012 0.5 83.5V33.5C0.5 31.1988 2.3655 29.3333 4.66667 29.3333H13V25.1667C13 11.3595 24.1929 0.166656 38 0.166656C51.8071 0.166656 63 11.3595 63 25.1667V29.3333ZM54.6667 29.3333V25.1667C54.6667 15.9619 47.2046 8.49999 38 8.49999C28.7952 8.49999 21.3333 15.9619 21.3333 25.1667V29.3333H54.6667ZM33.8333 54.3333V62.6667H42.1667V54.3333H33.8333ZM17.1667 54.3333V62.6667H25.5V54.3333H17.1667ZM50.5 54.3333V62.6667H58.8333V54.3333H50.5Z" fill="#3E8EDE"/>
</svg>
