<svg width="600" height="600" viewBox="0 0 600 600" fill="none" xmlns="http://www.w3.org/2000/svg">
<path d="M560.268 379.44H363.6V265.632H560.268V379.44ZM364.8 378.24H559.068V266.832H364.8V378.24Z" fill="#E0E0E0"/>
<path d="M519.696 326.316H389.94V330.12H519.696V326.316Z" fill="#F0F0F0"/>
<path d="M528.636 340.5H389.94V344.652H528.636V340.5Z" fill="#F0F0F0"/>
<path d="M528.636 354.852H389.94V359.004H528.636V354.852Z" fill="#F0F0F0"/>
<path d="M435.288 305.712H389.94V315.588H435.288V305.712Z" fill="#F0F0F0"/>
<path d="M559.668 266.232H364.236V284.352H559.668V266.232Z" fill="#E0E0E0"/>
<path d="M544.632 281.64C544.38 281.4 546.9 278.364 550.248 274.86C553.596 271.356 556.536 268.704 556.776 268.932C557.016 269.16 554.508 272.208 551.16 275.724C547.812 279.24 544.872 281.88 544.632 281.64Z" fill="white"/>
<path d="M556.8 281.64C556.56 281.88 553.632 279.24 550.272 275.724C546.912 272.208 544.404 269.172 544.656 268.932C544.908 268.692 547.824 271.332 551.184 274.86C554.544 278.388 557.028 281.4 556.8 281.64Z" fill="white"/>
<path d="M318.264 40.86H122.832V153.48H318.264V40.86Z" fill="#E6E6E6"/>
<path d="M278.304 100.956H148.548V104.76H278.304V100.956Z" fill="#F0F0F0"/>
<path d="M287.244 115.14H148.548V119.292H287.244V115.14Z" fill="#F0F0F0"/>
<path d="M287.244 129.492H148.548V133.644H287.244V129.492Z" fill="#F0F0F0"/>
<path d="M193.896 80.352H148.548V90.228H193.896V80.352Z" fill="#F0F0F0"/>
<path d="M318.264 40.86H122.832V58.98H318.264V40.86Z" fill="#E0E0E0"/>
<path d="M302.568 56.184C302.316 55.956 304.836 52.908 308.184 49.404C311.532 45.9 314.472 43.248 314.712 43.488C314.952 43.728 312.444 46.764 309.096 50.268C305.748 53.772 302.808 56.4 302.568 56.184Z" fill="white"/>
<path d="M314.712 56.184C314.472 56.424 311.544 53.784 308.184 50.268C304.824 46.752 302.316 43.728 302.568 43.488C302.82 43.248 305.736 45.888 309.096 49.404C312.456 52.92 314.964 55.956 314.712 56.184Z" fill="white"/>
<path d="M244.248 250.068H47.616V136.248H244.248V250.068ZM48.816 248.868H243.048V137.448H48.816V248.868Z" fill="#E0E0E0"/>
<path d="M203.688 196.944H73.932V200.748H203.688V196.944Z" fill="#F0F0F0"/>
<path d="M212.628 211.128H73.932V215.28H212.628V211.128Z" fill="#F0F0F0"/>
<path d="M212.628 225.48H73.932V229.632H212.628V225.48Z" fill="#F0F0F0"/>
<path d="M119.28 176.34H73.932V186.216H119.28V176.34Z" fill="#F0F0F0"/>
<path d="M243.648 136.848H48.216V154.968H243.648V136.848Z" fill="#E0E0E0"/>
<path d="M471.18 276.144H240.42V482.736H471.18V276.144Z" fill="#E6E6E6"/>
<path d="M252.024 211.068H71.256V398.88H252.024V211.068Z" fill="#F0F0F0"/>
<path d="M252.024 211.068H71.256V231.528H252.024V211.068Z" fill="#E0E0E0"/>
<path d="M86.184 221.088C86.1511 221.83 85.9011 222.546 85.4649 223.147C85.0288 223.748 84.4257 224.208 83.7305 224.469C83.0354 224.731 82.2788 224.782 81.5546 224.618C80.8304 224.453 80.1706 224.079 79.6569 223.543C79.1433 223.006 78.7985 222.331 78.6653 221.6C78.532 220.87 78.6163 220.116 78.9076 219.433C79.1989 218.75 79.6844 218.167 80.3038 217.757C80.9233 217.348 81.6494 217.129 82.392 217.128C83.4191 217.153 84.3944 217.584 85.1049 218.326C85.8154 219.068 86.2034 220.061 86.184 221.088Z" fill="white"/>
<path d="M101.58 221.088C101.549 221.833 101.3 222.553 100.864 223.158C100.427 223.763 99.822 224.227 99.1241 224.49C98.4262 224.754 97.6661 224.807 96.9385 224.642C96.2108 224.477 95.5478 224.102 95.0317 223.563C94.5157 223.024 94.1696 222.345 94.0364 221.611C93.9031 220.877 93.9887 220.12 94.2825 219.434C94.5763 218.748 95.0652 218.164 95.6885 217.754C96.3118 217.344 97.0419 217.126 97.788 217.128C98.815 217.153 99.7903 217.584 100.501 218.326C101.211 219.068 101.599 220.061 101.58 221.088Z" fill="white"/>
<path d="M116.976 221.088C116.945 221.833 116.696 222.553 116.26 223.158C115.823 223.763 115.218 224.227 114.52 224.49C113.822 224.754 113.062 224.807 112.334 224.642C111.607 224.477 110.944 224.102 110.428 223.563C109.912 223.024 109.566 222.345 109.432 221.611C109.299 220.877 109.385 220.12 109.678 219.434C109.972 218.748 110.461 218.164 111.085 217.754C111.708 217.344 112.438 217.126 113.184 217.128C114.211 217.153 115.186 217.584 115.897 218.326C116.607 219.068 116.995 220.061 116.976 221.088Z" fill="white"/>
<path d="M534.456 81.936H303.696V311.928H534.456V81.936Z" fill="#F0F0F0"/>
<path d="M534.456 81.936H303.696V108.876H534.456V81.936Z" fill="#E0E0E0"/>
<path d="M323.352 95.136C323.31 96.1154 322.981 97.0608 322.406 97.8548C321.831 98.6488 321.035 99.2564 320.118 99.6023C319.201 99.9481 318.202 100.017 317.246 99.8001C316.29 99.5833 315.419 99.0905 314.74 98.3828C314.062 97.6752 313.606 96.7838 313.43 95.8195C313.254 94.8552 313.365 93.8603 313.749 92.9585C314.133 92.0566 314.774 91.2875 315.592 90.7466C316.409 90.2057 317.368 89.9169 318.348 89.916C319.703 89.9475 320.99 90.5144 321.928 91.4927C322.866 92.471 323.378 93.781 323.352 95.136Z" fill="white"/>
<path d="M342.156 91.608C342.821 92.3304 343.259 93.2327 343.415 94.2023C343.571 95.1719 343.439 96.166 343.034 97.0607C342.629 97.9555 341.97 98.7113 341.138 99.234C340.307 99.7567 339.34 100.023 338.358 100C337.376 99.9774 336.423 99.6661 335.617 99.1052C334.811 98.5442 334.188 97.7585 333.825 96.8458C333.462 95.9332 333.376 94.934 333.577 93.9727C333.778 93.0115 334.258 92.1306 334.956 91.44C335.934 90.5093 337.241 90.0044 338.591 90.0359C339.94 90.0674 341.223 90.6327 342.156 91.608Z" fill="white"/>
<path d="M363.888 95.136C363.846 96.1154 363.517 97.0608 362.942 97.8548C362.367 98.6488 361.571 99.2564 360.654 99.6023C359.737 99.9481 358.738 100.017 357.782 99.8001C356.826 99.5833 355.955 99.0905 355.276 98.3828C354.598 97.6752 354.142 96.7838 353.966 95.8195C353.79 94.8552 353.901 93.8603 354.285 92.9585C354.669 92.0566 355.31 91.2875 356.128 90.7466C356.945 90.2057 357.904 89.9169 358.884 89.916C360.239 89.9475 361.526 90.5144 362.464 91.4927C363.402 92.471 363.914 93.781 363.888 95.136Z" fill="white"/>
<path d="M484.608 543.756C484.608 543.924 401.28 544.068 298.524 544.068C195.768 544.068 112.404 543.924 112.404 543.756C112.404 543.588 195.72 543.444 298.524 543.444C401.328 543.444 484.608 543.6 484.608 543.756Z" fill="#263238"/>
<path d="M403.416 396.852C384.876 383.904 380.676 359.868 381.408 338.256C381.528 334.656 381.132 330.84 382.848 327.684C384.564 324.528 388.572 322.356 391.8 323.868C394.476 325.128 395.64 328.248 397.14 330.828C399.141 334.264 402.074 337.064 405.6 338.904C407.892 340.104 410.736 340.824 413.004 339.576C416.124 337.86 416.484 333.576 416.46 329.976C416.46 323.28 416.42 316.592 416.34 309.912C416.124 306.325 416.489 302.727 417.42 299.256C418.536 295.848 421.02 292.692 424.416 291.732C427.812 290.772 432.048 292.752 432.816 296.256C432.948 297.74 432.984 299.231 432.924 300.72C433.02 302.22 433.716 303.864 435.12 304.32C436.524 304.776 437.988 303.732 439.068 302.676C442.764 299.076 445.284 294.384 447.624 289.752C449.964 285.12 452.256 280.356 455.616 276.408C458.976 272.46 463.62 269.328 468.816 269.028C474.012 268.728 479.424 271.92 480.72 276.96C482.016 282 479.076 287.148 475.92 291.24C471.158 297.314 465.544 302.669 459.252 307.14C458.024 307.811 457.044 308.858 456.456 310.128C455.676 312.528 457.944 314.928 460.308 315.684C462.984 316.572 465.888 316.296 468.708 316.632C471.528 316.968 474.528 318.192 475.596 320.832C477.06 324.504 473.988 328.344 470.976 330.864C464.928 335.904 458.06 339.869 450.672 342.588C448.032 343.548 445.26 344.4 443.124 346.248C440.988 348.096 439.716 351.324 441 353.856C442.284 356.388 445.584 357.192 448.356 356.676C451.128 356.16 453.588 354.672 456.228 353.676C461.16 351.816 467.52 352.152 470.628 356.412C471.591 357.879 472.2 359.55 472.409 361.293C472.617 363.036 472.418 364.803 471.828 366.456C470.627 369.746 468.779 372.761 466.392 375.324C458.533 384.714 448.321 391.849 436.8 396C425.364 399.96 414.768 401.04 403.404 396.876" fill="#90CAF9"/>
<path d="M475.44 271.992C475.44 271.992 475.332 272.112 475.092 272.328L474.024 273.276C473.088 274.116 471.708 275.34 469.968 276.96C465.035 281.541 460.454 286.487 456.264 291.756C453.588 295.08 450.816 298.848 447.864 302.94C444.912 307.032 441.864 311.448 438.84 316.14C435.616 321.088 432.664 326.207 429.996 331.476C428.604 334.224 427.38 337.092 426.12 340.02L422.4 348.96C417.497 360.221 413.226 371.747 409.608 383.484C406.694 393.087 404.685 402.942 403.608 412.92C402.91 419.654 402.798 426.435 403.272 433.188C403.464 435.588 403.644 437.424 403.812 438.672C403.884 439.272 403.932 439.752 403.98 440.1V440.592C403.928 440.436 403.892 440.275 403.872 440.112C403.812 439.764 403.74 439.296 403.644 438.696C403.428 437.496 403.2 435.6 402.984 433.2C402.405 426.434 402.445 419.63 403.104 412.872C404.114 402.852 406.079 392.951 408.972 383.304C412.559 371.534 416.818 359.979 421.728 348.696L425.544 339.792C426.804 336.876 428.04 333.984 429.444 331.224C432.13 325.939 435.107 320.808 438.36 315.852C441.432 311.052 444.528 306.708 447.444 302.652C450.36 298.596 453.18 294.804 455.844 291.492C460.076 286.237 464.719 281.325 469.728 276.804C471.504 275.208 472.92 274.008 473.88 273.204L474.996 272.304C475.133 272.185 475.282 272.08 475.44 271.992Z" fill="#263238"/>
<path d="M429.6 331.2C429.431 330.706 429.314 330.195 429.252 329.676C429.06 328.68 428.844 327.276 428.592 325.452C428.076 321.852 427.548 316.92 426.984 311.46C426.42 306 425.784 301.056 425.256 297.492C424.98 295.716 424.74 294.288 424.572 293.292C424.441 292.782 424.372 292.258 424.368 291.732C424.575 292.213 424.724 292.716 424.812 293.232C425.076 294.216 425.376 295.632 425.712 297.42C426.396 301.02 427.068 305.916 427.632 311.388C428.196 316.86 428.676 321.66 429.048 325.392C429.228 327.072 429.384 328.5 429.504 329.64C429.597 330.154 429.629 330.678 429.6 331.2Z" fill="#263238"/>
<path d="M475.776 322.584C475.192 322.711 474.597 322.783 474 322.8C472.8 322.908 471.096 323.052 468.984 323.292C464.76 323.748 458.952 324.588 452.58 325.788C446.208 326.988 440.484 328.344 436.368 329.388C434.316 329.916 432.66 330.396 431.568 330.72C430.985 330.927 430.382 331.072 429.768 331.152C430.323 330.873 430.901 330.644 431.496 330.468C432.624 330.072 434.256 329.52 436.296 328.932C440.388 327.732 446.112 326.304 452.508 325.08C457.926 324.044 463.393 323.283 468.888 322.8C471.012 322.62 472.728 322.548 473.928 322.524C474.544 322.482 475.164 322.502 475.776 322.584Z" fill="#263238"/>
<path d="M409.56 382.464C409.432 382.29 409.327 382.101 409.248 381.9L408.456 380.232C407.772 378.78 406.848 376.632 405.744 374.004C403.512 368.724 400.668 361.332 397.644 353.124C394.62 344.916 391.836 337.524 389.724 332.184C388.692 329.592 387.84 327.468 387.204 325.884L386.532 324.168C386.439 323.97 386.374 323.76 386.34 323.544C386.468 323.718 386.573 323.907 386.652 324.108L387.444 325.776C388.116 327.228 389.052 329.376 390.156 332.004C392.388 337.284 395.232 344.676 398.256 352.884C401.28 361.092 404.064 368.484 406.176 373.824C407.208 376.416 408.06 378.54 408.684 380.124C408.96 380.808 409.188 381.324 409.368 381.84C409.461 382.038 409.526 382.248 409.56 382.464Z" fill="#263238"/>
<path d="M470.856 362.7C470.664 362.81 470.458 362.895 470.244 362.952L468.468 363.552L461.904 365.676C456.36 367.476 448.704 370.044 440.304 372.876C431.904 375.708 424.212 378.228 418.632 379.908C415.848 380.76 413.58 381.408 412.008 381.84L410.196 382.308C409.985 382.375 409.768 382.419 409.548 382.44C409.74 382.33 409.946 382.245 410.16 382.188L411.936 381.588L418.5 379.464C424.044 377.664 431.7 375.096 440.1 372.264C448.5 369.432 456.18 366.912 461.76 365.232C464.556 364.38 466.812 363.732 468.396 363.3L470.208 362.832C470.419 362.765 470.636 362.721 470.856 362.7Z" fill="#263238"/>
<path d="M445.848 71.616L439.668 73.824L437.016 65.748C432.144 50.856 416.616 42.948 402.348 47.976C388.08 53.004 380.484 69.336 385.356 84.228L388.008 92.304L381.804 94.524C379.438 95.4416 377.517 97.2355 376.44 99.5329C375.363 101.83 375.212 104.455 376.02 106.86L393.216 159.408C393.573 160.599 394.166 161.706 394.959 162.663C395.752 163.62 396.729 164.408 397.833 164.98C398.937 165.552 400.144 165.896 401.384 165.993C402.623 166.089 403.869 165.935 405.048 165.54L469.092 142.632C471.489 141.716 473.437 139.906 474.527 137.583C475.617 135.26 475.764 132.605 474.936 130.176L457.728 77.628C457.362 76.4405 456.76 75.339 455.959 74.3892C455.158 73.4393 454.173 72.6606 453.065 72.0995C451.956 71.5384 450.745 71.2065 449.505 71.1234C448.266 71.0403 447.022 71.2078 445.848 71.616ZM397.032 80.016C395.718 76.1439 395.954 71.9136 397.69 68.2114C399.426 64.5093 402.527 61.6225 406.344 60.156C408.229 59.5112 410.224 59.2526 412.211 59.3957C414.198 59.5388 416.135 60.0806 417.908 60.9889C419.681 61.8972 421.253 63.1532 422.53 64.6822C423.807 66.2111 424.762 67.9816 425.34 69.888L427.98 77.964L399.672 88.092L397.032 80.016ZM433.032 126.648L437.424 140.064C437.505 140.333 437.479 140.623 437.351 140.873C437.224 141.123 437.005 141.315 436.74 141.408L430.584 143.604C430.339 143.672 430.077 143.642 429.854 143.522C429.63 143.401 429.462 143.198 429.384 142.956L424.956 129.6C422.514 129.467 420.172 128.591 418.242 127.09C416.311 125.589 414.886 123.534 414.156 121.2C413.112 118.115 413.303 114.745 414.687 111.797C416.072 108.849 418.543 106.551 421.584 105.384C423.085 104.871 424.675 104.666 426.257 104.78C427.84 104.894 429.383 105.326 430.795 106.049C432.207 106.773 433.459 107.773 434.476 108.99C435.493 110.208 436.255 111.618 436.716 113.136C437.488 115.507 437.552 118.051 436.9 120.457C436.247 122.864 434.908 125.028 433.044 126.684L433.032 126.648Z" fill="#90CAF9"/>
<path d="M439.392 73.68C439.392 73.848 427.932 78.156 413.676 83.28C399.42 88.404 387.792 92.52 387.732 92.4C387.672 92.28 399.192 87.936 413.46 82.8C427.728 77.664 439.332 73.524 439.392 73.68Z" fill="#263238"/>
<path d="M453 75.888C453.053 75.9921 453.097 76.1005 453.132 76.212C453.228 76.452 453.336 76.764 453.48 77.148C453.792 78.024 454.224 79.236 454.764 80.748L459.372 94.164C461.292 99.852 463.584 106.596 466.128 114.084C467.328 117.84 468.744 121.752 470.064 125.868C470.771 127.989 471.076 130.223 470.964 132.456C470.862 133.617 470.532 134.747 469.992 135.78C469.415 136.81 468.645 137.718 467.724 138.456C465.87 139.809 463.812 140.858 461.628 141.564L455.448 143.784L443.748 147.972L423.936 155.028L410.556 159.732L406.956 160.932L405.996 161.244C405.893 161.29 405.784 161.318 405.672 161.328C405.672 161.328 405.768 161.328 405.972 161.184L406.908 160.812L410.508 159.456L423.816 154.56L443.592 147.36L455.268 143.136L461.448 140.904C463.57 140.227 465.568 139.21 467.364 137.892C468.221 137.207 468.938 136.364 469.476 135.408C469.984 134.453 470.291 133.403 470.376 132.324C470.486 130.173 470.193 128.02 469.512 125.976C468.216 121.896 466.848 117.948 465.612 114.192C463.116 106.692 460.812 99.924 458.988 94.236C457.164 88.548 455.628 83.976 454.572 80.76C454.068 79.188 453.684 77.964 453.372 77.076L453.084 76.116C453.048 76.0433 453.02 75.9668 453 75.888Z" fill="#263238"/>
<path d="M419.208 59.34C419.208 59.34 418.572 59.028 417.396 58.548C415.72 57.9039 413.947 57.5469 412.152 57.492C409.492 57.4008 406.844 57.9008 404.4 58.956C401.428 60.27 398.887 62.3953 397.068 65.088C395.237 67.773 394.255 70.9461 394.248 74.196C394.273 76.8597 394.677 79.5062 395.448 82.056C396.072 84.24 396.72 85.98 397.152 87.192C397.407 87.8076 397.615 88.4414 397.776 89.088C397.435 88.5124 397.15 87.9057 396.924 87.276C396.432 86.076 395.724 84.372 395.028 82.176C394.174 79.5994 393.709 76.9098 393.648 74.196C393.616 70.8233 394.621 67.5223 396.528 64.74C398.41 61.9489 401.055 59.7579 404.148 58.428C406.668 57.367 409.398 56.899 412.128 57.06C413.962 57.1535 415.763 57.5804 417.444 58.32C417.893 58.5273 418.327 58.768 418.74 59.04C418.911 59.115 419.069 59.2162 419.208 59.34Z" fill="#263238"/>
<path d="M419.76 106.296C419.952 106.18 420.152 106.08 420.36 105.996C420.961 105.725 421.583 105.504 422.22 105.336C423.231 105.037 424.275 104.86 425.328 104.808C426.761 104.731 428.194 104.947 429.54 105.444C432.612 106.524 435.432 109.656 436.824 113.844C437.492 116.091 437.492 118.485 436.824 120.732C436.084 123.171 434.757 125.392 432.96 127.2L433.032 126.876C434.628 131.256 436.368 136.008 438.168 140.964L438.276 141.264L437.976 141.372L435.228 142.284L429.228 144.288L428.928 144.384L428.832 144.084C427.188 139.116 425.388 134.484 424.032 129.936L424.296 130.14C421.95 129.945 419.713 129.065 417.864 127.608C416.191 126.319 414.819 124.681 413.844 122.808C412.964 121.147 412.526 119.287 412.572 117.408C412.628 115.487 413.107 113.603 413.976 111.889C414.846 110.176 416.083 108.675 417.6 107.496C418.224 106.989 418.925 106.584 419.676 106.296C418.998 106.698 418.341 107.135 417.708 107.604C416.042 109.014 414.765 110.828 414 112.872C413.343 114.414 413.036 116.081 413.101 117.756C413.165 119.43 413.599 121.069 414.372 122.556C415.331 124.358 416.67 125.93 418.296 127.164C420.06 128.549 422.193 129.383 424.428 129.564H424.632L424.692 129.744C426.012 134.208 427.824 138.876 429.492 143.868L429.096 143.676L435.096 141.672L437.832 140.748L437.64 141.156C435.852 136.2 434.124 131.436 432.54 127.056V126.876L432.684 126.732C434.429 124.999 435.729 122.871 436.476 120.528C437.112 118.378 437.112 116.09 436.476 113.94C435.168 109.908 432.468 106.848 429.54 105.768C428.244 105.268 426.86 105.036 425.472 105.084C424.435 105.108 423.405 105.249 422.4 105.504C420.612 105.948 419.772 106.356 419.76 106.296Z" fill="#263238"/>
<path d="M382.668 452.784L262.8 452.232C255.878 452.194 249.254 449.41 244.382 444.491C239.511 439.573 236.791 432.922 236.82 426L238.092 125.508C238.106 122.078 238.796 118.685 240.122 115.523C241.449 112.36 243.385 109.489 245.821 107.076C248.258 104.662 251.146 102.752 254.32 101.454C257.495 100.157 260.894 99.4986 264.324 99.516L384.18 100.068C391.102 100.103 397.728 102.884 402.601 107.8C407.475 112.716 410.198 119.366 410.172 126.288L408.9 426.768C408.886 430.199 408.196 433.593 406.87 436.757C405.544 439.921 403.608 442.793 401.172 445.209C398.736 447.625 395.848 449.537 392.673 450.837C389.499 452.137 386.099 452.798 382.668 452.784Z" fill="#455A64"/>
<path d="M384 110.4H360.768C360.01 110.414 359.262 110.577 358.567 110.88C357.872 111.184 357.244 111.621 356.718 112.167C356.192 112.713 355.779 113.357 355.502 114.063C355.225 114.769 355.09 115.522 355.104 116.28V120.492C355.118 121.249 354.983 122.002 354.706 122.707C354.429 123.412 354.015 124.056 353.489 124.601C352.963 125.146 352.335 125.582 351.64 125.884C350.945 126.186 350.197 126.348 349.44 126.36L304.152 126.156C302.62 126.115 301.167 125.468 300.111 124.356C299.056 123.245 298.485 121.76 298.524 120.228V116.016C298.563 114.486 297.993 113.003 296.941 111.892C295.888 110.781 294.438 110.132 292.908 110.088H284.736L264.396 109.992C259.558 109.963 254.906 111.853 251.458 115.246C248.01 118.64 246.048 123.262 246 128.1L244.8 421.404C244.789 423.804 245.251 426.183 246.159 428.404C247.067 430.626 248.404 432.647 250.093 434.352C251.783 436.057 253.791 437.412 256.004 438.341C258.218 439.269 260.592 439.753 262.992 439.764L382.608 440.316C385.01 440.327 387.39 439.865 389.613 438.956C391.836 438.047 393.858 436.709 395.564 435.019C397.27 433.329 398.627 431.319 399.556 429.104C400.485 426.89 400.969 424.514 400.98 422.112L402.18 128.808C402.209 123.957 400.31 119.292 396.901 115.84C393.492 112.389 388.851 110.432 384 110.4Z" fill="white"/>
<path d="M367.908 401.184L278.964 400.8C278.04 400.8 277.296 399.792 277.308 398.568L277.404 375.3C277.404 374.1 278.16 373.068 279.084 373.068L368.028 373.476C368.54 373.565 368.998 373.847 369.307 374.265C369.615 374.684 369.75 375.205 369.684 375.72L369.6 398.964C369.6 400.2 368.832 401.196 367.908 401.184Z" fill="#90CAF9"/>
<path d="M307.058 383.546C307.023 383.253 306.883 383.026 306.637 382.865C306.39 382.703 306.088 382.622 305.73 382.622C305.468 382.622 305.239 382.664 305.043 382.749C304.848 382.834 304.696 382.95 304.586 383.098C304.479 383.247 304.425 383.415 304.425 383.604C304.425 383.762 304.462 383.897 304.537 384.011C304.614 384.123 304.713 384.216 304.832 384.291C304.951 384.364 305.076 384.425 305.207 384.473C305.338 384.519 305.458 384.557 305.568 384.585L306.169 384.747C306.323 384.788 306.494 384.843 306.683 384.915C306.873 384.986 307.055 385.083 307.229 385.206C307.404 385.328 307.548 385.484 307.662 385.674C307.775 385.865 307.832 386.099 307.832 386.376C307.832 386.695 307.748 386.984 307.581 387.242C307.415 387.5 307.173 387.705 306.853 387.857C306.536 388.009 306.15 388.085 305.695 388.085C305.272 388.085 304.905 388.017 304.595 387.88C304.287 387.743 304.045 387.553 303.867 387.308C303.692 387.064 303.593 386.78 303.57 386.457H304.309C304.328 386.68 304.404 386.865 304.534 387.011C304.667 387.155 304.835 387.263 305.037 387.334C305.241 387.404 305.46 387.438 305.695 387.438C305.969 387.438 306.214 387.394 306.432 387.306C306.649 387.215 306.821 387.09 306.948 386.93C307.075 386.768 307.139 386.58 307.139 386.364C307.139 386.168 307.084 386.008 306.974 385.885C306.865 385.762 306.72 385.662 306.541 385.585C306.362 385.508 306.169 385.44 305.961 385.382L305.233 385.175C304.771 385.042 304.405 384.852 304.136 384.606C303.866 384.359 303.732 384.037 303.732 383.638C303.732 383.307 303.821 383.019 304 382.772C304.181 382.524 304.424 382.331 304.728 382.195C305.034 382.056 305.376 381.987 305.753 381.987C306.134 381.987 306.473 382.055 306.769 382.192C307.066 382.326 307.301 382.511 307.474 382.746C307.649 382.981 307.742 383.248 307.751 383.546H307.058ZM309.726 382.068V387.981H309.009V382.068H309.726ZM315.851 382.068V387.981H315.158L311.935 383.338H311.877V387.981H311.161V382.068H311.854L315.088 386.722H315.146V382.068H315.851ZM321.326 383.916C321.263 383.721 321.179 383.547 321.075 383.393C320.973 383.237 320.851 383.104 320.708 382.994C320.568 382.885 320.408 382.801 320.229 382.743C320.05 382.686 319.854 382.657 319.64 382.657C319.289 382.657 318.971 382.747 318.684 382.928C318.397 383.109 318.169 383.376 318 383.728C317.83 384.08 317.746 384.512 317.746 385.024C317.746 385.536 317.831 385.969 318.003 386.321C318.174 386.673 318.406 386.94 318.699 387.121C318.991 387.302 319.32 387.392 319.686 387.392C320.025 387.392 320.323 387.32 320.581 387.176C320.841 387.029 321.043 386.823 321.188 386.558C321.334 386.29 321.407 385.975 321.407 385.613L321.626 385.66H319.848V385.024H322.1V385.66C322.1 386.147 321.996 386.57 321.788 386.93C321.582 387.29 321.297 387.569 320.933 387.768C320.572 387.964 320.156 388.062 319.686 388.062C319.162 388.062 318.702 387.939 318.306 387.692C317.911 387.446 317.603 387.096 317.382 386.641C317.162 386.187 317.053 385.648 317.053 385.024C317.053 384.557 317.115 384.136 317.24 383.763C317.367 383.387 317.546 383.068 317.777 382.804C318.008 382.54 318.282 382.338 318.597 382.198C318.913 382.057 319.261 381.987 319.64 381.987C319.952 381.987 320.242 382.034 320.512 382.128C320.783 382.221 321.025 382.352 321.237 382.524C321.45 382.693 321.628 382.896 321.771 383.133C321.913 383.368 322.011 383.629 322.065 383.916H321.326ZM329.494 382.068H330.21V385.983C330.21 386.387 330.115 386.748 329.924 387.066C329.736 387.382 329.469 387.631 329.125 387.814C328.78 387.995 328.376 388.085 327.912 388.085C327.448 388.085 327.044 387.995 326.699 387.814C326.355 387.631 326.087 387.382 325.896 387.066C325.708 386.748 325.613 386.387 325.613 385.983V382.068H326.33V385.925C326.33 386.214 326.393 386.471 326.52 386.696C326.647 386.92 326.828 387.096 327.063 387.225C327.3 387.352 327.583 387.415 327.912 387.415C328.241 387.415 328.524 387.352 328.761 387.225C328.998 387.096 329.179 386.92 329.304 386.696C329.431 386.471 329.494 386.214 329.494 385.925V382.068ZM331.64 387.981V382.068H333.639C334.103 382.068 334.482 382.151 334.776 382.319C335.073 382.484 335.292 382.709 335.435 382.992C335.577 383.275 335.648 383.59 335.648 383.939C335.648 384.287 335.577 384.604 335.435 384.889C335.294 385.174 335.077 385.401 334.782 385.57C334.488 385.738 334.11 385.821 333.65 385.821H332.218V385.186H333.627C333.945 385.186 334.2 385.131 334.392 385.022C334.585 384.912 334.724 384.764 334.811 384.577C334.899 384.388 334.944 384.175 334.944 383.939C334.944 383.702 334.899 383.49 334.811 383.303C334.724 383.117 334.584 382.97 334.389 382.865C334.195 382.757 333.937 382.703 333.615 382.703H332.357V387.981H331.64Z" fill="#E8E8E3"/>
<path d="M296.705 196.62L265.841 196.48L265.816 202.144L296.679 202.284L296.705 196.62Z" fill="#90CAF9"/>
<path opacity="0.1" d="M296.705 196.62L265.841 196.48L265.816 202.144L296.679 202.284L296.705 196.62Z" fill="black"/>
<path d="M387.18 231.396C387.422 231.372 387.66 231.315 387.888 231.228C388.22 231.098 388.509 230.877 388.721 230.591C388.933 230.304 389.061 229.964 389.088 229.608C389.088 227.7 389.088 224.916 389.088 221.34C389.088 219.552 389.088 217.548 389.088 215.34C389.088 214.8 389.088 214.236 389.088 213.672C389.166 213.125 389.047 212.567 388.752 212.1C388.587 211.876 388.372 211.693 388.124 211.566C387.876 211.439 387.602 211.371 387.324 211.368H385.452H368.112L267.744 210.996C267.487 210.992 267.233 211.049 267.003 211.164C266.773 211.279 266.575 211.448 266.424 211.656C266.134 212.125 266.023 212.684 266.112 213.228C266.112 214.428 266.112 215.628 266.112 216.828C266.112 219.228 266.112 221.628 266.112 224.028C266.112 225.228 266.112 226.428 266.112 227.628C266.062 228.187 266.062 228.749 266.112 229.308C266.175 229.548 266.292 229.77 266.454 229.957C266.617 230.144 266.82 230.292 267.048 230.388C267.284 230.482 267.538 230.527 267.792 230.52H273.9L300.552 230.664L345.672 230.94L376.092 231.18L384.36 231.276H386.508C387 231.276 387.24 231.276 387.24 231.276H386.508H384.36H376.092H345.672L300.552 231.132L273.9 231.024H267.792C267.456 231.038 267.121 230.98 266.808 230.856C266.492 230.721 266.211 230.516 265.986 230.256C265.762 229.996 265.6 229.688 265.512 229.356C265.443 229.041 265.418 228.718 265.44 228.396V227.508C265.44 226.308 265.44 225.108 265.44 223.908C265.44 221.508 265.44 219.108 265.44 216.708C265.44 215.508 265.44 214.308 265.44 213.108C265.417 212.788 265.417 212.468 265.44 212.148C265.485 211.795 265.622 211.46 265.836 211.176C266.043 210.886 266.317 210.651 266.635 210.49C266.952 210.329 267.304 210.248 267.66 210.252L368.028 210.804L385.368 210.924H387.24C387.57 210.924 387.895 211.004 388.187 211.157C388.48 211.309 388.731 211.53 388.92 211.8C389.258 212.322 389.395 212.949 389.304 213.564C389.304 214.128 389.304 214.692 389.304 215.232C389.304 217.416 389.304 219.42 389.304 221.232C389.304 224.832 389.22 227.592 389.196 229.512C389.167 229.881 389.033 230.234 388.809 230.53C388.586 230.825 388.283 231.051 387.936 231.18C387.709 231.321 387.447 231.396 387.18 231.396Z" fill="#E0E0E0"/>
<path d="M331.56 217.02H275.112V222.312H331.56V217.02Z" fill="#90CAF9"/>
<path opacity="0.2" d="M331.56 217.02H275.112V222.312H331.56V217.02Z" fill="white"/>
<path d="M296.494 248.291L265.631 248.151L265.605 253.815L296.469 253.955L296.494 248.291Z" fill="#90CAF9"/>
<path opacity="0.1" d="M296.494 248.291L265.631 248.151L265.605 253.815L296.469 253.955L296.494 248.291Z" fill="black"/>
<path d="M386.4 283.068C386.642 283.038 386.883 282.994 387.12 282.936C387.455 282.829 387.764 282.652 388.024 282.416C388.285 282.18 388.492 281.891 388.632 281.568C388.821 281.084 388.895 280.562 388.848 280.044C388.848 279.468 388.848 278.844 388.848 278.148C388.848 276.756 388.848 275.172 388.848 273.348V265.728C388.905 265.176 388.783 264.621 388.5 264.144C388.204 263.655 387.738 263.292 387.192 263.124C386.594 263.017 385.986 262.985 385.38 263.028H368.112L268.092 262.656C267.554 262.657 267.035 262.854 266.631 263.209C266.227 263.565 265.966 264.055 265.896 264.588C265.896 265.728 265.896 266.988 265.896 268.188C265.896 270.588 265.896 272.988 265.896 275.388C265.896 276.588 265.896 277.788 265.896 278.988C265.851 279.549 265.875 280.113 265.968 280.668C266.118 281.155 266.426 281.577 266.844 281.868C267.287 282.149 267.808 282.284 268.332 282.252H270H273.468L300.024 282.384L344.988 282.66L375.3 282.9L383.544 282.996H375.3H344.988L300 282.948L273.444 282.852H268.224C267.575 282.89 266.931 282.718 266.388 282.36C265.842 281.982 265.443 281.426 265.26 280.788C265.152 280.178 265.12 279.558 265.164 278.94C265.164 277.74 265.164 276.54 265.164 275.34C265.164 272.94 265.164 270.54 265.164 268.14C265.164 266.94 265.164 265.74 265.164 264.54C265.252 263.854 265.586 263.223 266.105 262.766C266.624 262.309 267.292 262.056 267.984 262.056L368.004 262.608L385.272 262.74C385.915 262.701 386.56 262.745 387.192 262.872C387.815 263.076 388.341 263.503 388.668 264.072C388.978 264.601 389.113 265.214 389.052 265.824C389.052 266.388 389.052 266.94 389.052 267.492C389.052 269.664 389.052 271.656 389.052 273.492C389.052 275.328 389.052 276.876 389.052 278.292C389.052 278.976 389.052 279.612 389.052 280.2C389.096 280.737 389.009 281.276 388.8 281.772C388.644 282.103 388.419 282.397 388.139 282.633C387.86 282.869 387.533 283.042 387.18 283.14C386.918 283.162 386.654 283.137 386.4 283.068Z" fill="#E0E0E0"/>
<path d="M296.262 302.205L265.398 302.065L265.372 307.729L296.236 307.869L296.262 302.205Z" fill="#90CAF9"/>
<path opacity="0.1" d="M296.262 302.205L265.398 302.065L265.372 307.729L296.236 307.869L296.262 302.205Z" fill="black"/>
<path d="M386.16 336.96C386.403 336.931 386.643 336.887 386.88 336.828C387.214 336.722 387.521 336.546 387.782 336.312C388.042 336.079 388.25 335.792 388.392 335.472C388.58 334.987 388.654 334.466 388.608 333.948C388.608 333.36 388.608 332.748 388.608 332.04C388.608 330.66 388.608 329.064 388.608 327.24V319.62C388.665 319.068 388.543 318.513 388.26 318.036C387.957 317.556 387.493 317.199 386.952 317.028C386.355 316.917 385.746 316.881 385.14 316.92H367.872L267.852 316.548C267.314 316.549 266.795 316.746 266.391 317.101C265.987 317.457 265.726 317.947 265.656 318.48C265.656 319.68 265.656 320.88 265.656 322.08C265.656 324.48 265.656 326.88 265.656 329.28C265.656 330.48 265.656 331.68 265.656 332.88C265.611 333.437 265.635 333.997 265.728 334.548C265.872 335.038 266.181 335.462 266.604 335.748C267.045 336.036 267.567 336.171 268.092 336.132H273.312L299.868 336.276L344.832 336.552L375.144 336.792L383.388 336.888H375.144H344.832L299.868 336.756L273.312 336.648H268.092C267.442 336.692 266.797 336.519 266.256 336.156C265.71 335.778 265.311 335.222 265.128 334.584C265.02 333.974 264.988 333.354 265.032 332.736C265.032 331.536 265.032 330.336 265.032 329.136C265.032 326.736 265.032 324.336 265.032 321.936C265.032 320.736 265.032 319.536 265.032 318.276C265.117 317.591 265.449 316.96 265.966 316.503C266.483 316.045 267.15 315.793 267.84 315.792L367.86 316.344L385.128 316.476C385.771 316.437 386.416 316.481 387.048 316.608C387.671 316.812 388.197 317.239 388.524 317.808C388.834 318.337 388.969 318.95 388.908 319.56C388.908 320.124 388.908 320.688 388.908 321.228C388.908 323.4 388.908 325.392 388.908 327.228C388.908 329.064 388.908 330.612 388.908 332.028C388.908 332.712 388.908 333.348 388.908 333.936C388.954 334.473 388.868 335.013 388.656 335.508C388.5 335.839 388.275 336.133 387.995 336.369C387.716 336.605 387.389 336.778 387.036 336.876C386.755 336.972 386.455 337.001 386.16 336.96Z" fill="#E0E0E0"/>
<path d="M330.355 270.188L273.908 269.932L273.884 275.224L330.331 275.48L330.355 270.188Z" fill="#90CAF9"/>
<path opacity="0.2" d="M330.355 270.188L273.908 269.932L273.884 275.224L330.331 275.48L330.355 270.188Z" fill="white"/>
<path d="M279.012 327.168C278.977 327.651 278.8 328.112 278.505 328.496C278.209 328.879 277.808 329.167 277.35 329.325C276.893 329.482 276.399 329.502 275.93 329.381C275.461 329.26 275.038 329.005 274.714 328.646C274.389 328.287 274.177 327.841 274.103 327.362C274.03 326.884 274.098 326.394 274.301 325.955C274.503 325.515 274.829 325.144 275.24 324.888C275.651 324.633 276.128 324.503 276.612 324.516C277.281 324.553 277.907 324.853 278.357 325.349C278.806 325.845 279.041 326.499 279.012 327.168Z" fill="#90CAF9"/>
<path d="M286.656 327.204C286.68 327.542 286.633 327.882 286.52 328.202C286.407 328.521 286.229 328.814 285.998 329.062C285.766 329.31 285.487 329.508 285.176 329.643C284.865 329.778 284.529 329.848 284.19 329.848C283.851 329.848 283.515 329.778 283.204 329.643C282.893 329.508 282.613 329.31 282.382 329.062C282.151 328.814 281.973 328.521 281.86 328.202C281.747 327.882 281.7 327.542 281.724 327.204C281.7 326.866 281.747 326.526 281.86 326.207C281.973 325.887 282.151 325.594 282.382 325.346C282.613 325.098 282.893 324.9 283.204 324.765C283.515 324.63 283.851 324.56 284.19 324.56C284.529 324.56 284.865 324.63 285.176 324.765C285.487 324.9 285.766 325.098 285.998 325.346C286.229 325.594 286.407 325.887 286.52 326.207C286.633 326.526 286.68 326.866 286.656 327.204Z" fill="#90CAF9"/>
<path d="M294.312 327.24C294.277 327.723 294.1 328.184 293.805 328.568C293.51 328.951 293.108 329.239 292.65 329.397C292.193 329.554 291.699 329.574 291.23 329.453C290.761 329.332 290.339 329.077 290.014 328.718C289.689 328.359 289.477 327.913 289.403 327.434C289.33 326.956 289.398 326.466 289.601 326.027C289.803 325.587 290.129 325.216 290.54 324.96C290.951 324.705 291.428 324.575 291.912 324.588C292.579 324.628 293.204 324.928 293.653 325.424C294.102 325.92 294.338 326.572 294.312 327.24Z" fill="#90CAF9"/>
<path d="M301.956 327.276C301.921 327.759 301.744 328.22 301.449 328.604C301.153 328.987 300.752 329.275 300.294 329.433C299.837 329.59 299.343 329.61 298.874 329.489C298.405 329.368 297.983 329.113 297.658 328.754C297.333 328.395 297.121 327.949 297.047 327.47C296.974 326.992 297.042 326.502 297.245 326.063C297.447 325.623 297.773 325.252 298.184 324.996C298.595 324.741 299.072 324.611 299.556 324.624C300.223 324.664 300.848 324.964 301.297 325.46C301.746 325.956 301.982 326.608 301.956 327.276Z" fill="#90CAF9"/>
<path d="M309.6 327.3C309.567 327.783 309.392 328.246 309.098 328.632C308.804 329.017 308.403 329.307 307.946 329.466C307.488 329.625 306.994 329.646 306.524 329.527C306.055 329.407 305.631 329.153 305.305 328.794C304.979 328.435 304.765 327.989 304.691 327.51C304.617 327.031 304.685 326.541 304.887 326.101C305.089 325.66 305.416 325.289 305.827 325.033C306.238 324.777 306.716 324.647 307.2 324.66C307.865 324.7 308.489 324.999 308.937 325.492C309.385 325.985 309.623 326.634 309.6 327.3Z" fill="#90CAF9"/>
<path d="M317.256 327.336C317.223 327.817 317.051 328.278 316.759 328.662C316.468 329.046 316.071 329.336 315.617 329.498C315.162 329.659 314.671 329.684 314.203 329.569C313.734 329.455 313.31 329.206 312.981 328.853C312.653 328.501 312.434 328.06 312.353 327.584C312.272 327.109 312.331 326.621 312.524 326.179C312.717 325.737 313.035 325.361 313.438 325.098C313.842 324.834 314.314 324.695 314.796 324.696C315.472 324.721 316.11 325.013 316.571 325.508C317.033 326.003 317.279 326.66 317.256 327.336Z" fill="#90CAF9"/>
<path d="M324.9 327.372C324.924 327.71 324.877 328.05 324.764 328.37C324.651 328.689 324.473 328.982 324.242 329.23C324.01 329.478 323.731 329.676 323.42 329.811C323.109 329.946 322.773 330.016 322.434 330.016C322.095 330.016 321.759 329.946 321.448 329.811C321.137 329.676 320.857 329.478 320.626 329.23C320.395 328.982 320.217 328.689 320.104 328.37C319.991 328.05 319.944 327.71 319.968 327.372C319.944 327.034 319.991 326.694 320.104 326.374C320.217 326.055 320.395 325.762 320.626 325.514C320.857 325.266 321.137 325.068 321.448 324.933C321.759 324.798 322.095 324.728 322.434 324.728C322.773 324.728 323.109 324.798 323.42 324.933C323.731 325.068 324.01 325.266 324.242 325.514C324.473 325.762 324.651 326.055 324.764 326.374C324.877 326.694 324.924 327.034 324.9 327.372Z" fill="#90CAF9"/>
<path d="M332.544 327.408C332.511 327.889 332.339 328.35 332.047 328.734C331.756 329.118 331.359 329.408 330.905 329.57C330.45 329.731 329.959 329.756 329.491 329.641C329.022 329.527 328.598 329.278 328.269 328.925C327.941 328.573 327.722 328.132 327.641 327.656C327.56 327.181 327.619 326.693 327.812 326.251C328.005 325.809 328.323 325.433 328.726 325.17C329.13 324.906 329.602 324.767 330.084 324.768C330.76 324.793 331.398 325.085 331.859 325.58C332.321 326.075 332.567 326.732 332.544 327.408Z" fill="#90CAF9"/>
<path d="M340.188 327.444C340.155 327.927 339.98 328.39 339.686 328.776C339.392 329.161 338.992 329.451 338.534 329.61C338.076 329.769 337.582 329.79 337.112 329.671C336.643 329.551 336.219 329.296 335.893 328.938C335.567 328.579 335.353 328.133 335.279 327.654C335.205 327.175 335.273 326.685 335.475 326.245C335.677 325.804 336.004 325.433 336.415 325.177C336.826 324.921 337.304 324.791 337.788 324.804C338.453 324.844 339.077 325.143 339.525 325.636C339.973 326.129 340.211 326.778 340.188 327.444Z" fill="#90CAF9"/>
<g opacity="0.2">
<path d="M279.012 327.168C278.977 327.651 278.8 328.112 278.505 328.496C278.209 328.879 277.808 329.167 277.35 329.325C276.893 329.482 276.399 329.502 275.93 329.381C275.461 329.26 275.038 329.005 274.714 328.646C274.389 328.287 274.177 327.841 274.103 327.362C274.03 326.884 274.098 326.394 274.301 325.955C274.503 325.515 274.829 325.144 275.24 324.888C275.651 324.633 276.128 324.503 276.612 324.516C277.281 324.553 277.907 324.853 278.357 325.349C278.806 325.845 279.041 326.499 279.012 327.168Z" fill="white"/>
<path d="M286.656 327.204C286.68 327.542 286.633 327.882 286.52 328.201C286.407 328.521 286.229 328.814 285.998 329.062C285.766 329.31 285.487 329.508 285.176 329.643C284.865 329.778 284.529 329.848 284.19 329.848C283.851 329.848 283.515 329.778 283.204 329.643C282.893 329.508 282.613 329.31 282.382 329.062C282.151 328.814 281.973 328.521 281.86 328.201C281.747 327.882 281.7 327.542 281.724 327.204C281.7 326.866 281.747 326.526 281.86 326.206C281.973 325.887 282.151 325.594 282.382 325.346C282.613 325.098 282.893 324.9 283.204 324.765C283.515 324.63 283.851 324.56 284.19 324.56C284.529 324.56 284.865 324.63 285.176 324.765C285.487 324.9 285.766 325.098 285.998 325.346C286.229 325.594 286.407 325.887 286.52 326.206C286.633 326.526 286.68 326.866 286.656 327.204Z" fill="white"/>
<path d="M294.312 327.24C294.277 327.723 294.1 328.184 293.805 328.568C293.509 328.951 293.108 329.239 292.65 329.397C292.193 329.554 291.699 329.574 291.23 329.453C290.761 329.332 290.338 329.077 290.014 328.718C289.689 328.359 289.477 327.913 289.403 327.434C289.33 326.956 289.398 326.466 289.601 326.027C289.803 325.587 290.129 325.216 290.54 324.96C290.951 324.705 291.428 324.575 291.912 324.588C292.579 324.628 293.204 324.928 293.653 325.424C294.102 325.92 294.338 326.572 294.312 327.24Z" fill="white"/>
<path d="M301.956 327.276C301.921 327.759 301.744 328.22 301.449 328.604C301.153 328.987 300.752 329.275 300.294 329.433C299.837 329.59 299.343 329.61 298.874 329.489C298.405 329.368 297.983 329.113 297.658 328.754C297.333 328.395 297.121 327.949 297.047 327.47C296.974 326.992 297.042 326.502 297.245 326.063C297.447 325.623 297.773 325.252 298.184 324.996C298.595 324.741 299.072 324.611 299.556 324.624C300.223 324.664 300.848 324.964 301.297 325.46C301.746 325.956 301.982 326.608 301.956 327.276Z" fill="white"/>
<path d="M309.6 327.3C309.567 327.783 309.392 328.246 309.098 328.632C308.804 329.017 308.403 329.307 307.946 329.466C307.488 329.625 306.994 329.646 306.524 329.527C306.055 329.407 305.631 329.152 305.305 328.794C304.979 328.435 304.765 327.989 304.691 327.51C304.617 327.031 304.685 326.541 304.887 326.101C305.089 325.66 305.416 325.289 305.827 325.033C306.238 324.777 306.716 324.647 307.2 324.66C307.865 324.7 308.489 324.999 308.937 325.492C309.385 325.985 309.623 326.634 309.6 327.3Z" fill="white"/>
<path d="M317.256 327.336C317.223 327.817 317.051 328.278 316.759 328.662C316.468 329.046 316.071 329.336 315.617 329.498C315.162 329.659 314.671 329.684 314.203 329.569C313.734 329.455 313.31 329.206 312.981 328.853C312.653 328.501 312.434 328.06 312.353 327.584C312.272 327.109 312.331 326.621 312.524 326.179C312.717 325.737 313.035 325.361 313.438 325.098C313.842 324.834 314.314 324.695 314.796 324.696C315.472 324.721 316.11 325.013 316.571 325.508C317.033 326.003 317.279 326.66 317.256 327.336Z" fill="white"/>
<path d="M324.9 327.372C324.924 327.71 324.877 328.05 324.764 328.37C324.651 328.689 324.473 328.982 324.242 329.23C324.01 329.478 323.731 329.676 323.42 329.811C323.109 329.946 322.773 330.016 322.434 330.016C322.095 330.016 321.759 329.946 321.448 329.811C321.137 329.676 320.857 329.478 320.626 329.23C320.395 328.982 320.217 328.689 320.104 328.37C319.991 328.05 319.944 327.71 319.968 327.372C319.944 327.034 319.991 326.694 320.104 326.374C320.217 326.055 320.395 325.762 320.626 325.514C320.857 325.266 321.137 325.068 321.448 324.933C321.759 324.798 322.095 324.728 322.434 324.728C322.773 324.728 323.109 324.798 323.42 324.933C323.731 325.068 324.01 325.266 324.242 325.514C324.473 325.762 324.651 326.055 324.764 326.374C324.877 326.694 324.924 327.034 324.9 327.372Z" fill="white"/>
<path d="M332.544 327.408C332.511 327.889 332.339 328.35 332.047 328.734C331.756 329.118 331.359 329.408 330.905 329.57C330.45 329.731 329.959 329.756 329.491 329.641C329.022 329.527 328.598 329.278 328.269 328.925C327.941 328.573 327.722 328.132 327.641 327.656C327.56 327.181 327.619 326.693 327.812 326.251C328.005 325.809 328.323 325.433 328.726 325.17C329.13 324.906 329.602 324.767 330.084 324.768C330.76 324.793 331.398 325.085 331.859 325.58C332.321 326.075 332.567 326.732 332.544 327.408Z" fill="white"/>
<path d="M340.188 327.444C340.155 327.927 339.98 328.39 339.686 328.776C339.392 329.161 338.991 329.451 338.534 329.61C338.076 329.769 337.582 329.79 337.112 329.671C336.643 329.551 336.219 329.296 335.893 328.938C335.567 328.579 335.353 328.133 335.279 327.654C335.205 327.175 335.273 326.685 335.475 326.245C335.677 325.804 336.004 325.433 336.415 325.177C336.826 324.921 337.304 324.791 337.788 324.804C338.453 324.844 339.076 325.143 339.525 325.636C339.973 326.129 340.211 326.778 340.188 327.444Z" fill="white"/>
</g>
<path d="M329.328 154.212C330.162 153.845 330.869 153.241 331.362 152.475C331.855 151.709 332.111 150.815 332.1 149.904C332.131 149.312 332.041 148.72 331.836 148.163C331.631 147.607 331.315 147.099 330.907 146.668C330.498 146.238 330.007 145.896 329.462 145.662C328.918 145.428 328.331 145.307 327.738 145.307C327.145 145.307 326.558 145.428 326.014 145.662C325.469 145.896 324.978 146.238 324.569 146.668C324.161 147.099 323.845 147.607 323.64 148.163C323.435 148.72 323.345 149.312 323.376 149.904C323.358 150.824 323.612 151.729 324.108 152.504C324.603 153.279 325.317 153.89 326.16 154.26C319.44 155.268 319.74 162.564 319.74 162.564L335.628 162.636C335.628 162.636 336 155.208 329.328 154.212Z" fill="#90CAF9"/>
<path opacity="0.1" d="M329.328 154.212C330.162 153.845 330.869 153.241 331.362 152.475C331.855 151.709 332.111 150.815 332.1 149.904C332.131 149.312 332.041 148.72 331.836 148.163C331.631 147.607 331.315 147.099 330.907 146.668C330.498 146.238 330.007 145.896 329.462 145.662C328.918 145.428 328.331 145.307 327.738 145.307C327.145 145.307 326.558 145.428 326.014 145.662C325.469 145.896 324.978 146.238 324.569 146.668C324.161 147.099 323.845 147.607 323.64 148.163C323.435 148.72 323.345 149.312 323.376 149.904C323.358 150.824 323.612 151.729 324.108 152.504C324.603 153.279 325.317 153.89 326.16 154.26C319.44 155.268 319.74 162.564 319.74 162.564L335.628 162.636C335.628 162.636 336 155.208 329.328 154.212Z" fill="black"/>
<path d="M355.145 167.342L298.518 167.085L298.487 173.853L355.115 174.11L355.145 167.342Z" fill="#90CAF9"/>
<path opacity="0.2" d="M355.145 167.342L298.518 167.085L298.487 173.853L355.115 174.11L355.145 167.342Z" fill="white"/>
<path d="M146.964 202.416H146.4L144.768 202.536C143.885 202.589 143.007 202.705 142.14 202.884C141.579 202.963 141.022 203.071 140.472 203.208L138.612 203.724C135.446 204.695 132.459 206.175 129.768 208.104C126.212 210.685 123.243 213.989 121.056 217.8C119.77 219.997 118.747 222.337 118.008 224.772C117.231 227.419 116.784 230.152 116.676 232.908C116.604 234.356 116.629 235.807 116.748 237.252C116.748 237.984 116.952 238.716 117.048 239.46C117.129 240.21 117.269 240.952 117.468 241.68C118.547 246.495 120.737 250.992 123.862 254.811C126.987 258.63 130.961 261.666 135.468 263.676C138.73 265.083 142.226 265.869 145.776 265.992C149.443 266.194 153.113 265.668 156.576 264.444L157.632 264.048H157.776L157.896 264.12L173.028 271.8L172.584 272.184C170.964 267.168 169.404 262.308 167.892 257.64V257.46L168.024 257.328C171.695 253.631 174.42 249.103 175.968 244.128C177.37 239.58 177.779 234.784 177.168 230.064C176.624 225.869 175.275 221.819 173.196 218.136C171.404 214.972 169.091 212.132 166.356 209.736C164.099 207.839 161.602 206.25 158.928 205.008C156.905 204.135 154.798 203.472 152.64 203.028L150.24 202.632L148.5 202.5L147.444 202.428H147.084C147.204 202.415 147.324 202.415 147.444 202.428H148.512L150.252 202.5L152.652 202.848C154.837 203.26 156.973 203.899 159.024 204.756C161.744 205.983 164.286 207.569 166.584 209.472C169.37 211.858 171.731 214.698 173.568 217.872C175.706 221.595 177.097 225.7 177.66 229.956C178.322 234.749 177.942 239.628 176.544 244.26C174.986 249.338 172.219 253.962 168.48 257.736L168.552 257.424C170.064 262.092 171.636 266.952 173.268 271.956L173.496 272.688L172.812 272.34L157.68 264.672H157.944L156.864 265.068C153.335 266.31 149.596 266.848 145.86 266.652C142.233 266.514 138.664 265.7 135.336 264.252C128.988 261.533 123.706 256.808 120.3 250.8C118.733 248.025 117.588 245.032 116.904 241.92C116.717 241.174 116.576 240.416 116.484 239.652C116.388 238.896 116.232 238.152 116.196 237.408C115.871 233.138 116.323 228.845 117.528 224.736C118.286 222.267 119.337 219.898 120.66 217.68C122.899 213.835 125.93 210.509 129.552 207.924C132.288 205.99 135.325 204.522 138.54 203.58L140.424 203.1C140.979 202.971 141.539 202.871 142.104 202.8C142.98 202.638 143.866 202.542 144.756 202.512L146.4 202.452C146.587 202.427 146.775 202.415 146.964 202.416Z" fill="#90CAF9"/>
<path d="M153.804 230.4H151.584L146.784 223.656V219.228C146.784 219.228 143.352 219.012 143.76 224.808C144.168 230.604 143.76 229.128 143.76 229.128C143.76 229.128 136.476 229.128 135.876 229.788C135.276 230.448 135.24 237.48 135.156 241.404C135.11 242.35 135.381 243.284 135.927 244.058C136.473 244.832 137.262 245.402 138.168 245.676C138.422 245.746 138.684 245.783 138.948 245.784C140.772 245.784 150.048 244.308 150.048 244.308H153.876L153.804 230.4Z" fill="#90CAF9"/>
<path d="M160.152 229.212L158.784 244.38H154.992V229.524L160.152 229.212Z" fill="#90CAF9"/>
<path d="M205.38 538.008V527.748L186.984 527.616L186.828 543.132L187.968 543.216C193.044 543.54 213.792 544.02 217.2 542.964C220.992 541.788 205.38 538.008 205.38 538.008Z" fill="#90CAF9"/>
<path d="M217.632 542.004C217.632 542.172 210.744 542.316 202.26 542.316C193.776 542.316 186.888 542.172 186.888 542.004C186.888 541.836 193.776 541.692 202.26 541.692C210.744 541.692 217.632 541.836 217.632 542.004Z" fill="#263238"/>
<path d="M205.704 540.108C205.548 540.024 205.704 539.484 206.076 538.908C206.448 538.332 206.952 538.092 207.072 538.212C207.192 538.332 206.94 538.788 206.58 539.28C206.22 539.772 205.86 540.192 205.704 540.108Z" fill="#263238"/>
<path d="M206.88 540.78C206.712 540.78 206.796 540.108 207.156 539.472C207.516 538.836 207.996 538.452 208.128 538.548C208.26 538.644 208.044 539.184 207.708 539.748C207.372 540.312 207.036 540.84 206.88 540.78Z" fill="#263238"/>
<path d="M192.432 541.956C192.36 541.956 192.084 541.74 191.688 541.284C191.205 540.698 190.666 540.159 190.08 539.676C189.504 539.215 188.817 538.914 188.088 538.8C187.524 538.728 187.164 538.8 187.128 538.728C187.092 538.656 187.44 538.404 188.1 538.356C188.971 538.338 189.821 538.626 190.5 539.172C191.136 539.691 191.673 540.321 192.084 541.032C192.36 541.56 192.504 541.908 192.432 541.956Z" fill="#263238"/>
<path d="M205.764 538.176C205.848 538.32 205.536 538.68 205.008 538.872C204.48 539.064 204.012 538.992 203.988 538.872C203.964 538.752 204.336 538.5 204.792 538.332C205.248 538.164 205.668 538.032 205.764 538.176Z" fill="#263238"/>
<path d="M205.476 537.18C205.476 537.36 204.996 537.504 204.372 537.516C203.748 537.528 203.256 537.384 203.268 537.216C203.28 537.048 203.772 536.892 204.372 536.88C204.972 536.868 205.452 537.012 205.476 537.18Z" fill="#263238"/>
<path d="M250.68 538.008V527.748L232.284 527.616L232.128 542.976L233.268 543.06C238.344 543.384 259.104 544.02 262.5 542.964C266.292 541.788 250.68 538.008 250.68 538.008Z" fill="#90CAF9"/>
<path d="M262.932 542.028C262.932 542.196 256.056 542.34 247.56 542.34C239.064 542.34 232.2 542.196 232.2 542.028C232.2 541.86 239.076 541.716 247.56 541.716C256.044 541.716 262.932 541.86 262.932 542.028Z" fill="#263238"/>
<path d="M251.004 540.108C250.86 540.024 251.004 539.484 251.376 538.908C251.748 538.332 252.252 538.092 252.372 538.212C252.492 538.332 252.24 538.788 251.88 539.28C251.52 539.772 251.16 540.192 251.004 540.108Z" fill="#263238"/>
<path d="M252.18 540.78C252.024 540.78 252.096 540.108 252.468 539.472C252.84 538.836 253.308 538.452 253.44 538.548C253.572 538.644 253.344 539.184 253.008 539.748C252.672 540.312 252.348 540.84 252.18 540.78Z" fill="#263238"/>
<path d="M237.732 541.956C237.66 541.956 237.396 541.74 236.988 541.284C236.505 540.698 235.966 540.159 235.38 539.676C234.804 539.215 234.117 538.914 233.388 538.8C232.836 538.728 232.464 538.8 232.428 538.728C232.392 538.656 232.74 538.404 233.4 538.356C234.271 538.338 235.121 538.626 235.8 539.172C236.44 539.687 236.977 540.318 237.384 541.032C237.66 541.56 237.804 541.908 237.732 541.956Z" fill="#263238"/>
<path d="M251.064 538.176C251.148 538.32 250.836 538.68 250.308 538.872C249.78 539.064 249.312 538.992 249.288 538.872C249.264 538.752 249.636 538.5 250.092 538.332C250.548 538.164 250.968 538.032 251.064 538.176Z" fill="#263238"/>
<path d="M250.8 537.18C250.8 537.36 250.32 537.504 249.696 537.516C249.072 537.528 248.592 537.384 248.604 537.216C248.616 537.048 249.096 536.892 249.696 536.88C250.296 536.868 250.8 537.012 250.8 537.18Z" fill="#263238"/>
<path d="M318.456 233.328C317.976 232.836 316.788 233.076 316.788 233.076C316.907 232.385 316.907 231.679 316.788 230.988C316.572 230.316 315.06 230.448 315.06 230.448C314.99 229.882 314.99 229.31 315.06 228.744C315.072 228.619 315.045 228.492 314.983 228.383C314.921 228.273 314.826 228.186 314.712 228.132C313.997 227.84 313.228 227.701 312.456 227.724C311.532 227.064 315.276 221.82 316.668 220.14C318.06 218.46 317.808 217.152 316.572 217.152C315.72 217.152 311.352 222.192 310.008 223.884C308.664 225.576 305.1 230.28 304.98 226.524C304.86 222.768 303.348 219.936 302.4 219.456C301.452 218.976 300.444 220.104 300.96 221.148C301.413 222.334 301.696 223.578 301.8 224.844C301.93 225.852 301.886 226.875 301.668 227.868C301.27 229.715 300.729 231.529 300.048 233.292H299.952C299.952 233.292 273.768 258.408 271.872 260.196C270.18 261.804 236.148 258.288 229.32 257.568C227 257.228 224.657 257.068 222.312 257.088C219.348 257.22 218.82 257.64 215.868 257.676C208.413 257.759 200.975 258.413 193.62 259.632C190.29 260.198 187.179 261.668 184.627 263.882C182.075 266.095 180.179 268.967 179.148 272.184C172.272 293.664 156.696 344.508 153.948 373.068C151.871 376.834 149.997 380.707 148.332 384.672C146.4 389.928 146.868 390.108 147.516 390.228C149.268 390.552 151.26 381.12 152.004 383.4C152.748 385.68 148.224 394.644 150.06 394.908C152.46 395.244 154.368 385.308 154.596 384.516C154.824 383.724 156.012 383.976 155.796 384.72C155.448 385.776 152.076 396.972 154.428 397.332C155.724 397.524 155.868 395.16 155.868 395.16C155.868 395.16 158.268 384.444 159.36 384.66C160.452 384.876 159.288 391.2 158.736 393.312C158.184 395.424 158.952 396.492 160.08 395.976C160.848 395.616 162.684 389.196 163.188 387.108C163.692 385.02 164.952 379.236 166.644 382.584C168.336 385.932 170.904 387.876 171.96 387.924C172.198 387.897 172.422 387.799 172.604 387.643C172.786 387.487 172.917 387.28 172.98 387.049C173.043 386.818 173.036 386.573 172.959 386.346C172.882 386.119 172.739 385.921 172.548 385.776C171.64 384.889 170.86 383.879 170.232 382.776C169.672 381.917 169.266 380.967 169.032 379.968C168.548 377.977 168.267 375.943 168.192 373.896L168 372.696C170.688 359.388 178.428 320.328 189.6 295.38L194.184 304.812L196.176 311.796L183.96 341.952L236.064 341.268L228.288 311.34L237.732 280.14C247.944 280.368 274.164 280.752 278.532 278.772C284.028 276.372 312.456 240.468 312.456 240.468C314.309 239.028 316.084 237.49 317.772 235.86C317.772 235.86 319.5 234.408 318.456 233.328Z" fill="#FFBE9D"/>
<path d="M181.668 319.668C183.18 314.508 190.944 288.996 190.944 288.996C190.944 288.996 194.76 309.792 193.752 312.3C192.825 314.447 191.729 316.518 190.476 318.492C181.668 331.896 182.82 338.604 182.82 338.604L236.04 336.984C236.16 329.544 231.756 312.24 230.844 309.48C229.932 306.72 232.968 297.684 232.968 297.684C232.968 297.684 238.968 291.576 238.752 288.432C238.638 285.608 238.289 282.798 237.708 280.032L270.108 281.232L269.088 259.272L222.552 254.616C220.932 259.188 206.28 256.944 206.28 256.944C190.464 257.472 189.48 260.376 182.904 265.488C176.328 270.6 165.444 314.472 165.444 314.472L181.668 319.668Z" fill="#90CAF9"/>
<path d="M213.132 314.472C212.21 314.637 211.27 314.685 210.336 314.616C208.596 314.616 206.208 314.496 203.58 314.232C200.952 313.968 198.576 313.596 196.884 313.26C195.951 313.14 195.036 312.906 194.16 312.564C195.098 312.564 196.034 312.653 196.956 312.828C198.66 313.044 201.024 313.344 203.64 313.608C206.256 313.872 208.632 314.052 210.348 314.172C211.283 314.184 212.216 314.284 213.132 314.472Z" fill="#263238"/>
<path d="M216.78 309.948C215.857 310.4 214.882 310.735 213.876 310.944C209.088 312.202 204.149 312.788 199.2 312.684C198.176 312.717 197.152 312.621 196.152 312.396C197.163 312.268 198.182 312.216 199.2 312.24C201.084 312.18 203.676 312.048 206.532 311.712C209.388 311.376 211.932 310.896 213.732 310.512C214.732 310.245 215.751 310.056 216.78 309.948Z" fill="#263238"/>
<path d="M234.684 289.764C234.66 290.679 234.535 291.588 234.312 292.476C234 294.144 233.52 296.424 232.908 298.92C232.296 301.416 231.708 303.72 231.18 305.28C230.968 306.173 230.654 307.039 230.244 307.86C230.311 306.948 230.48 306.046 230.748 305.172C231.204 303.3 231.72 301.14 232.296 298.776C232.872 296.412 233.424 294.252 233.88 292.38C234.042 291.479 234.312 290.601 234.684 289.764Z" fill="#263238"/>
<path d="M182.232 316.608C179.456 316.179 176.716 315.541 174.036 314.7C171.297 314.06 168.61 313.217 165.996 312.18C168.771 312.616 171.51 313.253 174.192 314.088C176.931 314.726 179.619 315.568 182.232 316.608Z" fill="#263238"/>
<path d="M238.284 279.768C237.831 279.846 237.369 279.846 236.916 279.768C235.663 279.639 234.432 279.345 233.256 278.892C231.293 278.154 229.506 277.014 228.01 275.545C226.513 274.075 225.341 272.309 224.568 270.36C223.714 268.216 223.349 265.907 223.5 263.604C223.554 261.704 224.122 259.854 225.144 258.252C225.863 257.173 226.937 256.379 228.18 256.008C228.512 255.916 228.856 255.872 229.2 255.876C229.44 255.876 229.56 255.876 229.56 255.876C229.56 255.876 229.056 255.876 228.252 256.2C227.112 256.621 226.145 257.411 225.504 258.444C223.872 261.012 223.416 265.704 225.156 270.084C225.966 272.149 227.234 274.004 228.864 275.508C230.2 276.739 231.739 277.729 233.412 278.436C234.982 279.057 236.616 279.503 238.284 279.768Z" fill="#263238"/>
<path d="M266.256 280.8C265.956 277.12 265.86 273.426 265.968 269.736C265.874 266.049 265.986 262.359 266.304 258.684C266.604 262.36 266.701 266.05 266.592 269.736C266.693 273.427 266.581 277.122 266.256 280.8Z" fill="#263238"/>
<path d="M222.24 255.96C222.372 253.284 222.648 250.26 222.648 250.26C222.648 250.26 229.272 249.528 229.668 242.688C230.064 235.848 229.668 220.068 229.668 220.068L217.668 213.924L204.348 224.4L206.4 258.6L218.616 259.38C219.55 259.406 220.456 259.06 221.135 258.419C221.814 257.778 222.212 256.894 222.24 255.96Z" fill="#FFBE9D"/>
<path d="M223.428 237.276C223.428 237.276 223.428 237.408 223.32 237.564C223.231 237.677 223.115 237.767 222.984 237.825C222.852 237.884 222.708 237.91 222.564 237.9C221.796 237.9 221.052 237.012 220.788 235.98C220.663 235.48 220.663 234.956 220.788 234.456C220.813 234.238 220.891 234.029 221.017 233.849C221.143 233.668 221.312 233.522 221.508 233.424C221.669 233.357 221.851 233.357 222.012 233.424C222.132 233.483 222.229 233.58 222.288 233.7C222.372 233.904 222.288 234.036 222.288 234.024C222.288 234.012 222.288 233.904 222.168 233.784C222.105 233.698 222.013 233.638 221.909 233.616C221.805 233.594 221.696 233.611 221.604 233.664C221.457 233.753 221.335 233.878 221.248 234.027C221.162 234.176 221.116 234.344 221.112 234.516C221.011 234.962 221.011 235.426 221.112 235.872C221.352 236.808 222 237.564 222.576 237.636C222.689 237.651 222.803 237.643 222.913 237.612C223.022 237.581 223.124 237.528 223.212 237.456C223.356 237.36 223.404 237.264 223.428 237.276Z" fill="#EB996E"/>
<path d="M233.784 216.372C232.86 213.228 229.512 211.668 226.464 210.804C221.82 209.484 216.804 208.908 212.268 210.576C207.732 212.244 202.284 215.172 202.284 220.176C199.608 219.96 198.072 222.3 197.016 225.204C196.341 226.973 195.936 228.834 195.816 230.724C195.48 237.276 193.644 246.324 189.396 251.124C186.996 253.8 183.672 255.648 182.304 258.984C181.104 261.876 181.728 265.308 180.612 268.236C179.616 270.816 177.42 272.652 175.812 274.896C174.174 277.442 173.21 280.362 173.01 283.383C172.811 286.403 173.383 289.425 174.672 292.164C175.971 294.833 177.799 297.209 180.046 299.148C182.292 301.088 184.91 302.549 187.74 303.444C193.345 305.149 199.323 305.208 204.96 303.612C209.191 302.6 213.138 300.643 216.504 297.888C219.948 295.075 222.314 291.158 223.2 286.8C224.052 281.904 222.684 276.924 221.664 272.052C218.472 256.656 219.384 255.852 223.416 241.56C223.512 241.308 223.56 241.044 223.632 240.792C223.704 240.54 223.74 240.42 223.788 240.228C223.903 239.663 223.963 239.088 223.968 238.512C223.379 238.731 222.74 238.777 222.126 238.646C221.511 238.514 220.947 238.209 220.5 237.768C220.052 237.297 219.739 236.714 219.596 236.081C219.452 235.447 219.482 234.786 219.684 234.168C219.967 233.492 220.389 232.884 220.922 232.381C221.456 231.879 222.089 231.494 222.78 231.252C224.112 230.7 225.54 230.412 226.848 229.8C229.62 228.48 231.54 225.744 232.848 222.876C233.923 220.888 234.255 218.582 233.784 216.372Z" fill="#263238"/>
<path d="M223.908 237.6C224.162 237.975 224.371 238.377 224.532 238.8C224.892 239.556 225.372 240.624 225.9 241.86L225.996 242.088H225.744L224.544 242.196C223.716 242.196 223.02 242.352 222.204 242.34C222.133 242.324 222.067 242.29 222.013 242.242C221.958 242.194 221.917 242.133 221.892 242.064C221.856 241.955 221.856 241.837 221.892 241.728C221.92 241.566 221.956 241.406 222 241.248L222.216 240.396C222.325 239.828 222.494 239.272 222.72 238.74C222.698 239.319 222.613 239.895 222.468 240.456L222.3 241.308C222.24 241.596 222.132 242.04 222.3 242.004C222.9 242.004 223.752 241.872 224.544 241.824L225.744 241.716L225.588 241.98C225.072 240.78 224.64 239.652 224.388 238.872C224.167 238.474 224.005 238.045 223.908 237.6Z" fill="#90CAF9"/>
<path d="M182.82 338.604L236.04 336.984L259.2 427.392L254.94 531.096H226.8L230.244 429.6L209.664 366.66L212.832 535.116L184.392 535.536L181.404 377.196C181.272 372.792 179.832 362.868 180.372 358.5L182.82 338.604Z" fill="#263238"/>
<path d="M216.744 367.944C215.873 367.999 214.998 367.946 214.14 367.788C212.532 367.596 210.336 367.26 207.924 366.78C205.512 366.3 203.352 365.748 201.792 365.304C200.958 365.121 200.151 364.83 199.392 364.44C199.392 364.26 203.304 365.196 208.104 366.168C212.904 367.14 216.768 367.764 216.744 367.944Z" fill="#455A64"/>
<path d="M254.652 525.408C254.652 525.576 248.28 525.72 240.42 525.72C232.56 525.72 226.176 525.576 226.176 525.408C226.176 525.24 232.548 525.096 240.42 525.096C248.292 525.096 254.652 525.228 254.652 525.408Z" fill="#455A64"/>
<path d="M212.58 530.736C212.58 530.916 206.388 531.048 198.756 531.048C191.124 531.048 184.944 530.916 184.944 530.736C184.944 530.556 191.136 530.424 198.756 530.424C206.376 530.424 212.58 530.568 212.58 530.736Z" fill="#455A64"/>
<path d="M208.908 530.304C208.74 530.304 207.996 493.5 207.24 448.104C206.484 402.708 206.04 365.88 206.196 365.88C206.352 365.88 207.12 402.672 207.864 448.092C208.608 493.512 209.088 530.304 208.908 530.304Z" fill="#455A64"/>
<path d="M250.872 525.408C250.859 525.244 250.859 525.08 250.872 524.916V523.476C250.872 522.18 250.968 520.32 251.04 517.956C251.208 513.156 251.448 506.184 251.748 497.64C252.396 480.456 253.308 456.768 254.304 430.62C254.304 430.368 254.304 430.128 254.304 429.912V429.996C248.004 404.796 242.304 381.924 238.164 365.376L233.364 345.804C232.812 343.512 232.392 341.724 232.092 340.476C231.948 339.888 231.852 339.432 231.768 339.084C231.721 338.928 231.693 338.767 231.684 338.604C231.746 338.755 231.795 338.912 231.828 339.072C231.924 339.408 232.044 339.864 232.212 340.44C232.536 341.64 233.004 343.464 233.604 345.744C234.804 350.376 236.496 357.048 238.608 365.268C242.784 381.804 248.544 404.616 254.928 429.852V429.936C254.928 430.152 254.928 430.404 254.928 430.644C253.86 456.792 252.888 480.468 252.18 497.652C251.808 506.208 251.496 513.132 251.28 517.956C251.16 520.356 251.064 522.18 251.004 523.476C251.004 524.088 250.932 524.568 250.92 524.916C250.922 525.081 250.906 525.246 250.872 525.408Z" fill="#455A64"/>
<path d="M241.692 427.8C239.671 428.465 237.589 428.927 235.476 429.18C232.884 429.624 230.676 429.936 229.68 429.984V429.744C230.004 429.84 230.172 429.9 230.172 429.948C230.172 429.996 229.968 429.948 229.632 429.948H228.912L229.632 429.732C230.568 429.456 232.776 429 235.368 428.532C237.447 428.081 239.565 427.836 241.692 427.8Z" fill="#455A64"/>
<path d="M241.2 431.244C239.328 431.33 237.453 431.245 235.596 430.992C233.722 430.954 231.854 430.749 230.016 430.38C233.766 430.074 237.541 430.366 241.2 431.244Z" fill="#455A64"/>
<path opacity="0.2" d="M182.592 340.512C183.222 341.321 184.016 341.989 184.922 342.47C185.828 342.952 186.825 343.238 187.848 343.308C189.991 343.562 192.16 343.522 194.292 343.188C208.032 341.664 222.588 340.26 236.04 336.984C218.628 337.956 200.232 337.632 182.82 338.604L182.64 340.092" fill="black"/>
<g opacity="0.2">
<path d="M200.532 365.052L210.348 403.14L209.664 366.66L200.532 365.052Z" fill="black"/>
</g>
</svg>
